<svg xmlns="http://www.w3.org/2000/svg" xmlns:xlink="http://www.w3.org/1999/xlink" width="100" zoomAndPan="magnify" viewBox="0 0 75 37.5" height="50" preserveAspectRatio="xMidYMid meet" version="1.0"><defs><clipPath id="7a683ea9a9"><path d="M 62 30 L 69.964844 30 L 69.964844 34 L 62 34 Z M 62 30 " clip-rule="nonzero"/></clipPath><clipPath id="6a305e7c25"><path d="M 36 0 L 69.964844 0 L 69.964844 31 L 36 31 Z M 36 0 " clip-rule="nonzero"/></clipPath></defs><path fill="#000000" d="M 36.449219 21.582031 C 36.308594 21.582031 36.183594 21.628906 36.066406 21.722656 C 35.980469 21.792969 35.921875 21.886719 35.875 21.988281 C 35.875 21.988281 35.878906 21.988281 35.878906 21.988281 C 35.925781 21.886719 35.988281 21.792969 36.074219 21.722656 C 36.1875 21.628906 36.3125 21.582031 36.449219 21.582031 Z M 36.449219 21.582031 " fill-opacity="0.9412" fill-rule="evenodd"/><path fill="#000000" d="M 13.125 3.519531 C 13.125 3.519531 7.933594 26.269531 7.933594 26.269531 C 7.9375 26.269531 7.9375 26.269531 7.941406 26.269531 C 7.941406 26.269531 31.953125 26.269531 31.953125 26.269531 C 31.953125 26.269531 44.441406 26.269531 44.441406 26.269531 C 42.953125 26.140625 41.78125 25.613281 41.078125 24.65625 C 40.949219 24.480469 40.84375 24.289062 40.75 24.089844 C 40.6875 23.945312 40.632812 23.796875 40.574219 23.644531 C 40.425781 23.167969 40.367188 22.640625 40.394531 22.078125 C 40.46875 20.503906 41.203125 18.636719 42.472656 16.679688 C 43.824219 14.601562 45.78125 12.421875 48.207031 10.398438 C 48.75 9.945312 49.308594 9.496094 49.898438 9.0625 C 50.625 8.527344 51.359375 8.03125 52.089844 7.566406 C 54.789062 5.859375 57.484375 4.667969 59.871094 4.058594 C 57.589844 4.808594 55.027344 6.074219 52.496094 7.800781 C 52.40625 7.863281 52.316406 7.925781 52.226562 7.988281 C 50.820312 8.96875 49.550781 10.003906 48.4375 11.054688 C 44.867188 14.429688 42.976562 17.925781 43.835938 19.972656 C 43.898438 20.113281 43.96875 20.25 44.054688 20.375 C 44.976562 21.738281 47.261719 21.972656 50.160156 21.242188 C 50.355469 21.195312 50.554688 21.136719 50.757812 21.078125 C 51.683594 20.8125 52.664062 20.449219 53.675781 20 C 53.917969 19.894531 54.164062 19.78125 54.414062 19.664062 C 54.4375 19.652344 54.460938 19.640625 54.488281 19.625 C 57.679688 18.03125 60.136719 16.199219 60.667969 15.097656 C 60.78125 14.855469 60.8125 14.652344 60.730469 14.492188 C 60.351562 13.71875 57.699219 14.242188 54.488281 15.640625 C 54.230469 15.753906 53.96875 15.867188 53.703125 15.992188 C 53.917969 15.789062 54.140625 15.589844 54.371094 15.390625 C 54.734375 15.078125 55.113281 14.769531 55.511719 14.464844 C 56.140625 13.984375 56.777344 13.554688 57.402344 13.171875 C 60.332031 10.953125 61.808594 8.851562 61.5 8.074219 C 61.441406 7.925781 61.320312 7.828125 61.128906 7.765625 C 60.519531 7.570312 59.402344 7.804688 58.050781 8.359375 C 56.933594 8.820312 55.652344 9.503906 54.351562 10.351562 C 54.351562 10.351562 54.175781 10.46875 54.175781 10.46875 C 54.175781 10.46875 54.140625 10.488281 54.140625 10.488281 C 54.140625 10.488281 53.515625 10.902344 53.515625 10.902344 C 53.515625 10.902344 53.875 10.242188 53.875 10.242188 C 54.410156 9.261719 55.277344 8.242188 56.359375 7.292969 C 57.148438 6.597656 58.054688 5.945312 59.03125 5.371094 C 59.398438 5.15625 59.765625 4.953125 60.136719 4.773438 C 60.511719 4.585938 60.890625 4.421875 61.257812 4.273438 C 62.328125 3.847656 63.351562 3.589844 64.242188 3.519531 C 64.164062 3.519531 61.738281 3.519531 61.738281 3.519531 C 61.738281 3.519531 53.296875 3.519531 53.296875 3.519531 C 53.296875 3.519531 16.078125 3.519531 16.078125 3.519531 C 16.078125 3.519531 13.125 3.519531 13.125 3.519531 Z M 39.902344 3.554688 C 39.757812 5.796875 40.191406 9.078125 41.171875 12.726562 C 41.347656 13.375 41.539062 14.035156 41.746094 14.703125 C 41.875 15.117188 42.011719 15.519531 42.148438 15.921875 C 42.066406 16.039062 41.984375 16.160156 41.910156 16.277344 C 40.683594 18.164062 39.96875 19.945312 39.789062 21.496094 C 39.269531 19.753906 38.878906 17.847656 38.660156 15.824219 C 38.597656 15.242188 38.546875 14.667969 38.515625 14.101562 C 38.273438 9.988281 38.808594 6.261719 39.902344 3.554688 Z M 15.453125 6.472656 C 15.480469 6.472656 15.507812 6.472656 15.535156 6.472656 C 15.535156 6.472656 21.054688 6.472656 21.054688 6.472656 C 21.527344 6.472656 21.890625 6.5625 22.148438 6.738281 C 22.40625 6.917969 22.503906 7.148438 22.445312 7.433594 C 22.445312 7.433594 21.785156 10.417969 21.785156 10.417969 C 21.785156 10.417969 19.839844 10.417969 19.839844 10.417969 C 19.839844 10.417969 20.480469 7.511719 20.480469 7.511719 C 20.480469 7.511719 15.613281 7.511719 15.613281 7.511719 C 15.613281 7.511719 13.851562 15.496094 13.851562 15.496094 C 13.851562 15.496094 13.21875 18.386719 13.21875 18.386719 C 13.21875 18.386719 18.082031 18.386719 18.082031 18.386719 C 18.082031 18.386719 18.085938 18.367188 18.085938 18.367188 C 18.085938 18.367188 19.0625 13.945312 19.0625 13.945312 C 19.0625 13.945312 16.777344 13.945312 16.777344 13.945312 C 16.777344 13.945312 16.996094 12.945312 16.996094 12.945312 C 16.996094 12.945312 21.226562 12.945312 21.226562 12.945312 C 21.226562 12.945312 20.015625 18.464844 20.015625 18.464844 C 19.996094 18.542969 19.96875 18.613281 19.929688 18.683594 C 19.828125 18.867188 19.65625 19.023438 19.414062 19.152344 C 19.074219 19.332031 18.671875 19.421875 18.199219 19.421875 C 18.199219 19.421875 12.6875 19.421875 12.6875 19.421875 C 12.214844 19.421875 11.851562 19.332031 11.589844 19.152344 C 11.332031 18.976562 11.234375 18.746094 11.296875 18.464844 C 11.296875 18.464844 13.726562 7.433594 13.726562 7.433594 C 13.789062 7.148438 13.984375 6.917969 14.324219 6.738281 C 14.335938 6.734375 14.351562 6.730469 14.363281 6.726562 C 14.671875 6.570312 15.035156 6.480469 15.453125 6.472656 Z M 24.097656 6.472656 C 24.097656 6.472656 31.042969 6.472656 31.042969 6.472656 C 31.507812 6.472656 31.875 6.5625 32.132812 6.738281 C 32.394531 6.917969 32.496094 7.148438 32.433594 7.433594 C 32.433594 7.433594 31.136719 13.316406 31.136719 13.316406 C 31.074219 13.597656 30.875 13.824219 30.535156 14.003906 C 30.195312 14.183594 29.792969 14.277344 29.328125 14.277344 C 29.328125 14.277344 24.28125 14.277344 24.28125 14.277344 C 24.28125 14.277344 23.304688 18.695312 23.304688 18.695312 C 23.304688 18.695312 23.148438 19.421875 23.148438 19.421875 C 23.148438 19.421875 21.246094 19.421875 21.246094 19.421875 C 21.246094 19.421875 21.390625 18.765625 21.390625 18.765625 C 21.390625 18.765625 24.097656 6.472656 24.097656 6.472656 Z M 33.691406 6.472656 C 33.691406 6.472656 35.59375 6.472656 35.59375 6.472656 C 35.59375 6.472656 33.441406 16.25 33.441406 16.25 C 33.441406 16.25 32.96875 18.386719 32.96875 18.386719 C 32.96875 18.386719 37.519531 18.386719 37.519531 18.386719 C 37.570312 18.734375 37.625 19.082031 37.683594 19.421875 C 37.683594 19.421875 30.839844 19.421875 30.839844 19.421875 C 30.839844 19.421875 31.378906 16.964844 31.378906 16.964844 C 31.378906 16.964844 33.691406 6.472656 33.691406 6.472656 Z M 25.773438 7.511719 C 25.773438 7.511719 24.507812 13.238281 24.507812 13.238281 C 24.507812 13.238281 29.253906 13.238281 29.253906 13.238281 C 29.253906 13.238281 30.511719 7.511719 30.511719 7.511719 C 30.511719 7.511719 25.773438 7.511719 25.773438 7.511719 Z M 21.785156 20.320312 C 21.804688 20.320312 21.824219 20.320312 21.84375 20.320312 C 22.0625 20.320312 22.253906 20.359375 22.410156 20.433594 C 22.578125 20.511719 22.695312 20.625 22.761719 20.777344 C 22.824219 20.925781 22.839844 21.097656 22.808594 21.28125 C 22.808594 21.28125 22.792969 21.351562 22.792969 21.351562 C 22.792969 21.351562 22.246094 21.351562 22.246094 21.351562 C 22.246094 21.351562 22.253906 21.285156 22.253906 21.285156 C 22.265625 21.15625 22.25 21.054688 22.199219 20.984375 C 22.195312 20.976562 22.183594 20.964844 22.179688 20.957031 C 22.164062 20.945312 22.148438 20.929688 22.132812 20.917969 C 22.054688 20.871094 21.933594 20.84375 21.78125 20.84375 C 21.578125 20.84375 21.425781 20.878906 21.320312 20.953125 C 21.21875 21.023438 21.152344 21.101562 21.132812 21.195312 C 21.113281 21.292969 21.148438 21.34375 21.171875 21.371094 C 21.171875 21.371094 21.175781 21.375 21.175781 21.375 C 21.207031 21.398438 21.308594 21.460938 21.636719 21.539062 C 21.933594 21.609375 22.128906 21.675781 22.238281 21.730469 C 22.40625 21.816406 22.523438 21.925781 22.582031 22.0625 C 22.644531 22.199219 22.660156 22.355469 22.621094 22.527344 C 22.582031 22.691406 22.5 22.847656 22.375 22.992188 C 22.25 23.132812 22.09375 23.25 21.902344 23.328125 C 21.714844 23.40625 21.507812 23.449219 21.296875 23.449219 C 21.027344 23.449219 20.8125 23.410156 20.644531 23.328125 C 20.46875 23.242188 20.339844 23.109375 20.265625 22.9375 C 20.195312 22.769531 20.179688 22.582031 20.21875 22.371094 C 20.21875 22.371094 20.234375 22.304688 20.234375 22.304688 C 20.234375 22.304688 20.769531 22.304688 20.769531 22.304688 C 20.769531 22.304688 20.765625 22.371094 20.765625 22.371094 C 20.75 22.496094 20.765625 22.597656 20.796875 22.671875 C 20.828125 22.742188 20.886719 22.804688 20.984375 22.851562 C 21.085938 22.898438 21.210938 22.925781 21.355469 22.925781 C 21.488281 22.925781 21.605469 22.902344 21.710938 22.863281 C 21.816406 22.828125 21.898438 22.777344 21.957031 22.714844 C 22.015625 22.652344 22.050781 22.585938 22.066406 22.511719 C 22.082031 22.449219 22.078125 22.394531 22.050781 22.347656 C 22.023438 22.300781 21.96875 22.257812 21.878906 22.222656 C 21.878906 22.222656 21.421875 22.085938 21.421875 22.085938 C 21.167969 22.023438 20.996094 21.960938 20.894531 21.898438 C 20.757812 21.816406 20.660156 21.714844 20.609375 21.589844 C 20.558594 21.464844 20.554688 21.332031 20.585938 21.183594 C 20.621094 21.023438 20.699219 20.871094 20.816406 20.738281 C 20.933594 20.601562 21.089844 20.492188 21.273438 20.421875 C 21.433594 20.363281 21.605469 20.328125 21.785156 20.320312 Z M 26.683594 20.328125 C 26.710938 20.328125 26.738281 20.328125 26.773438 20.328125 C 26.773438 20.328125 27.105469 20.367188 27.105469 20.367188 C 27.105469 20.367188 27.21875 20.375 27.21875 20.375 C 27.21875 20.375 27.054688 20.792969 27.054688 20.792969 C 27.054688 20.792969 27.023438 20.859375 27.023438 20.859375 C 27.023438 20.859375 26.765625 20.835938 26.765625 20.835938 C 26.691406 20.835938 26.636719 20.847656 26.597656 20.871094 C 26.597656 20.875 26.59375 20.878906 26.589844 20.882812 C 26.585938 20.886719 26.578125 20.894531 26.570312 20.902344 C 26.546875 20.929688 26.519531 20.984375 26.5 21.078125 C 26.5 21.078125 26.492188 21.121094 26.480469 21.152344 C 26.601562 21.152344 26.882812 21.152344 26.882812 21.152344 C 26.882812 21.152344 26.78125 21.617188 26.78125 21.617188 C 26.78125 21.617188 26.488281 21.617188 26.390625 21.617188 C 26.359375 21.753906 25.992188 23.402344 25.992188 23.402344 C 25.992188 23.402344 25.453125 23.402344 25.453125 23.402344 C 25.453125 23.402344 25.804688 21.816406 25.847656 21.617188 C 25.757812 21.617188 25.535156 21.617188 25.535156 21.617188 C 25.535156 21.617188 25.636719 21.152344 25.636719 21.152344 C 25.636719 21.152344 25.859375 21.152344 25.945312 21.152344 C 25.960938 21.089844 25.984375 21.007812 25.984375 21.007812 C 26.015625 20.859375 26.050781 20.75 26.09375 20.675781 C 26.15625 20.574219 26.242188 20.484375 26.351562 20.421875 C 26.441406 20.371094 26.554688 20.339844 26.683594 20.328125 Z M 27.976562 20.351562 C 27.976562 20.351562 27.832031 20.992188 27.796875 21.152344 C 27.902344 21.152344 28.148438 21.152344 28.148438 21.152344 C 28.148438 21.152344 28.042969 21.617188 28.042969 21.617188 C 28.042969 21.617188 27.789062 21.617188 27.695312 21.617188 C 27.667969 21.746094 27.441406 22.746094 27.441406 22.746094 C 27.441406 22.746094 27.425781 22.867188 27.425781 22.902344 C 27.425781 22.902344 27.425781 22.90625 27.425781 22.90625 C 27.425781 22.90625 27.425781 22.910156 27.425781 22.910156 C 27.425781 22.910156 27.429688 22.910156 27.429688 22.910156 C 27.429688 22.910156 27.484375 22.914062 27.484375 22.914062 C 27.484375 22.914062 27.742188 22.898438 27.742188 22.898438 C 27.742188 22.898438 27.714844 23.3125 27.714844 23.3125 C 27.714844 23.3125 27.71875 23.386719 27.71875 23.386719 C 27.71875 23.386719 27.351562 23.429688 27.351562 23.429688 C 27.203125 23.429688 27.097656 23.40625 27.019531 23.355469 C 26.9375 23.300781 26.890625 23.230469 26.871094 23.140625 C 26.867188 23.125 26.859375 23.101562 26.859375 23.066406 C 26.859375 22.996094 26.871094 22.882812 26.917969 22.6875 C 26.917969 22.6875 27.113281 21.804688 27.152344 21.617188 C 27.082031 21.617188 26.898438 21.617188 26.898438 21.617188 C 26.898438 21.617188 27 21.152344 27 21.152344 C 27 21.152344 27.183594 21.152344 27.257812 21.152344 C 27.28125 21.046875 27.363281 20.675781 27.363281 20.675781 C 27.363281 20.675781 27.796875 20.445312 27.796875 20.445312 C 27.796875 20.445312 27.976562 20.351562 27.976562 20.351562 Z M 10.789062 20.371094 C 10.789062 20.371094 12.886719 20.371094 12.886719 20.371094 C 12.886719 20.371094 12.769531 20.894531 12.769531 20.894531 C 12.769531 20.894531 11.371094 20.894531 11.238281 20.894531 C 11.214844 21.003906 11.117188 21.433594 11.082031 21.589844 C 11.277344 21.589844 12.414062 21.589844 12.414062 21.589844 C 12.414062 21.589844 12.296875 22.113281 12.296875 22.113281 C 12.296875 22.113281 11.101562 22.113281 10.964844 22.113281 C 10.9375 22.246094 10.683594 23.402344 10.683594 23.402344 C 10.683594 23.402344 10.117188 23.402344 10.117188 23.402344 C 10.117188 23.402344 10.789062 20.371094 10.789062 20.371094 Z M 13.601562 21.113281 C 13.621094 21.109375 13.644531 21.113281 13.667969 21.113281 C 13.800781 21.113281 13.925781 21.152344 14.042969 21.238281 C 14.042969 21.238281 14.117188 21.289062 14.117188 21.289062 C 14.117188 21.289062 13.828125 21.769531 13.828125 21.769531 C 13.828125 21.769531 13.75 21.710938 13.75 21.710938 C 13.691406 21.675781 13.628906 21.65625 13.5625 21.65625 C 13.507812 21.65625 13.453125 21.675781 13.402344 21.710938 C 13.34375 21.75 13.296875 21.796875 13.261719 21.867188 C 13.199219 21.980469 13.152344 22.109375 13.121094 22.25 C 13.121094 22.25 12.871094 23.402344 12.871094 23.402344 C 12.871094 23.402344 12.328125 23.402344 12.328125 23.402344 C 12.328125 23.402344 12.828125 21.152344 12.828125 21.152344 C 12.828125 21.152344 13.332031 21.152344 13.332031 21.152344 C 13.332031 21.152344 13.3125 21.222656 13.308594 21.246094 C 13.332031 21.230469 13.355469 21.203125 13.378906 21.191406 C 13.449219 21.148438 13.527344 21.121094 13.601562 21.113281 Z M 15.207031 21.113281 C 15.238281 21.109375 15.269531 21.113281 15.304688 21.113281 C 15.609375 21.113281 15.839844 21.21875 15.988281 21.429688 C 16.082031 21.566406 16.132812 21.734375 16.132812 21.9375 C 16.132812 22.046875 16.121094 22.167969 16.09375 22.296875 C 16.09375 22.296875 16.050781 22.460938 16.050781 22.460938 C 16.050781 22.460938 14.683594 22.460938 14.53125 22.460938 C 14.527344 22.492188 14.523438 22.527344 14.523438 22.554688 C 14.523438 22.671875 14.546875 22.761719 14.597656 22.832031 C 14.625 22.863281 14.652344 22.894531 14.683594 22.914062 C 14.742188 22.953125 14.820312 22.976562 14.910156 22.976562 C 15.023438 22.976562 15.121094 22.945312 15.210938 22.886719 C 15.296875 22.832031 15.378906 22.742188 15.453125 22.621094 C 15.453125 22.621094 16.03125 22.621094 16.03125 22.621094 C 16.03125 22.621094 15.980469 22.734375 15.980469 22.734375 C 15.871094 22.957031 15.714844 23.132812 15.523438 23.257812 C 15.332031 23.382812 15.101562 23.449219 14.847656 23.449219 C 14.515625 23.449219 14.269531 23.34375 14.117188 23.132812 C 13.96875 22.925781 13.9375 22.636719 14.015625 22.277344 C 14.097656 21.914062 14.257812 21.621094 14.492188 21.417969 C 14.703125 21.234375 14.941406 21.132812 15.207031 21.113281 Z M 17.636719 21.113281 C 17.667969 21.109375 17.699219 21.113281 17.734375 21.113281 C 18.039062 21.113281 18.269531 21.21875 18.417969 21.429688 C 18.511719 21.566406 18.5625 21.734375 18.5625 21.9375 C 18.5625 22.046875 18.550781 22.164062 18.523438 22.292969 C 18.523438 22.292969 18.480469 22.460938 18.480469 22.460938 C 18.480469 22.460938 17.113281 22.460938 16.960938 22.460938 C 16.957031 22.480469 16.957031 22.5 16.953125 22.523438 C 16.953125 22.53125 16.957031 22.542969 16.953125 22.550781 C 16.953125 22.550781 16.953125 22.554688 16.953125 22.554688 C 16.953125 22.578125 16.957031 22.597656 16.960938 22.621094 C 16.964844 22.707031 16.988281 22.777344 17.027344 22.832031 C 17.035156 22.839844 17.042969 22.855469 17.050781 22.863281 C 17.121094 22.9375 17.21875 22.976562 17.339844 22.976562 C 17.453125 22.976562 17.550781 22.945312 17.640625 22.886719 C 17.726562 22.832031 17.808594 22.742188 17.882812 22.621094 C 17.882812 22.621094 18.464844 22.621094 18.464844 22.621094 C 18.464844 22.621094 18.410156 22.734375 18.410156 22.734375 C 18.300781 22.957031 18.144531 23.132812 17.953125 23.257812 C 17.761719 23.382812 17.53125 23.449219 17.277344 23.449219 C 16.945312 23.449219 16.699219 23.34375 16.550781 23.132812 C 16.449219 22.996094 16.402344 22.824219 16.402344 22.621094 C 16.402344 22.589844 16.40625 22.554688 16.410156 22.523438 C 16.414062 22.445312 16.425781 22.367188 16.445312 22.277344 C 16.527344 21.914062 16.683594 21.621094 16.917969 21.417969 C 17.128906 21.234375 17.371094 21.132812 17.636719 21.113281 Z M 24.253906 21.113281 C 24.285156 21.109375 24.316406 21.113281 24.351562 21.113281 C 24.660156 21.113281 24.898438 21.21875 25.054688 21.425781 C 25.210938 21.632812 25.246094 21.914062 25.167969 22.269531 C 25.105469 22.542969 25.019531 22.769531 24.898438 22.929688 C 24.777344 23.089844 24.621094 23.222656 24.441406 23.3125 C 24.257812 23.402344 24.066406 23.449219 23.875 23.449219 C 23.558594 23.449219 23.324219 23.339844 23.171875 23.132812 C 23.074219 22.996094 23.023438 22.824219 23.023438 22.621094 C 23.023438 22.507812 23.035156 22.390625 23.0625 22.257812 C 23.152344 21.859375 23.335938 21.550781 23.605469 21.355469 C 23.800781 21.210938 24.019531 21.128906 24.253906 21.113281 Z M 32.445312 21.113281 C 32.488281 21.109375 32.523438 21.113281 32.5625 21.113281 C 32.75 21.113281 32.898438 21.132812 33.011719 21.175781 C 33.128906 21.226562 33.214844 21.292969 33.261719 21.375 C 33.308594 21.449219 33.332031 21.542969 33.332031 21.660156 C 33.332031 21.660156 33.277344 22 33.277344 22 C 33.277344 22 33.175781 22.464844 33.175781 22.464844 C 33.085938 22.863281 33.066406 23.011719 33.0625 23.066406 C 33.058594 23.140625 33.066406 23.214844 33.085938 23.28125 C 33.085938 23.28125 33.125 23.402344 33.125 23.402344 C 33.125 23.402344 32.574219 23.402344 32.574219 23.402344 C 32.574219 23.402344 32.550781 23.332031 32.550781 23.332031 C 32.539062 23.300781 32.542969 23.257812 32.539062 23.21875 C 32.4375 23.285156 32.332031 23.339844 32.238281 23.375 C 32.097656 23.421875 31.953125 23.449219 31.808594 23.449219 C 31.554688 23.449219 31.367188 23.382812 31.253906 23.253906 C 31.167969 23.15625 31.128906 23.039062 31.128906 22.90625 C 31.128906 22.855469 31.132812 22.800781 31.144531 22.746094 C 31.171875 22.632812 31.21875 22.527344 31.289062 22.433594 C 31.363281 22.339844 31.445312 22.261719 31.542969 22.207031 C 31.636719 22.152344 31.738281 22.113281 31.84375 22.085938 C 31.84375 22.085938 32.175781 22.03125 32.175781 22.03125 C 32.433594 22 32.621094 21.960938 32.757812 21.921875 C 32.761719 21.90625 32.769531 21.890625 32.769531 21.890625 C 32.789062 21.792969 32.789062 21.71875 32.765625 21.683594 C 32.761719 21.679688 32.757812 21.675781 32.753906 21.675781 C 32.75 21.667969 32.742188 21.660156 32.734375 21.65625 C 32.679688 21.609375 32.585938 21.589844 32.457031 21.589844 C 32.3125 21.589844 32.203125 21.613281 32.128906 21.660156 C 32.058594 21.707031 31.988281 21.792969 31.929688 21.914062 C 31.929688 21.914062 31.363281 21.914062 31.363281 21.914062 C 31.363281 21.914062 31.417969 21.800781 31.417969 21.800781 C 31.484375 21.644531 31.5625 21.515625 31.664062 21.417969 C 31.761719 21.316406 31.898438 21.242188 32.054688 21.1875 C 32.175781 21.148438 32.304688 21.121094 32.445312 21.113281 Z M 34.8125 21.113281 C 34.832031 21.109375 34.855469 21.113281 34.875 21.113281 C 35.011719 21.113281 35.140625 21.152344 35.257812 21.238281 C 35.257812 21.238281 35.328125 21.289062 35.328125 21.289062 C 35.328125 21.289062 35.039062 21.769531 35.039062 21.769531 C 35.039062 21.769531 34.960938 21.710938 34.960938 21.710938 C 34.902344 21.675781 34.84375 21.65625 34.777344 21.65625 C 34.722656 21.65625 34.667969 21.675781 34.609375 21.710938 C 34.554688 21.75 34.511719 21.796875 34.476562 21.867188 C 34.414062 21.980469 34.367188 22.109375 34.335938 22.25 C 34.335938 22.25 34.078125 23.402344 34.078125 23.402344 C 34.078125 23.402344 33.539062 23.402344 33.539062 23.402344 C 33.539062 23.402344 34.039062 21.152344 34.039062 21.152344 C 34.039062 21.152344 34.542969 21.152344 34.542969 21.152344 C 34.542969 21.152344 34.527344 21.222656 34.523438 21.246094 C 34.546875 21.230469 34.570312 21.203125 34.59375 21.191406 C 34.664062 21.148438 34.738281 21.121094 34.8125 21.113281 Z M 36.410156 21.113281 C 36.445312 21.109375 36.476562 21.113281 36.507812 21.113281 C 36.8125 21.113281 37.046875 21.21875 37.195312 21.429688 C 37.289062 21.566406 37.339844 21.734375 37.339844 21.9375 C 37.339844 22.046875 37.320312 22.167969 37.292969 22.296875 C 37.292969 22.296875 37.253906 22.460938 37.253906 22.460938 C 37.253906 22.460938 35.886719 22.460938 35.734375 22.460938 C 35.730469 22.492188 35.726562 22.527344 35.726562 22.554688 C 35.726562 22.671875 35.75 22.761719 35.800781 22.832031 C 35.808594 22.839844 35.820312 22.855469 35.828125 22.863281 C 35.832031 22.871094 35.839844 22.878906 35.847656 22.882812 C 35.914062 22.945312 36.003906 22.976562 36.117188 22.976562 C 36.226562 22.976562 36.324219 22.945312 36.414062 22.886719 C 36.503906 22.832031 36.582031 22.742188 36.660156 22.621094 C 36.660156 22.621094 37.242188 22.621094 37.242188 22.621094 C 37.242188 22.621094 37.183594 22.734375 37.183594 22.734375 C 37.074219 22.957031 36.917969 23.132812 36.726562 23.257812 C 36.535156 23.382812 36.308594 23.449219 36.050781 23.449219 C 35.722656 23.449219 35.480469 23.34375 35.328125 23.132812 C 35.179688 22.925781 35.144531 22.636719 35.222656 22.277344 C 35.300781 21.914062 35.457031 21.621094 35.691406 21.417969 C 35.90625 21.234375 36.144531 21.132812 36.410156 21.113281 Z M 28.246094 21.152344 C 28.246094 21.152344 28.800781 21.152344 28.800781 21.152344 C 28.800781 21.152344 28.867188 22.488281 28.871094 22.507812 C 28.890625 22.460938 28.910156 22.417969 28.914062 22.414062 C 28.914062 22.414062 29.523438 21.152344 29.523438 21.152344 C 29.523438 21.152344 30.03125 21.152344 30.03125 21.152344 C 30.03125 21.152344 30.078125 22.472656 30.078125 22.480469 C 30.09375 22.453125 30.773438 21.152344 30.773438 21.152344 C 30.773438 21.152344 31.324219 21.152344 31.324219 21.152344 C 31.324219 21.152344 30.109375 23.402344 30.109375 23.402344 C 30.109375 23.402344 29.613281 23.402344 29.613281 23.402344 C 29.613281 23.402344 29.5625 22.183594 29.558594 22.113281 C 29.355469 22.539062 28.933594 23.402344 28.933594 23.402344 C 28.933594 23.402344 28.421875 23.402344 28.421875 23.402344 C 28.421875 23.402344 28.246094 21.152344 28.246094 21.152344 Z M 15.214844 21.582031 C 15.085938 21.585938 14.96875 21.632812 14.859375 21.722656 C 14.773438 21.789062 14.714844 21.882812 14.667969 21.988281 C 14.667969 21.988281 15.589844 21.988281 15.589844 21.988281 C 15.589844 21.972656 15.59375 21.953125 15.59375 21.9375 C 15.59375 21.851562 15.578125 21.785156 15.550781 21.738281 C 15.484375 21.632812 15.386719 21.582031 15.242188 21.582031 C 15.234375 21.582031 15.222656 21.578125 15.214844 21.582031 Z M 17.644531 21.582031 C 17.515625 21.585938 17.398438 21.632812 17.289062 21.722656 C 17.203125 21.789062 17.148438 21.882812 17.097656 21.988281 C 17.097656 21.988281 18.019531 21.988281 18.019531 21.988281 C 18.019531 21.972656 18.023438 21.953125 18.023438 21.9375 C 18.023438 21.851562 18.007812 21.785156 17.980469 21.738281 C 17.96875 21.71875 17.949219 21.695312 17.933594 21.679688 C 17.871094 21.613281 17.785156 21.582031 17.671875 21.582031 C 17.664062 21.582031 17.652344 21.578125 17.644531 21.582031 Z M 36.4375 21.582031 C 36.308594 21.585938 36.183594 21.628906 36.070312 21.722656 C 35.984375 21.789062 35.925781 21.882812 35.878906 21.988281 C 35.878906 21.988281 36.792969 21.988281 36.792969 21.988281 C 36.796875 21.972656 36.796875 21.953125 36.796875 21.9375 C 36.796875 21.851562 36.785156 21.785156 36.757812 21.738281 C 36.691406 21.632812 36.59375 21.582031 36.449219 21.582031 C 36.445312 21.582031 36.445312 21.582031 36.4375 21.582031 Z M 24.21875 21.589844 C 24.097656 21.605469 23.984375 21.660156 23.875 21.757812 C 23.746094 21.875 23.652344 22.058594 23.601562 22.300781 C 23.578125 22.402344 23.566406 22.492188 23.566406 22.570312 C 23.566406 22.675781 23.589844 22.757812 23.628906 22.820312 C 23.640625 22.839844 23.652344 22.855469 23.664062 22.867188 C 23.730469 22.9375 23.824219 22.976562 23.941406 22.976562 C 24.089844 22.976562 24.222656 22.921875 24.351562 22.804688 C 24.480469 22.683594 24.570312 22.5 24.625 22.25 C 24.675781 22.023438 24.667969 21.851562 24.597656 21.746094 C 24.53125 21.640625 24.429688 21.589844 24.289062 21.589844 C 24.265625 21.589844 24.242188 21.585938 24.21875 21.589844 Z M 32.648438 22.410156 C 32.519531 22.445312 32.378906 22.472656 32.191406 22.5 C 32.050781 22.519531 31.949219 22.542969 31.890625 22.5625 C 31.839844 22.585938 31.800781 22.613281 31.765625 22.652344 C 31.734375 22.691406 31.710938 22.730469 31.699219 22.773438 C 31.699219 22.792969 31.695312 22.8125 31.695312 22.828125 C 31.695312 22.828125 31.695312 22.828125 31.695312 22.832031 C 31.695312 22.835938 31.695312 22.839844 31.695312 22.84375 C 31.695312 22.851562 31.699219 22.863281 31.699219 22.867188 C 31.703125 22.871094 31.703125 22.875 31.707031 22.878906 C 31.707031 22.882812 31.707031 22.886719 31.710938 22.890625 C 31.710938 22.894531 31.71875 22.902344 31.71875 22.90625 C 31.722656 22.910156 31.730469 22.917969 31.734375 22.925781 C 31.769531 22.964844 31.84375 22.984375 31.953125 22.984375 C 32.070312 22.984375 32.183594 22.964844 32.289062 22.910156 C 32.390625 22.859375 32.472656 22.785156 32.535156 22.695312 C 32.582031 22.632812 32.617188 22.535156 32.648438 22.410156 Z M 32.648438 22.410156 " fill-opacity="0.9412" fill-rule="evenodd"/><path fill="#000000" d="M 36.453125 21.582031 C 36.453125 21.582031 36.453125 21.582031 36.449219 21.582031 C 36.59375 21.582031 36.691406 21.632812 36.753906 21.738281 C 36.78125 21.785156 36.796875 21.851562 36.796875 21.9375 C 36.796875 21.953125 36.792969 21.972656 36.792969 21.988281 C 36.792969 21.988281 36.800781 21.988281 36.800781 21.988281 C 36.800781 21.972656 36.800781 21.953125 36.800781 21.9375 C 36.800781 21.851562 36.789062 21.785156 36.761719 21.738281 C 36.695312 21.632812 36.597656 21.582031 36.453125 21.582031 Z M 36.453125 21.582031 " fill-opacity="0.9412" fill-rule="evenodd"/><path fill="#000000" d="M 6.082031 33.972656 C 6.082031 33.972656 7.195312 33.972656 7.195312 33.972656 C 7.195312 33.972656 7.695312 31.871094 7.695312 31.871094 C 7.695312 31.871094 9.503906 31.871094 9.503906 31.871094 C 9.503906 31.871094 9.738281 30.972656 9.738281 30.972656 C 9.738281 30.972656 7.921875 30.972656 7.921875 30.972656 C 7.921875 30.972656 8.222656 29.625 8.222656 29.625 C 8.222656 29.625 10.15625 29.625 10.15625 29.625 C 10.15625 29.625 10.386719 28.574219 10.386719 28.574219 C 10.386719 28.574219 7.335938 28.574219 7.335938 28.574219 C 7.335938 28.574219 6.082031 33.972656 6.082031 33.972656 Z M 6.082031 33.972656 " fill-opacity="0.9412" fill-rule="evenodd"/><path fill="#000000" d="M 11.074219 33.972656 C 11.074219 33.972656 11.410156 32.5625 11.410156 32.5625 C 11.585938 31.796875 11.957031 31.121094 12.660156 31.121094 C 12.722656 31.121094 12.785156 31.152344 12.832031 31.160156 C 12.832031 31.160156 13.101562 30.082031 13.101562 30.082031 C 13.039062 30.082031 12.972656 30.074219 12.894531 30.074219 C 12.375 30.074219 11.941406 30.4375 11.652344 30.964844 C 11.652344 30.964844 11.621094 30.964844 11.621094 30.964844 C 11.664062 30.707031 11.703125 30.464844 11.730469 30.222656 C 11.730469 30.222656 10.773438 30.222656 10.773438 30.222656 C 10.714844 30.535156 10.632812 31.144531 10.5 31.695312 C 10.5 31.695312 9.957031 33.972656 9.957031 33.972656 C 9.957031 33.972656 11.074219 33.972656 11.074219 33.972656 Z M 11.074219 33.972656 " fill-opacity="0.9412" fill-rule="evenodd"/><path fill="#000000" d="M 16.027344 32.957031 C 15.71875 33.109375 15.367188 33.070312 14.957031 33.070312 C 14.632812 33.070312 14.382812 33.015625 14.246094 32.902344 C 14.171875 32.78125 14.144531 32.59375 14.148438 32.472656 C 15.660156 32.511719 16.613281 32.160156 16.660156 31.203125 C 16.699219 30.476562 16.171875 30.074219 15.40625 30.074219 C 14.039062 30.074219 13.144531 31.285156 13.085938 32.449219 C 13.035156 33.46875 13.558594 33.972656 14.644531 33.972656 C 15.058594 33.972656 15.609375 33.921875 16.0625 33.785156 C 16.0625 33.785156 16.027344 32.957031 16.027344 32.957031 Z M 15.617188 31.203125 C 15.601562 31.558594 15.160156 31.578125 14.296875 31.570312 C 14.390625 31.257812 14.707031 30.972656 15.226562 30.972656 C 15.480469 30.972656 15.628906 31.070312 15.617188 31.203125 Z M 15.617188 31.203125 " fill-opacity="0.9412" fill-rule="evenodd"/><path fill="#000000" d="M 19.984375 32.957031 C 19.675781 33.109375 19.324219 33.070312 18.914062 33.070312 C 18.589844 33.070312 18.339844 33.015625 18.203125 32.902344 C 18.128906 32.78125 18.097656 32.59375 18.105469 32.472656 C 19.617188 32.511719 20.570312 32.160156 20.621094 31.203125 C 20.65625 30.476562 20.128906 30.074219 19.363281 30.074219 C 17.996094 30.074219 17.097656 31.285156 17.042969 32.449219 C 16.992188 33.46875 17.515625 33.972656 18.597656 33.972656 C 19.015625 33.972656 19.570312 33.921875 20.019531 33.785156 C 20.019531 33.785156 19.984375 32.957031 19.984375 32.957031 Z M 19.578125 31.203125 C 19.558594 31.558594 19.121094 31.578125 18.253906 31.570312 C 18.351562 31.257812 18.664062 30.972656 19.183594 30.972656 C 19.4375 30.972656 19.585938 31.070312 19.578125 31.203125 Z M 19.578125 31.203125 " fill-opacity="0.9412" fill-rule="evenodd"/><path fill="#000000" d="M 25.746094 33.972656 C 25.753906 33.496094 25.867188 32.75 25.984375 32.257812 C 25.984375 32.257812 26.464844 30.222656 26.464844 30.222656 C 26.160156 30.121094 25.683594 30.074219 25.226562 30.074219 C 23.375 30.074219 22.457031 31.453125 22.390625 32.746094 C 22.351562 33.554688 22.789062 33.972656 23.46875 33.972656 C 23.910156 33.972656 24.40625 33.757812 24.792969 33.113281 C 24.792969 33.113281 24.808594 33.113281 24.808594 33.113281 C 24.777344 33.421875 24.742188 33.722656 24.722656 33.972656 C 24.722656 33.972656 25.746094 33.972656 25.746094 33.972656 Z M 24.980469 31.828125 C 24.761719 32.785156 24.316406 33.070312 23.984375 33.070312 C 23.675781 33.070312 23.542969 32.851562 23.558594 32.53125 C 23.59375 31.804688 24.164062 30.972656 24.886719 30.972656 C 25 30.972656 25.09375 30.953125 25.175781 30.929688 C 25.175781 30.929688 24.980469 31.828125 24.980469 31.828125 Z M 24.980469 31.828125 " fill-opacity="0.9412" fill-rule="evenodd"/><path fill="#000000" d="M 26.472656 33.792969 C 26.6875 33.960938 27.140625 33.964844 27.609375 33.972656 C 28.613281 33.976562 29.371094 33.539062 29.417969 32.726562 C 29.441406 32.1875 29.027344 31.867188 28.617188 31.65625 C 28.324219 31.511719 28.175781 31.375 28.183594 31.21875 C 28.195312 31.003906 28.394531 30.972656 28.6875 30.972656 C 29.019531 30.972656 29.285156 31.011719 29.4375 31.042969 C 29.4375 31.042969 29.738281 30.230469 29.738281 30.230469 C 29.566406 30.128906 29.226562 30.074219 28.785156 30.074219 C 27.808594 30.074219 27.097656 30.589844 27.054688 31.375 C 27.03125 31.863281 27.378906 32.1875 27.800781 32.410156 C 28.140625 32.585938 28.257812 32.71875 28.25 32.910156 C 28.238281 33.101562 28.066406 33.070312 27.757812 33.070312 C 27.398438 33.070312 26.996094 33.023438 26.78125 32.992188 C 26.78125 32.992188 26.472656 33.792969 26.472656 33.792969 Z M 26.472656 33.792969 " fill-opacity="0.9412" fill-rule="evenodd"/><path fill="#000000" d="M 32.429688 33.972656 C 32.429688 33.972656 33.332031 30.222656 33.332031 30.222656 C 33.332031 30.222656 32.226562 30.222656 32.226562 30.222656 C 32.226562 30.222656 31.316406 33.972656 31.316406 33.972656 C 31.316406 33.972656 32.429688 33.972656 32.429688 33.972656 Z M 32.945312 29.773438 C 33.324219 29.773438 33.664062 29.457031 33.683594 28.917969 C 33.703125 28.554688 33.464844 28.425781 33.117188 28.425781 C 32.753906 28.425781 32.425781 28.660156 32.40625 29.015625 C 32.386719 29.371094 32.621094 29.773438 32.945312 29.773438 Z M 32.945312 29.773438 " fill-opacity="0.9412" fill-rule="evenodd"/><path fill="#000000" d="M 34.5625 33.972656 C 34.5625 33.972656 34.957031 32.28125 34.957031 32.28125 C 35.160156 31.421875 35.601562 31.121094 35.964844 31.121094 C 36.25 31.121094 36.335938 31.246094 36.320312 31.421875 C 36.3125 31.566406 36.289062 31.71875 36.261719 31.855469 C 36.261719 31.855469 35.757812 33.972656 35.757812 33.972656 C 35.757812 33.972656 36.871094 33.972656 36.871094 33.972656 C 36.871094 33.972656 37.402344 31.75 37.402344 31.75 C 37.441406 31.558594 37.488281 31.273438 37.496094 31.097656 C 37.527344 30.421875 37.191406 30.175781 36.574219 30.175781 C 36.078125 30.175781 35.597656 30.40625 35.214844 30.90625 C 35.214844 30.90625 35.203125 30.90625 35.203125 30.90625 C 35.203125 30.90625 35.304688 30.222656 35.304688 30.222656 C 35.304688 30.222656 34.320312 30.222656 34.320312 30.222656 C 34.257812 30.542969 34.175781 30.933594 34.058594 31.386719 C 34.058594 31.386719 33.449219 33.972656 33.449219 33.972656 C 33.449219 33.972656 34.5625 33.972656 34.5625 33.972656 Z M 34.5625 33.972656 " fill-opacity="0.9412" fill-rule="evenodd"/><path fill="#000000" d="M 39.351562 33.972656 C 39.351562 33.972656 40.464844 33.972656 40.464844 33.972656 C 40.464844 33.972656 40.96875 31.871094 40.96875 31.871094 C 40.96875 31.871094 42.773438 31.871094 42.773438 31.871094 C 42.773438 31.871094 43.007812 30.972656 43.007812 30.972656 C 43.007812 30.972656 41.191406 30.972656 41.191406 30.972656 C 41.191406 30.972656 41.492188 29.625 41.492188 29.625 C 41.492188 29.625 43.425781 29.625 43.425781 29.625 C 43.425781 29.625 43.660156 28.574219 43.660156 28.574219 C 43.660156 28.574219 40.605469 28.574219 40.605469 28.574219 C 40.605469 28.574219 39.351562 33.972656 39.351562 33.972656 Z M 39.351562 33.972656 " fill-opacity="0.9412" fill-rule="evenodd"/><path fill="#000000" d="M 44.347656 33.972656 C 44.347656 33.972656 44.679688 32.5625 44.679688 32.5625 C 44.855469 31.796875 45.230469 31.121094 45.929688 31.121094 C 45.996094 31.121094 46.054688 31.152344 46.101562 31.160156 C 46.101562 31.160156 46.375 30.082031 46.375 30.082031 C 46.3125 30.082031 46.242188 30.074219 46.164062 30.074219 C 45.648438 30.074219 45.210938 30.4375 44.921875 30.964844 C 44.921875 30.964844 44.894531 30.964844 44.894531 30.964844 C 44.9375 30.707031 44.972656 30.464844 45 30.222656 C 45 30.222656 44.042969 30.222656 44.042969 30.222656 C 43.988281 30.535156 43.902344 31.144531 43.773438 31.695312 C 43.773438 31.695312 43.226562 33.972656 43.226562 33.972656 C 43.226562 33.972656 44.347656 33.972656 44.347656 33.972656 Z M 44.347656 33.972656 " fill-opacity="0.9412" fill-rule="evenodd"/><path fill="#000000" d="M 49.296875 32.957031 C 48.988281 33.109375 48.636719 33.070312 48.226562 33.070312 C 47.902344 33.070312 47.652344 33.015625 47.515625 32.902344 C 47.445312 32.78125 47.414062 32.59375 47.417969 32.472656 C 48.929688 32.511719 49.886719 32.160156 49.933594 31.203125 C 49.96875 30.476562 49.441406 30.074219 48.675781 30.074219 C 47.308594 30.074219 46.414062 31.285156 46.355469 32.449219 C 46.304688 33.46875 46.832031 33.972656 47.914062 33.972656 C 48.328125 33.972656 48.882812 33.921875 49.335938 33.785156 C 49.335938 33.785156 49.296875 32.957031 49.296875 32.957031 Z M 48.890625 31.203125 C 48.871094 31.558594 48.433594 31.578125 47.570312 31.570312 C 47.664062 31.257812 47.980469 30.972656 48.496094 30.972656 C 48.753906 30.972656 48.898438 31.070312 48.890625 31.203125 Z M 48.890625 31.203125 " fill-opacity="0.9412" fill-rule="evenodd"/><path fill="#000000" d="M 53.253906 32.957031 C 52.945312 33.109375 52.59375 33.070312 52.183594 33.070312 C 51.859375 33.070312 51.609375 33.015625 51.472656 32.902344 C 51.402344 32.78125 51.371094 32.59375 51.375 32.472656 C 52.890625 32.511719 53.839844 32.160156 53.890625 31.203125 C 53.925781 30.476562 53.398438 30.074219 52.632812 30.074219 C 51.265625 30.074219 50.371094 31.285156 50.3125 32.449219 C 50.261719 33.46875 50.789062 33.972656 51.871094 33.972656 C 52.289062 33.972656 52.839844 33.921875 53.292969 33.785156 C 53.292969 33.785156 53.253906 32.957031 53.253906 32.957031 Z M 52.847656 31.203125 C 52.828125 31.558594 52.390625 31.578125 51.523438 31.570312 C 51.621094 31.257812 51.933594 30.972656 52.453125 30.972656 C 52.707031 30.972656 52.855469 31.070312 52.847656 31.203125 Z M 52.847656 31.203125 " fill-opacity="0.9412" fill-rule="evenodd"/><path fill="#000000" d="M 57.679688 28.425781 C 57.679688 28.425781 57.257812 30.128906 57.257812 30.128906 C 57.105469 30.0625 56.90625 30.074219 56.753906 30.074219 C 55.324219 30.074219 54.3125 31.300781 54.242188 32.632812 C 54.199219 33.570312 54.699219 33.972656 55.339844 33.972656 C 55.789062 33.972656 56.261719 33.769531 56.621094 33.253906 C 56.621094 33.253906 56.636719 33.253906 56.636719 33.253906 C 56.636719 33.253906 56.550781 33.972656 56.550781 33.972656 C 56.550781 33.972656 57.5625 33.972656 57.5625 33.972656 C 57.609375 33.519531 57.703125 32.984375 57.8125 32.496094 C 57.8125 32.496094 58.78125 28.425781 58.78125 28.425781 C 58.78125 28.425781 57.679688 28.425781 57.679688 28.425781 Z M 56.804688 32.085938 C 56.632812 32.824219 56.21875 33.070312 55.894531 33.070312 C 55.570312 33.070312 55.390625 32.84375 55.414062 32.441406 C 55.449219 31.695312 55.960938 30.972656 56.625 30.972656 C 56.8125 30.972656 56.96875 31 57.058594 31.042969 C 57.058594 31.042969 56.804688 32.085938 56.804688 32.085938 Z M 56.804688 32.085938 " fill-opacity="0.9412" fill-rule="evenodd"/><path fill="#000000" d="M 60.214844 33.972656 C 61.515625 33.972656 62.515625 32.984375 62.585938 31.636719 C 62.628906 30.746094 62.078125 30.074219 61.058594 30.074219 C 59.710938 30.074219 58.746094 31.167969 58.679688 32.488281 C 58.632812 33.453125 59.25 33.972656 60.214844 33.972656 Z M 60.390625 33.070312 C 60.011719 33.070312 59.804688 32.828125 59.824219 32.464844 C 59.855469 31.863281 60.226562 30.972656 60.867188 30.972656 C 61.308594 30.972656 61.445312 31.3125 61.425781 31.648438 C 61.394531 32.308594 60.992188 33.070312 60.390625 33.070312 Z M 60.390625 33.070312 " fill-opacity="0.9412" fill-rule="evenodd"/><g clip-path="url(#7a683ea9a9)"><path fill="#000000" d="M 63.96875 33.972656 C 63.96875 33.972656 64.371094 32.257812 64.371094 32.257812 C 64.542969 31.496094 64.960938 30.972656 65.339844 30.972656 C 65.613281 30.972656 65.6875 31.171875 65.671875 31.433594 C 65.664062 31.566406 65.636719 31.71875 65.605469 31.867188 C 65.605469 31.867188 65.105469 33.972656 65.105469 33.972656 C 65.105469 33.972656 66.179688 33.972656 66.179688 33.972656 C 66.179688 33.972656 66.582031 32.25 66.582031 32.25 C 66.769531 31.464844 67.164062 30.972656 67.535156 30.972656 C 67.789062 30.972656 67.894531 31.15625 67.882812 31.417969 C 67.875 31.566406 67.84375 31.734375 67.804688 31.886719 C 67.804688 31.886719 67.324219 33.972656 67.324219 33.972656 C 67.324219 33.972656 68.40625 33.972656 68.40625 33.972656 C 68.40625 33.972656 68.925781 31.75 68.925781 31.75 C 68.964844 31.550781 69.011719 31.242188 69.019531 31.082031 C 69.054688 30.421875 68.730469 30.074219 68.152344 30.074219 C 67.65625 30.074219 67.175781 30.296875 66.808594 30.773438 C 66.796875 30.429688 66.554688 30.074219 65.949219 30.074219 C 65.460938 30.074219 64.996094 30.292969 64.625 30.796875 C 64.625 30.796875 64.609375 30.796875 64.609375 30.796875 C 64.609375 30.796875 64.707031 30.222656 64.707031 30.222656 C 64.707031 30.222656 63.75 30.222656 63.75 30.222656 C 63.6875 30.542969 63.613281 30.933594 63.496094 31.386719 C 63.496094 31.386719 62.894531 33.972656 62.894531 33.972656 C 62.894531 33.972656 63.96875 33.972656 63.96875 33.972656 Z M 63.96875 33.972656 " fill-opacity="0.9412" fill-rule="evenodd"/></g><g clip-path="url(#6a305e7c25)"><path stroke-linecap="butt" transform="matrix(0.0875171, 0, 0, 0.0879131, 4.991958, -27.993046)" fill="none" stroke-linejoin="miter" d="M 402.959607 590.436358 C 403.673754 592.21368 404.343266 593.991003 405.102046 595.723893 C 406.173265 598.078845 407.467655 600.344931 409.02985 602.433286 C 417.376434 613.763718 431.302284 619.984347 449.022037 621.539504 C 449.022037 621.539504 468.125447 621.539504 468.125447 621.539504 C 474.151056 621.050741 480.444469 620.162079 487.005687 618.87352 C 498.298124 616.6963 510.260072 613.274954 522.668362 608.742781 C 532.086165 605.321435 541.771773 601.278026 551.591283 596.523688 C 572.971034 586.304082 595.064932 573.063029 616.757123 557.111558 C 623.898584 551.868456 630.727607 546.492055 637.33346 540.982354 C 643.359068 535.961418 649.116872 530.896048 654.651505 525.741813 C 670.094916 510.856735 681.699792 495.793926 688.305644 482.552872 C 695.179301 468.734188 696.518325 456.959425 690.894424 449.49467 C 687.457595 444.962497 681.699792 442.518679 674.290525 441.941049 C 707.721493 416.836366 727.226611 386.355283 720.219052 367.160198 C 718.031979 361.028435 713.122224 356.496262 706.114664 353.963577 C 702.990275 352.808317 699.508812 352.097388 695.670276 351.786357 C 695.670276 351.786357 685.359791 351.786357 685.359791 351.786357 C 670.987599 352.85275 650.098823 357.962553 632.334436 366.671434 " stroke="#000000" stroke-width="8.526" stroke-opacity="1" stroke-miterlimit="4"/></g></svg>