<svg xmlns="http://www.w3.org/2000/svg" xmlns:xlink="http://www.w3.org/1999/xlink" width="200" zoomAndPan="magnify" viewBox="0 0 150 74.999997" height="100" preserveAspectRatio="xMidYMid meet" version="1.0"><defs><clipPath id="a6596e9232"><path d="M 3.75 0 L 146.25 0 C 148.320312 0 150 1.679688 150 3.75 L 150 71.25 C 150 73.320312 148.320312 75 146.25 75 L 3.75 75 C 1.679688 75 0 73.320312 0 71.25 L 0 3.75 C 0 1.679688 1.679688 0 3.75 0 " clip-rule="nonzero"/></clipPath><clipPath id="262100de33"><path d="M 72 0 L 141.542969 0 L 141.542969 63 L 72 63 Z M 72 0 " clip-rule="nonzero"/></clipPath></defs><g clip-path="url(#a6596e9232)"><path fill="#ffffff" d="M 0 0 L 150.117188 0 L 150.117188 74.882812 L 0 74.882812 Z M 0 0 " fill-opacity="1" fill-rule="nonzero"/></g><path fill="#000000" d="M 73.234375 43.738281 C 72.945312 43.738281 72.695312 43.832031 72.457031 44.023438 C 72.28125 44.164062 72.160156 44.351562 72.0625 44.5625 C 72.0625 44.5625 72.074219 44.5625 72.074219 44.5625 C 72.171875 44.351562 72.292969 44.164062 72.464844 44.023438 C 72.703125 43.832031 72.957031 43.742188 73.234375 43.738281 Z M 73.234375 43.738281 " fill-opacity="0.9412" fill-rule="evenodd"/><path fill="#000000" d="M 25.703125 7.136719 C 25.703125 7.136719 15.121094 53.238281 15.121094 53.238281 C 15.125 53.238281 15.125 53.238281 15.132812 53.238281 C 15.132812 53.238281 64.070312 53.238281 64.070312 53.238281 C 64.070312 53.238281 89.523438 53.238281 89.523438 53.238281 C 86.492188 52.976562 84.097656 51.914062 82.671875 49.972656 C 82.40625 49.617188 82.1875 49.230469 81.996094 48.824219 C 81.875 48.527344 81.761719 48.226562 81.644531 47.921875 C 81.339844 46.957031 81.21875 45.886719 81.273438 44.742188 C 81.425781 41.558594 82.921875 37.769531 85.511719 33.804688 C 88.265625 29.589844 92.253906 25.171875 97.195312 21.074219 C 98.300781 20.15625 99.445312 19.25 100.644531 18.367188 C 102.125 17.277344 103.617188 16.277344 105.109375 15.339844 C 110.613281 11.878906 116.101562 9.457031 120.964844 8.226562 C 116.316406 9.742188 111.097656 12.3125 105.9375 15.8125 C 105.753906 15.9375 105.570312 16.066406 105.386719 16.191406 C 102.523438 18.171875 99.933594 20.277344 97.667969 22.402344 C 90.386719 29.242188 86.539062 36.328125 88.289062 40.480469 C 88.414062 40.765625 88.5625 41.039062 88.734375 41.296875 C 90.613281 44.058594 95.273438 44.535156 101.175781 43.050781 C 101.578125 42.953125 101.980469 42.839844 102.394531 42.71875 C 104.277344 42.175781 106.28125 41.441406 108.34375 40.535156 C 108.839844 40.316406 109.339844 40.09375 109.84375 39.851562 C 109.894531 39.828125 109.945312 39.804688 109.996094 39.777344 C 116.503906 36.546875 121.507812 32.828125 122.589844 30.597656 C 122.828125 30.109375 122.882812 29.695312 122.722656 29.371094 C 121.949219 27.804688 116.542969 28.863281 109.996094 31.695312 C 109.46875 31.925781 108.9375 32.160156 108.398438 32.410156 C 108.835938 32.003906 109.292969 31.59375 109.757812 31.195312 C 110.5 30.554688 111.269531 29.929688 112.085938 29.3125 C 113.367188 28.34375 114.664062 27.46875 115.9375 26.695312 C 121.902344 22.195312 124.921875 17.941406 124.292969 16.363281 C 124.171875 16.066406 123.921875 15.863281 123.53125 15.738281 C 122.285156 15.34375 120.015625 15.8125 117.257812 16.941406 C 114.984375 17.875 112.371094 19.257812 109.722656 20.976562 C 109.722656 20.976562 109.359375 21.214844 109.359375 21.214844 C 109.359375 21.214844 109.292969 21.253906 109.292969 21.253906 C 109.292969 21.253906 108.019531 22.097656 108.019531 22.097656 C 108.019531 22.097656 108.75 20.757812 108.75 20.757812 C 109.835938 18.773438 111.605469 16.703125 113.808594 14.777344 C 115.421875 13.371094 117.269531 12.046875 119.253906 10.886719 C 120.003906 10.445312 120.753906 10.039062 121.507812 9.671875 C 122.277344 9.292969 123.046875 8.960938 123.796875 8.664062 C 125.980469 7.800781 128.0625 7.277344 129.878906 7.136719 C 129.714844 7.136719 124.777344 7.136719 124.777344 7.136719 C 124.777344 7.136719 107.574219 7.136719 107.574219 7.136719 C 107.574219 7.136719 31.71875 7.136719 31.71875 7.136719 C 31.71875 7.136719 25.703125 7.136719 25.703125 7.136719 Z M 80.277344 7.203125 C 79.976562 11.746094 80.859375 18.402344 82.863281 25.792969 C 83.21875 27.105469 83.605469 28.445312 84.03125 29.796875 C 84.296875 30.632812 84.566406 31.457031 84.847656 32.265625 C 84.683594 32.507812 84.519531 32.746094 84.363281 32.988281 C 81.867188 36.8125 80.40625 40.421875 80.039062 43.566406 C 78.984375 40.035156 78.1875 36.167969 77.738281 32.066406 C 77.609375 30.894531 77.511719 29.730469 77.445312 28.582031 C 76.949219 20.246094 78.039062 12.6875 80.277344 7.203125 Z M 30.445312 13.117188 C 30.5 13.117188 30.558594 13.117188 30.613281 13.117188 C 30.613281 13.117188 41.859375 13.117188 41.859375 13.117188 C 42.820312 13.117188 43.5625 13.296875 44.09375 13.65625 C 44.617188 14.019531 44.816406 14.492188 44.691406 15.0625 C 44.691406 15.0625 43.351562 21.109375 43.351562 21.109375 C 43.351562 21.109375 39.386719 21.109375 39.386719 21.109375 C 39.386719 21.109375 40.691406 15.222656 40.691406 15.222656 C 40.691406 15.222656 30.765625 15.222656 30.765625 15.222656 C 30.765625 15.222656 27.183594 31.402344 27.183594 31.402344 C 27.183594 31.402344 25.890625 37.261719 25.890625 37.261719 C 25.890625 37.261719 35.804688 37.261719 35.804688 37.261719 C 35.804688 37.261719 35.8125 37.222656 35.8125 37.222656 C 35.8125 37.222656 37.800781 28.261719 37.800781 28.261719 C 37.800781 28.261719 33.144531 28.261719 33.144531 28.261719 C 33.144531 28.261719 33.589844 26.238281 33.589844 26.238281 C 33.589844 26.238281 42.210938 26.238281 42.210938 26.238281 C 42.210938 26.238281 39.738281 37.421875 39.738281 37.421875 C 39.707031 37.582031 39.648438 37.726562 39.570312 37.867188 C 39.363281 38.238281 39.007812 38.558594 38.511719 38.816406 C 37.824219 39.179688 37.003906 39.359375 36.042969 39.359375 C 36.042969 39.359375 24.808594 39.359375 24.808594 39.359375 C 23.847656 39.359375 23.105469 39.179688 22.574219 38.816406 C 22.046875 38.457031 21.847656 37.996094 21.976562 37.421875 C 21.976562 37.421875 26.925781 15.0625 26.925781 15.0625 C 27.054688 14.492188 27.453125 14.019531 28.144531 13.65625 C 28.167969 13.644531 28.195312 13.640625 28.21875 13.628906 C 28.851562 13.3125 29.589844 13.136719 30.445312 13.117188 Z M 48.066406 13.117188 C 48.066406 13.117188 62.21875 13.117188 62.21875 13.117188 C 63.167969 13.117188 63.914062 13.296875 64.441406 13.65625 C 64.972656 14.019531 65.175781 14.492188 65.050781 15.0625 C 65.050781 15.0625 62.40625 26.988281 62.40625 26.988281 C 62.28125 27.554688 61.875 28.019531 61.179688 28.382812 C 60.488281 28.75 59.671875 28.933594 58.71875 28.933594 C 58.71875 28.933594 48.4375 28.933594 48.4375 28.933594 C 48.4375 28.933594 46.449219 37.886719 46.449219 37.886719 C 46.449219 37.886719 46.125 39.359375 46.125 39.359375 C 46.125 39.359375 42.25 39.359375 42.25 39.359375 C 42.25 39.359375 42.542969 38.03125 42.542969 38.03125 C 42.542969 38.03125 48.066406 13.117188 48.066406 13.117188 Z M 67.617188 13.117188 C 67.617188 13.117188 71.492188 13.117188 71.492188 13.117188 C 71.492188 13.117188 67.101562 32.929688 67.101562 32.929688 C 67.101562 32.929688 66.144531 37.261719 66.144531 37.261719 C 66.144531 37.261719 75.417969 37.261719 75.417969 37.261719 C 75.515625 37.972656 75.628906 38.667969 75.753906 39.359375 C 75.753906 39.359375 61.800781 39.359375 61.800781 39.359375 C 61.800781 39.359375 62.902344 34.382812 62.902344 34.382812 C 62.902344 34.382812 67.617188 13.117188 67.617188 13.117188 Z M 51.476562 15.222656 C 51.476562 15.222656 48.902344 26.828125 48.902344 26.828125 C 48.902344 26.828125 58.566406 26.828125 58.566406 26.828125 C 58.566406 26.828125 61.132812 15.222656 61.132812 15.222656 C 61.132812 15.222656 51.476562 15.222656 51.476562 15.222656 Z M 43.351562 41.183594 C 43.390625 41.179688 43.425781 41.183594 43.464844 41.183594 C 43.914062 41.183594 44.308594 41.261719 44.625 41.410156 C 44.960938 41.566406 45.203125 41.800781 45.335938 42.113281 C 45.46875 42.414062 45.503906 42.753906 45.433594 43.128906 C 45.433594 43.128906 45.402344 43.269531 45.402344 43.269531 C 45.402344 43.269531 44.292969 43.269531 44.292969 43.269531 C 44.292969 43.269531 44.300781 43.136719 44.300781 43.136719 C 44.332031 42.875 44.296875 42.671875 44.195312 42.53125 C 44.183594 42.511719 44.164062 42.488281 44.148438 42.472656 C 44.125 42.449219 44.085938 42.417969 44.054688 42.398438 C 43.898438 42.300781 43.65625 42.246094 43.339844 42.246094 C 42.925781 42.246094 42.613281 42.316406 42.402344 42.464844 C 42.195312 42.605469 42.0625 42.765625 42.019531 42.957031 C 41.976562 43.152344 42.046875 43.253906 42.097656 43.308594 C 42.097656 43.308594 42.105469 43.316406 42.105469 43.316406 C 42.167969 43.371094 42.382812 43.492188 43.046875 43.652344 C 43.648438 43.796875 44.046875 43.925781 44.273438 44.039062 C 44.613281 44.214844 44.851562 44.4375 44.976562 44.714844 C 45.101562 44.988281 45.128906 45.308594 45.050781 45.652344 C 44.976562 45.992188 44.804688 46.300781 44.546875 46.59375 C 44.296875 46.886719 43.976562 47.117188 43.589844 47.277344 C 43.207031 47.433594 42.785156 47.523438 42.351562 47.523438 C 41.804688 47.523438 41.367188 47.441406 41.023438 47.277344 C 40.664062 47.105469 40.40625 46.839844 40.253906 46.488281 C 40.105469 46.148438 40.074219 45.761719 40.15625 45.339844 C 40.15625 45.339844 40.1875 45.207031 40.1875 45.207031 C 40.1875 45.207031 41.277344 45.207031 41.277344 45.207031 C 41.277344 45.207031 41.269531 45.339844 41.269531 45.339844 C 41.242188 45.59375 41.269531 45.796875 41.335938 45.949219 C 41.398438 46.09375 41.523438 46.214844 41.714844 46.308594 C 41.921875 46.410156 42.183594 46.460938 42.476562 46.460938 C 42.742188 46.460938 42.984375 46.417969 43.199219 46.335938 C 43.410156 46.261719 43.582031 46.160156 43.703125 46.035156 C 43.820312 45.90625 43.890625 45.769531 43.921875 45.625 C 43.953125 45.496094 43.945312 45.382812 43.894531 45.292969 C 43.835938 45.195312 43.722656 45.109375 43.542969 45.035156 C 43.542969 45.035156 42.609375 44.761719 42.609375 44.761719 C 42.089844 44.628906 41.738281 44.507812 41.535156 44.382812 C 41.257812 44.21875 41.058594 44.007812 40.957031 43.753906 C 40.851562 43.507812 40.839844 43.230469 40.910156 42.929688 C 40.980469 42.605469 41.132812 42.300781 41.375 42.027344 C 41.617188 41.75 41.929688 41.535156 42.304688 41.390625 C 42.636719 41.265625 42.984375 41.195312 43.351562 41.183594 Z M 53.332031 41.199219 C 53.390625 41.195312 53.449219 41.199219 53.511719 41.199219 C 53.511719 41.199219 54.195312 41.277344 54.195312 41.277344 C 54.195312 41.277344 54.425781 41.296875 54.425781 41.296875 C 54.425781 41.296875 54.089844 42.140625 54.089844 42.140625 C 54.089844 42.140625 54.023438 42.273438 54.023438 42.273438 C 54.023438 42.273438 53.503906 42.226562 53.503906 42.226562 C 53.347656 42.226562 53.234375 42.25 53.160156 42.300781 C 53.15625 42.304688 53.144531 42.316406 53.140625 42.320312 C 53.128906 42.332031 53.113281 42.34375 53.101562 42.359375 C 53.058594 42.417969 53 42.527344 52.960938 42.71875 C 52.960938 42.71875 52.941406 42.800781 52.921875 42.871094 C 53.164062 42.871094 53.738281 42.871094 53.738281 42.871094 C 53.738281 42.871094 53.53125 43.8125 53.53125 43.8125 C 53.53125 43.8125 52.933594 43.8125 52.730469 43.8125 C 52.671875 44.085938 51.925781 47.429688 51.925781 47.429688 C 51.925781 47.429688 50.820312 47.429688 50.820312 47.429688 C 50.820312 47.429688 51.539062 44.214844 51.628906 43.8125 C 51.445312 43.8125 50.992188 43.8125 50.992188 43.8125 C 50.992188 43.8125 51.203125 42.871094 51.203125 42.871094 C 51.203125 42.871094 51.65625 42.871094 51.828125 42.871094 C 51.859375 42.742188 51.90625 42.578125 51.90625 42.578125 C 51.972656 42.273438 52.042969 42.054688 52.132812 41.902344 C 52.257812 41.695312 52.433594 41.519531 52.65625 41.390625 C 52.839844 41.285156 53.070312 41.222656 53.332031 41.199219 Z M 55.964844 41.25 C 55.964844 41.25 55.675781 42.542969 55.601562 42.871094 C 55.816406 42.871094 56.316406 42.871094 56.316406 42.871094 C 56.316406 42.871094 56.105469 43.8125 56.105469 43.8125 C 56.105469 43.8125 55.582031 43.8125 55.394531 43.8125 C 55.335938 44.074219 54.878906 46.101562 54.878906 46.101562 C 54.878906 46.101562 54.84375 46.34375 54.84375 46.414062 C 54.84375 46.414062 54.84375 46.421875 54.84375 46.421875 C 54.84375 46.421875 54.84375 46.433594 54.84375 46.433594 C 54.84375 46.433594 54.851562 46.433594 54.851562 46.433594 C 54.851562 46.433594 54.964844 46.441406 54.964844 46.441406 C 54.964844 46.441406 55.488281 46.402344 55.488281 46.402344 C 55.488281 46.402344 55.429688 47.25 55.429688 47.25 C 55.429688 47.25 55.441406 47.402344 55.441406 47.402344 C 55.441406 47.402344 54.691406 47.488281 54.691406 47.488281 C 54.390625 47.488281 54.171875 47.4375 54.015625 47.335938 C 53.847656 47.226562 53.75 47.078125 53.710938 46.898438 C 53.703125 46.863281 53.691406 46.816406 53.691406 46.746094 C 53.691406 46.609375 53.71875 46.378906 53.804688 45.976562 C 53.804688 45.976562 54.207031 44.1875 54.289062 43.8125 C 54.148438 43.8125 53.769531 43.8125 53.769531 43.8125 C 53.769531 43.8125 53.976562 42.871094 53.976562 42.871094 C 53.976562 42.871094 54.347656 42.871094 54.5 42.871094 C 54.546875 42.652344 54.71875 41.902344 54.71875 41.902344 C 54.71875 41.902344 55.601562 41.4375 55.601562 41.4375 C 55.601562 41.4375 55.964844 41.25 55.964844 41.25 Z M 20.941406 41.285156 C 20.941406 41.285156 25.214844 41.285156 25.214844 41.285156 C 25.214844 41.285156 24.980469 42.351562 24.980469 42.351562 C 24.980469 42.351562 22.125 42.351562 21.851562 42.351562 C 21.804688 42.566406 21.609375 43.4375 21.539062 43.753906 C 21.933594 43.753906 24.246094 43.753906 24.246094 43.753906 C 24.246094 43.753906 24.007812 44.820312 24.007812 44.820312 C 24.007812 44.820312 21.574219 44.820312 21.300781 44.820312 C 21.242188 45.082031 20.722656 47.429688 20.722656 47.429688 C 20.722656 47.429688 19.570312 47.429688 19.570312 47.429688 C 19.570312 47.429688 20.941406 41.285156 20.941406 41.285156 Z M 26.671875 42.785156 C 26.714844 42.78125 26.761719 42.785156 26.804688 42.785156 C 27.078125 42.785156 27.332031 42.871094 27.574219 43.042969 C 27.574219 43.042969 27.726562 43.148438 27.726562 43.148438 C 27.726562 43.148438 27.136719 44.117188 27.136719 44.117188 C 27.136719 44.117188 26.976562 44 26.976562 44 C 26.855469 43.925781 26.730469 43.886719 26.59375 43.886719 C 26.480469 43.886719 26.371094 43.929688 26.261719 44 C 26.148438 44.078125 26.050781 44.179688 25.976562 44.316406 C 25.847656 44.550781 25.753906 44.8125 25.691406 45.09375 C 25.691406 45.09375 25.179688 47.429688 25.179688 47.429688 C 25.179688 47.429688 24.074219 47.429688 24.074219 47.429688 C 24.074219 47.429688 25.09375 42.871094 25.09375 42.871094 C 25.09375 42.871094 26.121094 42.871094 26.121094 42.871094 C 26.121094 42.871094 26.085938 43.011719 26.070312 43.0625 C 26.121094 43.027344 26.171875 42.976562 26.214844 42.949219 C 26.363281 42.859375 26.515625 42.804688 26.671875 42.785156 Z M 29.941406 42.785156 C 30.007812 42.78125 30.070312 42.785156 30.140625 42.785156 C 30.761719 42.785156 31.230469 43.003906 31.539062 43.433594 C 31.730469 43.707031 31.832031 44.050781 31.832031 44.457031 C 31.832031 44.683594 31.804688 44.925781 31.746094 45.1875 C 31.746094 45.1875 31.660156 45.519531 31.660156 45.519531 C 31.660156 45.519531 28.871094 45.519531 28.5625 45.519531 C 28.554688 45.585938 28.554688 45.652344 28.554688 45.710938 C 28.554688 45.949219 28.601562 46.132812 28.703125 46.269531 C 28.753906 46.339844 28.8125 46.398438 28.875 46.441406 C 29 46.523438 29.15625 46.566406 29.339844 46.566406 C 29.566406 46.566406 29.765625 46.503906 29.949219 46.386719 C 30.125 46.273438 30.296875 46.09375 30.445312 45.84375 C 30.445312 45.84375 31.621094 45.84375 31.621094 45.84375 C 31.621094 45.84375 31.519531 46.070312 31.519531 46.070312 C 31.292969 46.527344 30.980469 46.882812 30.585938 47.136719 C 30.195312 47.386719 29.726562 47.523438 29.207031 47.523438 C 28.535156 47.523438 28.035156 47.308594 27.726562 46.878906 C 27.417969 46.460938 27.351562 45.878906 27.515625 45.152344 C 27.679688 44.410156 28.007812 43.816406 28.484375 43.402344 C 28.914062 43.03125 29.398438 42.828125 29.941406 42.785156 Z M 34.890625 42.785156 C 34.957031 42.78125 35.023438 42.785156 35.09375 42.785156 C 35.710938 42.785156 36.183594 43.003906 36.488281 43.433594 C 36.679688 43.707031 36.785156 44.050781 36.785156 44.457031 C 36.785156 44.679688 36.757812 44.917969 36.699219 45.179688 C 36.699219 45.179688 36.613281 45.519531 36.613281 45.519531 C 36.613281 45.519531 33.824219 45.519531 33.515625 45.519531 C 33.511719 45.5625 33.507812 45.601562 33.503906 45.644531 C 33.503906 45.660156 33.503906 45.683594 33.503906 45.703125 C 33.503906 45.703125 33.503906 45.707031 33.503906 45.710938 C 33.503906 45.757812 33.511719 45.800781 33.515625 45.84375 C 33.527344 46.015625 33.574219 46.160156 33.65625 46.269531 C 33.671875 46.292969 33.6875 46.320312 33.703125 46.335938 C 33.84375 46.488281 34.039062 46.566406 34.292969 46.566406 C 34.519531 46.566406 34.71875 46.503906 34.902344 46.386719 C 35.078125 46.273438 35.246094 46.09375 35.394531 45.84375 C 35.394531 45.84375 36.585938 45.84375 36.585938 45.84375 C 36.585938 45.84375 36.46875 46.070312 36.46875 46.070312 C 36.246094 46.527344 35.929688 46.882812 35.539062 47.136719 C 35.144531 47.386719 34.675781 47.523438 34.160156 47.523438 C 33.488281 47.523438 32.988281 47.308594 32.675781 46.878906 C 32.476562 46.605469 32.382812 46.257812 32.382812 45.84375 C 32.382812 45.78125 32.386719 45.710938 32.390625 45.644531 C 32.40625 45.488281 32.429688 45.328125 32.46875 45.152344 C 32.632812 44.414062 32.949219 43.816406 33.429688 43.402344 C 33.855469 43.03125 34.351562 42.828125 34.890625 42.785156 Z M 48.378906 42.785156 C 48.445312 42.78125 48.507812 42.785156 48.578125 42.785156 C 49.210938 42.785156 49.699219 43 50.015625 43.421875 C 50.328125 43.84375 50.402344 44.414062 50.242188 45.132812 C 50.117188 45.691406 49.9375 46.140625 49.691406 46.46875 C 49.445312 46.796875 49.128906 47.066406 48.757812 47.25 C 48.390625 47.429688 48 47.523438 47.609375 47.523438 C 46.964844 47.523438 46.484375 47.304688 46.175781 46.878906 C 45.972656 46.609375 45.871094 46.261719 45.871094 45.84375 C 45.871094 45.617188 45.894531 45.378906 45.957031 45.113281 C 46.136719 44.296875 46.511719 43.679688 47.058594 43.28125 C 47.460938 42.992188 47.902344 42.824219 48.378906 42.785156 Z M 65.078125 42.785156 C 65.160156 42.78125 65.234375 42.785156 65.316406 42.785156 C 65.699219 42.785156 66 42.824219 66.226562 42.917969 C 66.472656 43.015625 66.644531 43.152344 66.742188 43.316406 C 66.835938 43.472656 66.882812 43.664062 66.882812 43.898438 C 66.882812 43.898438 66.769531 44.589844 66.769531 44.589844 C 66.769531 44.589844 66.5625 45.53125 66.5625 45.53125 C 66.382812 46.332031 66.34375 46.632812 66.332031 46.746094 C 66.324219 46.898438 66.339844 47.046875 66.378906 47.183594 C 66.378906 47.183594 66.457031 47.429688 66.457031 47.429688 C 66.457031 47.429688 65.335938 47.429688 65.335938 47.429688 C 65.335938 47.429688 65.289062 47.285156 65.289062 47.285156 C 65.269531 47.21875 65.273438 47.136719 65.269531 47.058594 C 65.054688 47.191406 64.84375 47.304688 64.652344 47.371094 C 64.367188 47.46875 64.074219 47.523438 63.777344 47.523438 C 63.257812 47.523438 62.875 47.390625 62.644531 47.125 C 62.46875 46.929688 62.390625 46.695312 62.390625 46.421875 C 62.390625 46.320312 62.402344 46.210938 62.425781 46.101562 C 62.476562 45.871094 62.574219 45.65625 62.722656 45.464844 C 62.867188 45.277344 63.039062 45.121094 63.234375 45.007812 C 63.421875 44.894531 63.632812 44.816406 63.851562 44.761719 C 63.851562 44.761719 64.527344 44.648438 64.527344 44.648438 C 65.046875 44.585938 65.433594 44.511719 65.714844 44.429688 C 65.722656 44.398438 65.734375 44.363281 65.734375 44.363281 C 65.777344 44.167969 65.773438 44.019531 65.726562 43.945312 C 65.722656 43.941406 65.710938 43.929688 65.707031 43.925781 C 65.695312 43.914062 65.679688 43.898438 65.667969 43.886719 C 65.554688 43.796875 65.359375 43.753906 65.097656 43.753906 C 64.800781 43.753906 64.585938 43.804688 64.433594 43.898438 C 64.28125 43.992188 64.144531 44.164062 64.023438 44.410156 C 64.023438 44.410156 62.875 44.410156 62.875 44.410156 C 62.875 44.410156 62.976562 44.183594 62.976562 44.183594 C 63.113281 43.867188 63.277344 43.605469 63.480469 43.402344 C 63.683594 43.203125 63.960938 43.046875 64.28125 42.9375 C 64.523438 42.859375 64.792969 42.804688 65.078125 42.785156 Z M 69.898438 42.785156 C 69.941406 42.78125 69.988281 42.785156 70.03125 42.785156 C 70.308594 42.785156 70.566406 42.871094 70.808594 43.042969 C 70.808594 43.042969 70.953125 43.148438 70.953125 43.148438 C 70.953125 43.148438 70.363281 44.117188 70.363281 44.117188 C 70.363281 44.117188 70.203125 44 70.203125 44 C 70.082031 43.925781 69.960938 43.886719 69.832031 43.886719 C 69.714844 43.886719 69.601562 43.929688 69.488281 44 C 69.371094 44.078125 69.289062 44.179688 69.214844 44.316406 C 69.089844 44.550781 68.992188 44.8125 68.929688 45.09375 C 68.929688 45.09375 68.40625 47.429688 68.40625 47.429688 C 68.40625 47.429688 67.300781 47.429688 67.300781 47.429688 C 67.300781 47.429688 68.320312 42.871094 68.320312 42.871094 C 68.320312 42.871094 69.347656 42.871094 69.347656 42.871094 C 69.347656 42.871094 69.320312 43.011719 69.308594 43.0625 C 69.355469 43.027344 69.40625 42.976562 69.449219 42.949219 C 69.59375 42.859375 69.742188 42.804688 69.898438 42.785156 Z M 73.15625 42.785156 C 73.222656 42.78125 73.289062 42.785156 73.355469 42.785156 C 73.976562 42.785156 74.449219 43.003906 74.753906 43.433594 C 74.949219 43.707031 75.046875 44.050781 75.046875 44.457031 C 75.046875 44.683594 75.011719 44.925781 74.953125 45.1875 C 74.953125 45.1875 74.878906 45.519531 74.878906 45.519531 C 74.878906 45.519531 72.085938 45.519531 71.777344 45.519531 C 71.773438 45.585938 71.761719 45.652344 71.761719 45.710938 C 71.761719 45.949219 71.8125 46.132812 71.914062 46.269531 C 71.929688 46.292969 71.953125 46.320312 71.96875 46.335938 C 71.980469 46.347656 71.996094 46.367188 72.007812 46.375 C 72.144531 46.5 72.328125 46.566406 72.558594 46.566406 C 72.785156 46.566406 72.980469 46.503906 73.167969 46.386719 C 73.34375 46.273438 73.507812 46.09375 73.660156 45.84375 C 73.660156 45.84375 74.847656 45.84375 74.847656 45.84375 C 74.847656 45.84375 74.734375 46.070312 74.734375 46.070312 C 74.511719 46.527344 74.191406 46.882812 73.804688 47.136719 C 73.40625 47.386719 72.945312 47.523438 72.425781 47.523438 C 71.753906 47.523438 71.261719 47.308594 70.953125 46.878906 C 70.644531 46.460938 70.574219 45.878906 70.734375 45.152344 C 70.898438 44.410156 71.214844 43.816406 71.695312 43.402344 C 72.125 43.03125 72.617188 42.828125 73.15625 42.785156 Z M 56.515625 42.871094 C 56.515625 42.871094 57.644531 42.871094 57.644531 42.871094 C 57.644531 42.871094 57.785156 45.578125 57.789062 45.617188 C 57.835938 45.519531 57.871094 45.4375 57.875 45.425781 C 57.875 45.425781 59.121094 42.871094 59.121094 42.871094 C 59.121094 42.871094 60.15625 42.871094 60.15625 42.871094 C 60.15625 42.871094 60.25 45.542969 60.25 45.558594 C 60.28125 45.503906 61.667969 42.871094 61.667969 42.871094 C 61.667969 42.871094 62.789062 42.871094 62.789062 42.871094 C 62.789062 42.871094 60.316406 47.429688 60.316406 47.429688 C 60.316406 47.429688 59.300781 47.429688 59.300781 47.429688 C 59.300781 47.429688 59.203125 44.957031 59.195312 44.820312 C 58.777344 45.679688 57.921875 47.429688 57.921875 47.429688 C 57.921875 47.429688 56.875 47.429688 56.875 47.429688 C 56.875 47.429688 56.515625 42.871094 56.515625 42.871094 Z M 29.960938 43.734375 C 29.699219 43.746094 29.460938 43.839844 29.238281 44.019531 C 29.0625 44.160156 28.941406 44.351562 28.847656 44.5625 C 28.847656 44.5625 30.71875 44.5625 30.71875 44.5625 C 30.722656 44.527344 30.730469 44.488281 30.730469 44.457031 C 30.730469 44.285156 30.699219 44.148438 30.644531 44.058594 C 30.511719 43.839844 30.3125 43.734375 30.015625 43.734375 C 30 43.734375 29.976562 43.734375 29.960938 43.734375 Z M 34.910156 43.734375 C 34.648438 43.746094 34.410156 43.839844 34.1875 44.019531 C 34.011719 44.160156 33.898438 44.351562 33.800781 44.5625 C 33.800781 44.5625 35.671875 44.5625 35.671875 44.5625 C 35.675781 44.527344 35.679688 44.488281 35.679688 44.457031 C 35.679688 44.285156 35.652344 44.148438 35.59375 44.058594 C 35.570312 44.015625 35.53125 43.96875 35.5 43.933594 C 35.375 43.804688 35.199219 43.734375 34.96875 43.734375 C 34.949219 43.734375 34.929688 43.734375 34.910156 43.734375 Z M 73.214844 43.734375 C 72.945312 43.746094 72.691406 43.835938 72.464844 44.019531 C 72.289062 44.160156 72.171875 44.351562 72.074219 44.5625 C 72.074219 44.5625 73.9375 44.5625 73.9375 44.5625 C 73.941406 44.527344 73.945312 44.488281 73.945312 44.457031 C 73.945312 44.285156 73.917969 44.148438 73.859375 44.058594 C 73.730469 43.84375 73.527344 43.738281 73.234375 43.734375 C 73.222656 43.734375 73.222656 43.734375 73.214844 43.734375 Z M 48.3125 43.753906 C 48.0625 43.785156 47.828125 43.898438 47.609375 44.097656 C 47.347656 44.332031 47.15625 44.707031 47.046875 45.199219 C 47.003906 45.40625 46.980469 45.582031 46.980469 45.738281 C 46.980469 45.957031 47.023438 46.125 47.105469 46.253906 C 47.128906 46.285156 47.15625 46.320312 47.179688 46.347656 C 47.316406 46.492188 47.503906 46.566406 47.742188 46.566406 C 48.050781 46.566406 48.320312 46.449219 48.578125 46.214844 C 48.839844 45.972656 49.027344 45.597656 49.140625 45.09375 C 49.242188 44.632812 49.226562 44.289062 49.082031 44.070312 C 48.941406 43.855469 48.738281 43.753906 48.457031 43.753906 C 48.40625 43.753906 48.359375 43.75 48.3125 43.753906 Z M 65.488281 45.417969 C 65.230469 45.488281 64.9375 45.546875 64.554688 45.597656 C 64.269531 45.640625 64.066406 45.683594 63.949219 45.730469 C 63.84375 45.773438 63.761719 45.832031 63.691406 45.910156 C 63.625 45.984375 63.578125 46.066406 63.558594 46.15625 C 63.550781 46.195312 63.546875 46.230469 63.546875 46.261719 C 63.546875 46.265625 63.546875 46.269531 63.546875 46.269531 C 63.546875 46.277344 63.546875 46.292969 63.546875 46.300781 C 63.550781 46.3125 63.554688 46.335938 63.558594 46.347656 C 63.558594 46.351562 63.566406 46.363281 63.566406 46.367188 C 63.570312 46.375 63.574219 46.386719 63.578125 46.394531 C 63.582031 46.402344 63.589844 46.414062 63.597656 46.421875 C 63.605469 46.433594 63.613281 46.449219 63.625 46.460938 C 63.699219 46.546875 63.851562 46.585938 64.070312 46.585938 C 64.3125 46.585938 64.542969 46.539062 64.753906 46.433594 C 64.964844 46.328125 65.132812 46.175781 65.257812 45.996094 C 65.351562 45.867188 65.421875 45.671875 65.488281 45.417969 Z M 65.488281 45.417969 " fill-opacity="0.9412" fill-rule="evenodd"/><path fill="#000000" d="M 73.246094 43.738281 C 73.242188 43.738281 73.238281 43.738281 73.234375 43.738281 C 73.53125 43.742188 73.726562 43.84375 73.855469 44.058594 C 73.914062 44.148438 73.945312 44.285156 73.945312 44.460938 C 73.945312 44.488281 73.9375 44.53125 73.9375 44.5625 C 73.9375 44.5625 73.949219 44.5625 73.949219 44.5625 C 73.949219 44.53125 73.953125 44.488281 73.953125 44.460938 C 73.953125 44.285156 73.925781 44.148438 73.867188 44.058594 C 73.738281 43.839844 73.539062 43.738281 73.246094 43.738281 Z M 73.246094 43.738281 " fill-opacity="0.9412" fill-rule="evenodd"/><path fill="#000000" d="M 11.347656 68.847656 C 11.347656 68.847656 13.617188 68.847656 13.617188 68.847656 C 13.617188 68.847656 14.636719 64.59375 14.636719 64.59375 C 14.636719 64.59375 18.320312 64.59375 18.320312 64.59375 C 18.320312 64.59375 18.796875 62.769531 18.796875 62.769531 C 18.796875 62.769531 15.09375 62.769531 15.09375 62.769531 C 15.09375 62.769531 15.707031 60.035156 15.707031 60.035156 C 15.707031 60.035156 19.648438 60.035156 19.648438 60.035156 C 19.648438 60.035156 20.121094 57.910156 20.121094 57.910156 C 20.121094 57.910156 13.902344 57.910156 13.902344 57.910156 C 13.902344 57.910156 11.347656 68.847656 11.347656 68.847656 Z M 11.347656 68.847656 " fill-opacity="0.9412" fill-rule="evenodd"/><path fill="#000000" d="M 21.523438 68.847656 C 21.523438 68.847656 22.207031 65.992188 22.207031 65.992188 C 22.5625 64.445312 23.320312 63.074219 24.753906 63.074219 C 24.882812 63.074219 25.007812 63.136719 25.101562 63.152344 C 25.101562 63.152344 25.65625 60.964844 25.65625 60.964844 C 25.527344 60.964844 25.386719 60.949219 25.230469 60.949219 C 24.171875 60.949219 23.289062 61.6875 22.699219 62.753906 C 22.699219 62.753906 22.636719 62.753906 22.636719 62.753906 C 22.726562 62.234375 22.800781 61.742188 22.859375 61.25 C 22.859375 61.25 20.902344 61.25 20.902344 61.25 C 20.792969 61.882812 20.617188 63.121094 20.351562 64.234375 C 20.351562 64.234375 19.238281 68.847656 19.238281 68.847656 C 19.238281 68.847656 21.523438 68.847656 21.523438 68.847656 Z M 21.523438 68.847656 " fill-opacity="0.9412" fill-rule="evenodd"/><path fill="#000000" d="M 31.617188 66.796875 C 30.984375 67.101562 30.269531 67.023438 29.433594 67.023438 C 28.773438 67.023438 28.261719 66.910156 27.980469 66.683594 C 27.835938 66.4375 27.773438 66.054688 27.785156 65.808594 C 30.867188 65.890625 32.8125 65.179688 32.90625 63.234375 C 32.980469 61.769531 31.90625 60.949219 30.347656 60.949219 C 27.5625 60.949219 25.738281 63.402344 25.617188 65.765625 C 25.515625 67.828125 26.585938 68.847656 28.792969 68.847656 C 29.640625 68.847656 30.765625 68.75 31.6875 68.472656 C 31.6875 68.472656 31.617188 66.796875 31.617188 66.796875 Z M 30.78125 63.234375 C 30.746094 63.957031 29.851562 64 28.089844 63.984375 C 28.28125 63.351562 28.925781 62.769531 29.980469 62.769531 C 30.503906 62.769531 30.800781 62.96875 30.78125 63.234375 Z M 30.78125 63.234375 " fill-opacity="0.9412" fill-rule="evenodd"/><path fill="#000000" d="M 39.679688 66.796875 C 39.050781 67.101562 38.332031 67.023438 37.496094 67.023438 C 36.835938 67.023438 36.328125 66.910156 36.046875 66.683594 C 35.902344 66.4375 35.835938 66.054688 35.847656 65.808594 C 38.933594 65.890625 40.875 65.179688 40.972656 63.234375 C 41.046875 61.769531 39.972656 60.949219 38.414062 60.949219 C 35.625 60.949219 33.800781 63.402344 33.679688 65.765625 C 33.582031 67.828125 34.652344 68.847656 36.855469 68.847656 C 37.707031 68.847656 38.832031 68.75 39.753906 68.472656 C 39.753906 68.472656 39.679688 66.796875 39.679688 66.796875 Z M 38.847656 63.234375 C 38.8125 63.957031 37.917969 64 36.152344 63.984375 C 36.347656 63.351562 36.988281 62.769531 38.046875 62.769531 C 38.566406 62.769531 38.867188 62.96875 38.847656 63.234375 Z M 38.847656 63.234375 " fill-opacity="0.9412" fill-rule="evenodd"/><path fill="#000000" d="M 51.417969 68.847656 C 51.4375 67.882812 51.667969 66.371094 51.90625 65.378906 C 51.90625 65.378906 52.882812 61.25 52.882812 61.25 C 52.265625 61.042969 51.296875 60.949219 50.367188 60.949219 C 46.589844 60.949219 44.714844 63.742188 44.585938 66.363281 C 44.503906 68.003906 45.394531 68.847656 46.78125 68.847656 C 47.675781 68.847656 48.691406 68.414062 49.476562 67.105469 C 49.476562 67.105469 49.511719 67.105469 49.511719 67.105469 C 49.449219 67.734375 49.378906 68.347656 49.339844 68.847656 C 49.339844 68.847656 51.417969 68.847656 51.417969 68.847656 Z M 49.859375 64.507812 C 49.414062 66.441406 48.507812 67.023438 47.832031 67.023438 C 47.203125 67.023438 46.929688 66.578125 46.964844 65.925781 C 47.039062 64.460938 48.199219 62.769531 49.667969 62.769531 C 49.902344 62.769531 50.089844 62.726562 50.261719 62.6875 C 50.261719 62.6875 49.859375 64.507812 49.859375 64.507812 Z M 49.859375 64.507812 " fill-opacity="0.9412" fill-rule="evenodd"/><path fill="#000000" d="M 52.90625 68.488281 C 53.34375 68.828125 54.261719 68.832031 55.21875 68.847656 C 57.265625 68.863281 58.8125 67.96875 58.902344 66.328125 C 58.953125 65.234375 58.105469 64.585938 57.277344 64.152344 C 56.675781 63.863281 56.375 63.589844 56.390625 63.265625 C 56.414062 62.832031 56.820312 62.769531 57.417969 62.769531 C 58.09375 62.769531 58.636719 62.851562 58.945312 62.914062 C 58.945312 62.914062 59.558594 61.265625 59.558594 61.265625 C 59.210938 61.058594 58.511719 60.949219 57.613281 60.949219 C 55.628906 60.949219 54.175781 61.996094 54.09375 63.589844 C 54.042969 64.574219 54.75 65.234375 55.609375 65.683594 C 56.304688 66.039062 56.539062 66.3125 56.523438 66.699219 C 56.5 67.089844 56.152344 67.023438 55.523438 67.023438 C 54.785156 67.023438 53.96875 66.925781 53.535156 66.859375 C 53.535156 66.859375 52.90625 68.488281 52.90625 68.488281 Z M 52.90625 68.488281 " fill-opacity="0.9412" fill-rule="evenodd"/><path fill="#000000" d="M 65.039062 68.847656 C 65.039062 68.847656 66.882812 61.25 66.882812 61.25 C 66.882812 61.25 64.628906 61.25 64.628906 61.25 C 64.628906 61.25 62.773438 68.847656 62.773438 68.847656 C 62.773438 68.847656 65.039062 68.847656 65.039062 68.847656 Z M 66.097656 60.339844 C 66.867188 60.339844 67.554688 59.703125 67.597656 58.609375 C 67.636719 57.867188 67.15625 57.605469 66.445312 57.605469 C 65.707031 57.605469 65.03125 58.085938 64.992188 58.804688 C 64.957031 59.527344 65.4375 60.339844 66.097656 60.339844 Z M 66.097656 60.339844 " fill-opacity="0.9412" fill-rule="evenodd"/><path fill="#000000" d="M 69.390625 68.847656 C 69.390625 68.847656 70.191406 65.425781 70.191406 65.425781 C 70.609375 63.683594 71.507812 63.074219 72.246094 63.074219 C 72.828125 63.074219 73 63.324219 72.972656 63.683594 C 72.957031 63.976562 72.914062 64.285156 72.851562 64.558594 C 72.851562 64.558594 71.828125 68.847656 71.828125 68.847656 C 71.828125 68.847656 74.097656 68.847656 74.097656 68.847656 C 74.097656 68.847656 75.175781 64.347656 75.175781 64.347656 C 75.257812 63.957031 75.347656 63.378906 75.367188 63.027344 C 75.433594 61.65625 74.75 61.15625 73.488281 61.15625 C 72.480469 61.15625 71.496094 61.625 70.722656 62.640625 C 70.722656 62.640625 70.691406 62.640625 70.691406 62.640625 C 70.691406 62.640625 70.898438 61.25 70.898438 61.25 C 70.898438 61.25 68.898438 61.25 68.898438 61.25 C 68.765625 61.902344 68.597656 62.6875 68.363281 63.605469 C 68.363281 63.605469 67.121094 68.847656 67.121094 68.847656 C 67.121094 68.847656 69.390625 68.847656 69.390625 68.847656 Z M 69.390625 68.847656 " fill-opacity="0.9412" fill-rule="evenodd"/><path fill="#000000" d="M 79.152344 68.847656 C 79.152344 68.847656 81.421875 68.847656 81.421875 68.847656 C 81.421875 68.847656 82.445312 64.59375 82.445312 64.59375 C 82.445312 64.59375 86.128906 64.59375 86.128906 64.59375 C 86.128906 64.59375 86.601562 62.769531 86.601562 62.769531 C 86.601562 62.769531 82.898438 62.769531 82.898438 62.769531 C 82.898438 62.769531 83.515625 60.035156 83.515625 60.035156 C 83.515625 60.035156 87.453125 60.035156 87.453125 60.035156 C 87.453125 60.035156 87.925781 57.910156 87.925781 57.910156 C 87.925781 57.910156 81.707031 57.910156 81.707031 57.910156 C 81.707031 57.910156 79.152344 68.847656 79.152344 68.847656 Z M 79.152344 68.847656 " fill-opacity="0.9412" fill-rule="evenodd"/><path fill="#000000" d="M 89.328125 68.847656 C 89.328125 68.847656 90.011719 65.992188 90.011719 65.992188 C 90.371094 64.445312 91.128906 63.074219 92.558594 63.074219 C 92.6875 63.074219 92.8125 63.136719 92.90625 63.152344 C 92.90625 63.152344 93.460938 60.964844 93.460938 60.964844 C 93.332031 60.964844 93.191406 60.949219 93.035156 60.949219 C 91.980469 60.949219 91.09375 61.6875 90.503906 62.753906 C 90.503906 62.753906 90.441406 62.753906 90.441406 62.753906 C 90.53125 62.234375 90.605469 61.742188 90.664062 61.25 C 90.664062 61.25 88.710938 61.25 88.710938 61.25 C 88.601562 61.882812 88.421875 63.121094 88.160156 64.234375 C 88.160156 64.234375 87.046875 68.847656 87.046875 68.847656 C 87.046875 68.847656 89.328125 68.847656 89.328125 68.847656 Z M 89.328125 68.847656 " fill-opacity="0.9412" fill-rule="evenodd"/><path fill="#000000" d="M 99.421875 66.796875 C 98.792969 67.101562 98.074219 67.023438 97.238281 67.023438 C 96.578125 67.023438 96.066406 66.910156 95.785156 66.683594 C 95.640625 66.4375 95.578125 66.054688 95.59375 65.808594 C 98.671875 65.890625 100.617188 65.179688 100.714844 63.234375 C 100.785156 61.769531 99.714844 60.949219 98.152344 60.949219 C 95.367188 60.949219 93.542969 63.402344 93.421875 65.765625 C 93.320312 67.828125 94.394531 68.847656 96.597656 68.847656 C 97.449219 68.847656 98.574219 68.75 99.496094 68.472656 C 99.496094 68.472656 99.421875 66.796875 99.421875 66.796875 Z M 98.589844 63.234375 C 98.550781 63.957031 97.65625 64 95.894531 63.984375 C 96.089844 63.351562 96.734375 62.769531 97.789062 62.769531 C 98.308594 62.769531 98.605469 62.96875 98.589844 63.234375 Z M 98.589844 63.234375 " fill-opacity="0.9412" fill-rule="evenodd"/><path fill="#000000" d="M 107.484375 66.796875 C 106.855469 67.101562 106.136719 67.023438 105.304688 67.023438 C 104.640625 67.023438 104.132812 66.910156 103.851562 66.683594 C 103.707031 66.4375 103.644531 66.054688 103.65625 65.808594 C 106.738281 65.890625 108.679688 65.179688 108.78125 63.234375 C 108.851562 61.769531 107.777344 60.949219 106.21875 60.949219 C 103.429688 60.949219 101.605469 63.402344 101.488281 65.765625 C 101.386719 67.828125 102.457031 68.847656 104.660156 68.847656 C 105.511719 68.847656 106.640625 68.75 107.558594 68.472656 C 107.558594 68.472656 107.484375 66.796875 107.484375 66.796875 Z M 106.652344 63.234375 C 106.617188 63.957031 105.722656 64 103.960938 63.984375 C 104.152344 63.351562 104.796875 62.769531 105.851562 62.769531 C 106.371094 62.769531 106.671875 62.96875 106.652344 63.234375 Z M 106.652344 63.234375 " fill-opacity="0.9412" fill-rule="evenodd"/><path fill="#000000" d="M 116.5 57.605469 C 116.5 57.605469 115.644531 61.058594 115.644531 61.058594 C 115.335938 60.929688 114.929688 60.949219 114.613281 60.949219 C 111.699219 60.949219 109.636719 63.4375 109.5 66.136719 C 109.410156 68.039062 110.425781 68.847656 111.734375 68.847656 C 112.648438 68.847656 113.613281 68.441406 114.34375 67.398438 C 114.34375 67.398438 114.371094 67.398438 114.371094 67.398438 C 114.371094 67.398438 114.199219 68.847656 114.199219 68.847656 C 114.199219 68.847656 116.261719 68.847656 116.261719 68.847656 C 116.355469 67.9375 116.554688 66.851562 116.777344 65.859375 C 116.777344 65.859375 118.75 57.605469 118.75 57.605469 C 118.75 57.605469 116.5 57.605469 116.5 57.605469 Z M 114.722656 65.023438 C 114.367188 66.523438 113.527344 67.023438 112.863281 67.023438 C 112.203125 67.023438 111.835938 66.566406 111.882812 65.75 C 111.957031 64.234375 113 62.769531 114.351562 62.769531 C 114.730469 62.769531 115.058594 62.828125 115.238281 62.914062 C 115.238281 62.914062 114.722656 65.023438 114.722656 65.023438 Z M 114.722656 65.023438 " fill-opacity="0.9412" fill-rule="evenodd"/><path fill="#000000" d="M 121.671875 68.847656 C 124.320312 68.847656 126.359375 66.84375 126.503906 64.121094 C 126.589844 62.316406 125.464844 60.949219 123.386719 60.949219 C 120.644531 60.949219 118.675781 63.164062 118.539062 65.84375 C 118.445312 67.796875 119.703125 68.847656 121.671875 68.847656 Z M 122.027344 67.023438 C 121.253906 67.023438 120.828125 66.53125 120.875 65.796875 C 120.9375 64.574219 121.695312 62.769531 123 62.769531 C 123.898438 62.769531 124.175781 63.460938 124.140625 64.136719 C 124.070312 65.476562 123.257812 67.023438 122.027344 67.023438 Z M 122.027344 67.023438 " fill-opacity="0.9412" fill-rule="evenodd"/><path fill="#000000" d="M 129.320312 68.847656 C 129.320312 68.847656 130.144531 65.378906 130.144531 65.378906 C 130.488281 63.832031 131.34375 62.769531 132.113281 62.769531 C 132.667969 62.769531 132.820312 63.175781 132.792969 63.703125 C 132.777344 63.976562 132.714844 64.285156 132.652344 64.585938 C 132.652344 64.585938 131.636719 68.847656 131.636719 68.847656 C 131.636719 68.847656 133.824219 68.847656 133.824219 68.847656 C 133.824219 68.847656 134.648438 65.363281 134.648438 65.363281 C 135.023438 63.765625 135.832031 62.769531 136.585938 62.769531 C 137.109375 62.769531 137.324219 63.140625 137.300781 63.671875 C 137.285156 63.976562 137.21875 64.3125 137.140625 64.621094 C 137.140625 64.621094 136.15625 68.847656 136.15625 68.847656 C 136.15625 68.847656 138.359375 68.847656 138.359375 68.847656 C 138.359375 68.847656 139.421875 64.347656 139.421875 64.347656 C 139.503906 63.945312 139.597656 63.316406 139.613281 62.992188 C 139.679688 61.65625 139.027344 60.949219 137.847656 60.949219 C 136.835938 60.949219 135.855469 61.402344 135.109375 62.363281 C 135.082031 61.671875 134.585938 60.949219 133.359375 60.949219 C 132.363281 60.949219 131.414062 61.398438 130.652344 62.414062 C 130.652344 62.414062 130.625 62.414062 130.625 62.414062 C 130.625 62.414062 130.828125 61.25 130.828125 61.25 C 130.828125 61.25 128.875 61.25 128.875 61.25 C 128.746094 61.902344 128.589844 62.6875 128.355469 63.605469 C 128.355469 63.605469 127.132812 68.847656 127.132812 68.847656 C 127.132812 68.847656 129.320312 68.847656 129.320312 68.847656 Z M 129.320312 68.847656 " fill-opacity="0.9412" fill-rule="evenodd"/><g clip-path="url(#262100de33)"><path stroke-linecap="butt" transform="matrix(0.17836, 0, 0, 0.178171, 9.124721, -56.732574)" fill="none" stroke-linejoin="miter" d="M 402.978775 590.408904 C 403.679605 592.20669 404.358534 593.982551 405.081265 595.714563 C 406.198213 598.082378 407.468467 600.340572 409.023433 602.445296 C 417.345789 613.780114 431.318585 619.984665 449.036442 621.51936 C 449.036442 621.51936 468.112157 621.51936 468.112157 621.51936 C 474.134914 621.058952 480.442383 620.181983 486.990763 618.888455 C 498.291646 616.696034 510.249556 613.297781 522.689288 608.759469 C 532.10669 605.317368 541.786903 601.261389 551.598522 596.547683 C 572.995736 586.287153 595.09378 573.066853 616.753805 557.106027 C 623.89351 551.866141 630.748503 546.472785 637.318783 540.991732 C 643.363441 535.971087 649.145288 530.88467 654.664324 525.732481 C 670.082582 510.867865 681.711979 495.784008 688.304161 482.541784 C 695.159153 468.751455 696.538912 456.95623 690.910372 449.523922 C 687.471925 444.963686 681.690078 442.508174 674.265661 441.938145 C 707.73029 416.834923 727.222123 386.382193 720.235724 367.176584 C 718.001829 361.037805 713.11792 356.477569 706.109621 353.956284 C 702.999688 352.816225 699.495539 352.114651 695.662875 351.785788 C 695.662875 351.785788 685.369435 351.785788 685.369435 351.785788 C 671.002422 352.83815 650.087029 357.968415 632.347271 366.672327 " stroke="#000000" stroke-width="8.526" stroke-opacity="1" stroke-miterlimit="4"/></g></svg>