<svg xmlns="http://www.w3.org/2000/svg" xmlns:xlink="http://www.w3.org/1999/xlink" width="100" zoomAndPan="magnify" viewBox="0 0 75 37.5" height="50" preserveAspectRatio="xMidYMid meet" version="1.0"><defs><clipPath id="0cc89152ac"><path d="M 0.492188 0 L 74.503906 0 L 74.503906 37.007812 L 0.492188 37.007812 Z M 0.492188 0 " clip-rule="nonzero"/></clipPath><clipPath id="f5d48d1eab"><path d="M 4.195312 0 L 70.804688 0 C 71.789062 0 72.730469 0.390625 73.421875 1.082031 C 74.117188 1.777344 74.507812 2.71875 74.507812 3.699219 L 74.507812 33.304688 C 74.507812 34.289062 74.117188 35.230469 73.421875 35.921875 C 72.730469 36.617188 71.789062 37.007812 70.804688 37.007812 L 4.195312 37.007812 C 2.148438 37.007812 0.492188 35.351562 0.492188 33.304688 L 0.492188 3.699219 C 0.492188 1.65625 2.148438 0 4.195312 0 " clip-rule="nonzero"/></clipPath><clipPath id="a947ed984b"><path d="M 36 1 L 65.023438 1 L 65.023438 29 L 36 29 Z M 36 1 " clip-rule="nonzero"/></clipPath></defs><g clip-path="url(#0cc89152ac)"><g clip-path="url(#f5d48d1eab)"><path fill="#e7ded9" d="M 0.492188 0 L 74.507812 0 L 74.507812 37.007812 L 0.492188 37.007812 Z M 0.492188 0 " fill-opacity="1" fill-rule="nonzero"/><path stroke-linecap="butt" transform="matrix(0.740132, 0, 0, 0.740132, 0.493421, 0.000000986842)" fill="none" stroke-linejoin="miter" d="M 5.001667 -0.00000133333 L 94.998337 -0.00000133333 C 96.328337 -0.00000133333 97.600282 0.527776 98.534449 1.461943 C 99.473893 2.401388 100.001671 3.673332 100.001671 4.998054 L 100.001671 44.998334 C 100.001671 46.328334 99.473893 47.600278 98.534449 48.534445 C 97.600282 49.47389 96.328337 50.001667 94.998337 50.001667 L 5.001667 50.001667 C 2.236111 50.001667 -0.00166667 47.76389 -0.00166667 44.998334 L -0.00166667 4.998054 C -0.00166667 2.237777 2.236111 -0.00000133333 5.001667 -0.00000133333 " stroke="#695853" stroke-width="4" stroke-opacity="1" stroke-miterlimit="4"/></g></g><path fill="#000000" d="M 36.84375 20.953125 C 36.84375 20.953125 36.839844 20.953125 36.839844 20.953125 C 36.722656 20.953125 36.617188 20.992188 36.519531 21.070312 C 36.449219 21.128906 36.398438 21.207031 36.359375 21.292969 C 36.359375 21.292969 36.363281 21.292969 36.363281 21.292969 C 36.402344 21.207031 36.453125 21.128906 36.523438 21.070312 C 36.621094 20.992188 36.726562 20.953125 36.84375 20.953125 Z M 36.84375 20.953125 " fill-opacity="0.9412" fill-rule="evenodd"/><path fill="#000000" d="M 17.226562 5.925781 C 17.226562 5.925781 12.863281 24.855469 12.863281 24.855469 C 12.863281 24.855469 12.863281 24.855469 12.867188 24.855469 C 12.867188 24.855469 33.058594 24.855469 33.058594 24.855469 C 33.058594 24.855469 43.5625 24.855469 43.5625 24.855469 C 42.3125 24.746094 41.324219 24.308594 40.734375 23.511719 C 40.625 23.367188 40.535156 23.207031 40.457031 23.042969 C 40.40625 22.917969 40.359375 22.796875 40.3125 22.671875 C 40.1875 22.273438 40.136719 21.835938 40.160156 21.367188 C 40.222656 20.058594 40.839844 18.503906 41.90625 16.875 C 43.042969 15.144531 44.691406 13.332031 46.726562 11.648438 C 47.183594 11.273438 47.65625 10.898438 48.152344 10.539062 C 48.761719 10.089844 49.378906 9.679688 49.996094 9.292969 C 52.265625 7.875 54.53125 6.878906 56.535156 6.375 C 54.617188 6.996094 52.464844 8.050781 50.335938 9.488281 C 50.257812 9.539062 50.183594 9.59375 50.109375 9.644531 C 48.925781 10.457031 47.859375 11.320312 46.925781 12.195312 C 43.917969 15 42.332031 17.910156 43.054688 19.617188 C 43.105469 19.734375 43.164062 19.84375 43.238281 19.949219 C 44.011719 21.085938 45.933594 21.28125 48.371094 20.671875 C 48.535156 20.628906 48.703125 20.582031 48.875 20.535156 C 49.652344 20.3125 50.476562 20.011719 51.328125 19.640625 C 51.53125 19.550781 51.738281 19.457031 51.949219 19.359375 C 51.96875 19.347656 51.988281 19.339844 52.011719 19.328125 C 54.695312 18 56.761719 16.476562 57.207031 15.558594 C 57.304688 15.359375 57.328125 15.1875 57.261719 15.054688 C 56.945312 14.414062 54.710938 14.847656 52.011719 16.011719 C 51.792969 16.105469 51.574219 16.199219 51.351562 16.300781 C 51.53125 16.136719 51.722656 15.96875 51.914062 15.804688 C 52.21875 15.542969 52.535156 15.285156 52.875 15.03125 C 53.402344 14.632812 53.9375 14.273438 54.460938 13.957031 C 56.925781 12.109375 58.167969 10.363281 57.910156 9.714844 C 57.859375 9.59375 57.757812 9.507812 57.59375 9.457031 C 57.082031 9.296875 56.144531 9.488281 55.007812 9.953125 C 54.070312 10.335938 52.988281 10.902344 51.898438 11.609375 C 51.898438 11.609375 51.746094 11.707031 51.746094 11.707031 C 51.746094 11.707031 51.71875 11.722656 51.71875 11.722656 C 51.71875 11.722656 51.195312 12.070312 51.195312 12.070312 C 51.195312 12.070312 51.496094 11.519531 51.496094 11.519531 C 51.945312 10.703125 52.675781 9.855469 53.582031 9.0625 C 54.25 8.488281 55.011719 7.941406 55.832031 7.464844 C 56.140625 7.285156 56.449219 7.117188 56.761719 6.96875 C 57.078125 6.8125 57.394531 6.675781 57.707031 6.554688 C 58.605469 6.199219 59.464844 5.984375 60.214844 5.925781 C 60.148438 5.925781 58.109375 5.925781 58.109375 5.925781 C 58.109375 5.925781 51.011719 5.925781 51.011719 5.925781 C 51.011719 5.925781 19.710938 5.925781 19.710938 5.925781 C 19.710938 5.925781 17.226562 5.925781 17.226562 5.925781 Z M 39.746094 5.953125 C 39.625 7.820312 39.988281 10.550781 40.8125 13.585938 C 40.960938 14.125 41.121094 14.675781 41.296875 15.230469 C 41.40625 15.574219 41.519531 15.910156 41.632812 16.242188 C 41.566406 16.34375 41.496094 16.441406 41.433594 16.539062 C 40.402344 18.109375 39.800781 19.59375 39.648438 20.882812 C 39.214844 19.433594 38.886719 17.84375 38.699219 16.160156 C 38.648438 15.679688 38.605469 15.203125 38.578125 14.730469 C 38.375 11.308594 38.824219 8.207031 39.746094 5.953125 Z M 19.183594 8.382812 C 19.207031 8.382812 19.230469 8.382812 19.253906 8.382812 C 19.253906 8.382812 23.894531 8.382812 23.894531 8.382812 C 24.292969 8.382812 24.597656 8.457031 24.816406 8.605469 C 25.035156 8.753906 25.113281 8.945312 25.0625 9.179688 C 25.0625 9.179688 24.511719 11.664062 24.511719 11.664062 C 24.511719 11.664062 22.875 11.664062 22.875 11.664062 C 22.875 11.664062 23.414062 9.246094 23.414062 9.246094 C 23.414062 9.246094 19.316406 9.246094 19.316406 9.246094 C 19.316406 9.246094 17.839844 15.890625 17.839844 15.890625 C 17.839844 15.890625 17.304688 18.292969 17.304688 18.292969 C 17.304688 18.292969 21.394531 18.292969 21.394531 18.292969 C 21.394531 18.292969 21.398438 18.277344 21.398438 18.277344 C 21.398438 18.277344 22.21875 14.597656 22.21875 14.597656 C 22.21875 14.597656 20.296875 14.597656 20.296875 14.597656 C 20.296875 14.597656 20.484375 13.769531 20.484375 13.769531 C 20.484375 13.769531 24.039062 13.769531 24.039062 13.769531 C 24.039062 13.769531 23.019531 18.359375 23.019531 18.359375 C 23.007812 18.425781 22.980469 18.484375 22.949219 18.542969 C 22.867188 18.695312 22.71875 18.824219 22.515625 18.933594 C 22.230469 19.082031 21.890625 19.15625 21.496094 19.15625 C 21.496094 19.15625 16.859375 19.15625 16.859375 19.15625 C 16.460938 19.15625 16.15625 19.082031 15.9375 18.933594 C 15.71875 18.785156 15.636719 18.59375 15.691406 18.359375 C 15.691406 18.359375 17.734375 9.179688 17.734375 9.179688 C 17.785156 8.945312 17.949219 8.753906 18.234375 8.605469 C 18.246094 8.597656 18.257812 8.597656 18.265625 8.59375 C 18.527344 8.464844 18.832031 8.390625 19.183594 8.382812 Z M 26.457031 8.382812 C 26.457031 8.382812 32.296875 8.382812 32.296875 8.382812 C 32.6875 8.382812 32.996094 8.457031 33.214844 8.605469 C 33.433594 8.753906 33.515625 8.945312 33.464844 9.179688 C 33.464844 9.179688 32.375 14.078125 32.375 14.078125 C 32.324219 14.308594 32.152344 14.5 31.867188 14.648438 C 31.582031 14.800781 31.246094 14.875 30.851562 14.875 C 30.851562 14.875 26.609375 14.875 26.609375 14.875 C 26.609375 14.875 25.789062 18.550781 25.789062 18.550781 C 25.789062 18.550781 25.65625 19.15625 25.65625 19.15625 C 25.65625 19.15625 24.054688 19.15625 24.054688 19.15625 C 24.054688 19.15625 24.175781 18.609375 24.175781 18.609375 C 24.175781 18.609375 26.457031 8.382812 26.457031 8.382812 Z M 34.523438 8.382812 C 34.523438 8.382812 36.125 8.382812 36.125 8.382812 C 36.125 8.382812 34.3125 16.515625 34.3125 16.515625 C 34.3125 16.515625 33.914062 18.292969 33.914062 18.292969 C 33.914062 18.292969 37.742188 18.292969 37.742188 18.292969 C 37.78125 18.585938 37.828125 18.871094 37.878906 19.15625 C 37.878906 19.15625 32.121094 19.15625 32.121094 19.15625 C 32.121094 19.15625 32.578125 17.113281 32.578125 17.113281 C 32.578125 17.113281 34.523438 8.382812 34.523438 8.382812 Z M 27.863281 9.246094 C 27.863281 9.246094 26.800781 14.011719 26.800781 14.011719 C 26.800781 14.011719 30.789062 14.011719 30.789062 14.011719 C 30.789062 14.011719 31.847656 9.246094 31.847656 9.246094 C 31.847656 9.246094 27.863281 9.246094 27.863281 9.246094 Z M 24.511719 19.902344 C 24.527344 19.902344 24.542969 19.902344 24.558594 19.902344 C 24.742188 19.902344 24.90625 19.9375 25.035156 19.996094 C 25.175781 20.0625 25.273438 20.160156 25.328125 20.285156 C 25.382812 20.410156 25.398438 20.550781 25.371094 20.703125 C 25.371094 20.703125 25.359375 20.761719 25.359375 20.761719 C 25.359375 20.761719 24.898438 20.761719 24.898438 20.761719 C 24.898438 20.761719 24.902344 20.707031 24.902344 20.707031 C 24.914062 20.597656 24.902344 20.515625 24.859375 20.457031 C 24.855469 20.449219 24.847656 20.441406 24.839844 20.433594 C 24.828125 20.421875 24.8125 20.410156 24.800781 20.402344 C 24.738281 20.363281 24.636719 20.339844 24.507812 20.339844 C 24.335938 20.339844 24.207031 20.371094 24.117188 20.429688 C 24.03125 20.488281 23.980469 20.554688 23.960938 20.632812 C 23.945312 20.710938 23.972656 20.753906 23.992188 20.777344 C 23.992188 20.777344 23.996094 20.78125 23.996094 20.78125 C 24.023438 20.800781 24.109375 20.851562 24.386719 20.917969 C 24.632812 20.976562 24.796875 21.03125 24.890625 21.078125 C 25.03125 21.148438 25.128906 21.242188 25.179688 21.355469 C 25.234375 21.464844 25.242188 21.597656 25.210938 21.738281 C 25.179688 21.878906 25.109375 22.003906 25.003906 22.125 C 24.898438 22.246094 24.769531 22.339844 24.609375 22.40625 C 24.449219 22.472656 24.277344 22.507812 24.097656 22.507812 C 23.871094 22.507812 23.691406 22.472656 23.550781 22.40625 C 23.402344 22.335938 23.292969 22.226562 23.230469 22.082031 C 23.171875 21.941406 23.160156 21.785156 23.191406 21.609375 C 23.191406 21.609375 23.203125 21.554688 23.203125 21.554688 C 23.203125 21.554688 23.65625 21.554688 23.65625 21.554688 C 23.65625 21.554688 23.652344 21.609375 23.652344 21.609375 C 23.640625 21.714844 23.652344 21.796875 23.679688 21.859375 C 23.707031 21.921875 23.753906 21.96875 23.835938 22.007812 C 23.921875 22.050781 24.027344 22.070312 24.148438 22.070312 C 24.257812 22.070312 24.359375 22.050781 24.449219 22.019531 C 24.535156 21.988281 24.605469 21.949219 24.65625 21.894531 C 24.703125 21.84375 24.734375 21.789062 24.746094 21.726562 C 24.757812 21.675781 24.753906 21.628906 24.734375 21.589844 C 24.710938 21.550781 24.664062 21.515625 24.589844 21.484375 C 24.589844 21.484375 24.203125 21.375 24.203125 21.375 C 23.988281 21.320312 23.84375 21.269531 23.761719 21.21875 C 23.648438 21.148438 23.566406 21.0625 23.523438 20.960938 C 23.480469 20.859375 23.476562 20.746094 23.503906 20.621094 C 23.53125 20.488281 23.59375 20.363281 23.695312 20.25 C 23.796875 20.136719 23.925781 20.046875 24.078125 19.988281 C 24.214844 19.9375 24.359375 19.910156 24.511719 19.902344 Z M 28.628906 19.910156 C 28.652344 19.910156 28.675781 19.910156 28.703125 19.910156 C 28.703125 19.910156 28.984375 19.941406 28.984375 19.941406 C 28.984375 19.941406 29.078125 19.949219 29.078125 19.949219 C 29.078125 19.949219 28.941406 20.296875 28.941406 20.296875 C 28.941406 20.296875 28.914062 20.351562 28.914062 20.351562 C 28.914062 20.351562 28.699219 20.332031 28.699219 20.332031 C 28.636719 20.332031 28.589844 20.34375 28.558594 20.363281 C 28.554688 20.367188 28.550781 20.371094 28.550781 20.371094 C 28.546875 20.375 28.539062 20.382812 28.535156 20.386719 C 28.515625 20.410156 28.492188 20.457031 28.476562 20.535156 C 28.476562 20.535156 28.46875 20.570312 28.460938 20.597656 C 28.558594 20.597656 28.796875 20.597656 28.796875 20.597656 C 28.796875 20.597656 28.710938 20.984375 28.710938 20.984375 C 28.710938 20.984375 28.464844 20.984375 28.382812 20.984375 C 28.355469 21.097656 28.046875 22.46875 28.046875 22.46875 C 28.046875 22.46875 27.59375 22.46875 27.59375 22.46875 C 27.59375 22.46875 27.890625 21.148438 27.925781 20.984375 C 27.851562 20.984375 27.664062 20.984375 27.664062 20.984375 C 27.664062 20.984375 27.75 20.597656 27.75 20.597656 C 27.75 20.597656 27.9375 20.597656 28.007812 20.597656 C 28.019531 20.542969 28.039062 20.476562 28.039062 20.476562 C 28.066406 20.351562 28.097656 20.261719 28.132812 20.199219 C 28.1875 20.113281 28.257812 20.042969 28.351562 19.988281 C 28.425781 19.945312 28.519531 19.921875 28.628906 19.910156 Z M 29.714844 19.929688 C 29.714844 19.929688 29.597656 20.464844 29.566406 20.597656 C 29.652344 20.597656 29.859375 20.597656 29.859375 20.597656 C 29.859375 20.597656 29.773438 20.984375 29.773438 20.984375 C 29.773438 20.984375 29.558594 20.984375 29.480469 20.984375 C 29.457031 21.089844 29.269531 21.921875 29.269531 21.921875 C 29.269531 21.921875 29.25 22.023438 29.25 22.050781 C 29.253906 22.050781 29.25 22.054688 29.25 22.054688 C 29.253906 22.054688 29.25 22.058594 29.25 22.058594 C 29.253906 22.058594 29.253906 22.058594 29.257812 22.058594 C 29.257812 22.058594 29.304688 22.0625 29.304688 22.0625 C 29.304688 22.0625 29.519531 22.046875 29.519531 22.046875 C 29.519531 22.046875 29.496094 22.394531 29.496094 22.394531 C 29.496094 22.394531 29.5 22.457031 29.5 22.457031 C 29.5 22.457031 29.1875 22.492188 29.1875 22.492188 C 29.066406 22.492188 28.976562 22.472656 28.910156 22.429688 C 28.839844 22.382812 28.800781 22.324219 28.785156 22.25 C 28.78125 22.238281 28.777344 22.214844 28.777344 22.1875 C 28.777344 22.132812 28.789062 22.035156 28.824219 21.871094 C 28.824219 21.871094 28.988281 21.136719 29.023438 20.984375 C 28.964844 20.984375 28.808594 20.984375 28.808594 20.984375 C 28.808594 20.984375 28.894531 20.597656 28.894531 20.597656 C 28.894531 20.597656 29.046875 20.597656 29.109375 20.597656 C 29.128906 20.507812 29.199219 20.199219 29.199219 20.199219 C 29.199219 20.199219 29.566406 20.007812 29.566406 20.007812 C 29.566406 20.007812 29.714844 19.929688 29.714844 19.929688 Z M 15.261719 19.945312 C 15.261719 19.945312 17.027344 19.945312 17.027344 19.945312 C 17.027344 19.945312 16.929688 20.382812 16.929688 20.382812 C 16.929688 20.382812 15.75 20.382812 15.640625 20.382812 C 15.617188 20.472656 15.539062 20.832031 15.507812 20.960938 C 15.671875 20.960938 16.628906 20.960938 16.628906 20.960938 C 16.628906 20.960938 16.527344 21.398438 16.527344 21.398438 C 16.527344 21.398438 15.523438 21.398438 15.410156 21.398438 C 15.386719 21.503906 15.171875 22.46875 15.171875 22.46875 C 15.171875 22.46875 14.699219 22.46875 14.699219 22.46875 C 14.699219 22.46875 15.261719 19.945312 15.261719 19.945312 Z M 17.628906 20.5625 C 17.644531 20.558594 17.664062 20.5625 17.683594 20.5625 C 17.796875 20.5625 17.898438 20.597656 18 20.667969 C 18 20.667969 18.0625 20.710938 18.0625 20.710938 C 18.0625 20.710938 17.820312 21.109375 17.820312 21.109375 C 17.820312 21.109375 17.753906 21.0625 17.753906 21.0625 C 17.703125 21.03125 17.652344 21.015625 17.597656 21.015625 C 17.546875 21.015625 17.503906 21.03125 17.457031 21.0625 C 17.410156 21.09375 17.371094 21.132812 17.339844 21.191406 C 17.289062 21.285156 17.25 21.394531 17.222656 21.507812 C 17.222656 21.507812 17.011719 22.46875 17.011719 22.46875 C 17.011719 22.46875 16.558594 22.46875 16.558594 22.46875 C 16.558594 22.46875 16.976562 20.597656 16.976562 20.597656 C 16.976562 20.597656 17.398438 20.597656 17.398438 20.597656 C 17.398438 20.597656 17.386719 20.65625 17.378906 20.675781 C 17.402344 20.660156 17.421875 20.640625 17.4375 20.628906 C 17.5 20.59375 17.5625 20.570312 17.628906 20.5625 Z M 18.976562 20.5625 C 19.003906 20.558594 19.03125 20.5625 19.058594 20.5625 C 19.316406 20.5625 19.507812 20.652344 19.636719 20.828125 C 19.714844 20.941406 19.757812 21.082031 19.757812 21.25 C 19.757812 21.339844 19.746094 21.441406 19.722656 21.546875 C 19.722656 21.546875 19.6875 21.683594 19.6875 21.683594 C 19.6875 21.683594 18.535156 21.683594 18.40625 21.683594 C 18.40625 21.710938 18.402344 21.738281 18.402344 21.761719 C 18.402344 21.859375 18.425781 21.9375 18.464844 21.992188 C 18.488281 22.019531 18.511719 22.046875 18.539062 22.0625 C 18.585938 22.097656 18.652344 22.113281 18.730469 22.113281 C 18.824219 22.113281 18.902344 22.089844 18.980469 22.039062 C 19.054688 21.992188 19.121094 21.917969 19.183594 21.816406 C 19.183594 21.816406 19.671875 21.816406 19.671875 21.816406 C 19.671875 21.816406 19.628906 21.910156 19.628906 21.910156 C 19.535156 22.097656 19.40625 22.246094 19.242188 22.347656 C 19.082031 22.453125 18.886719 22.507812 18.675781 22.507812 C 18.398438 22.507812 18.191406 22.417969 18.0625 22.242188 C 17.9375 22.070312 17.910156 21.832031 17.976562 21.53125 C 18.042969 21.230469 18.179688 20.984375 18.375 20.816406 C 18.554688 20.664062 18.753906 20.578125 18.976562 20.5625 Z M 21.019531 20.5625 C 21.046875 20.558594 21.074219 20.5625 21.101562 20.5625 C 21.359375 20.5625 21.550781 20.652344 21.679688 20.828125 C 21.757812 20.941406 21.800781 21.082031 21.800781 21.25 C 21.800781 21.339844 21.789062 21.4375 21.765625 21.542969 C 21.765625 21.542969 21.730469 21.683594 21.730469 21.683594 C 21.730469 21.683594 20.578125 21.683594 20.453125 21.683594 C 20.449219 21.703125 20.449219 21.71875 20.445312 21.734375 C 20.445312 21.742188 20.449219 21.753906 20.445312 21.757812 C 20.445312 21.761719 20.445312 21.761719 20.445312 21.761719 C 20.445312 21.78125 20.449219 21.800781 20.453125 21.816406 C 20.457031 21.890625 20.476562 21.949219 20.511719 21.992188 C 20.515625 22 20.523438 22.011719 20.53125 22.019531 C 20.585938 22.082031 20.667969 22.113281 20.773438 22.113281 C 20.867188 22.113281 20.949219 22.089844 21.023438 22.039062 C 21.097656 21.992188 21.167969 21.917969 21.226562 21.816406 C 21.226562 21.816406 21.71875 21.816406 21.71875 21.816406 C 21.71875 21.816406 21.671875 21.910156 21.671875 21.910156 C 21.578125 22.097656 21.449219 22.246094 21.285156 22.347656 C 21.125 22.453125 20.929688 22.507812 20.71875 22.507812 C 20.441406 22.507812 20.234375 22.417969 20.105469 22.242188 C 20.023438 22.128906 19.984375 21.988281 19.984375 21.816406 C 19.984375 21.792969 19.984375 21.761719 19.988281 21.734375 C 19.992188 21.671875 20.003906 21.605469 20.019531 21.53125 C 20.085938 21.230469 20.21875 20.984375 20.414062 20.816406 C 20.59375 20.664062 20.796875 20.578125 21.019531 20.5625 Z M 26.585938 20.5625 C 26.613281 20.558594 26.640625 20.5625 26.667969 20.5625 C 26.929688 20.5625 27.128906 20.648438 27.257812 20.824219 C 27.390625 20.996094 27.421875 21.230469 27.355469 21.523438 C 27.300781 21.753906 27.226562 21.941406 27.125 22.074219 C 27.023438 22.210938 26.894531 22.320312 26.742188 22.394531 C 26.589844 22.46875 26.429688 22.507812 26.265625 22.507812 C 26 22.507812 25.804688 22.417969 25.675781 22.242188 C 25.59375 22.132812 25.550781 21.988281 25.550781 21.816406 C 25.550781 21.726562 25.558594 21.628906 25.585938 21.515625 C 25.660156 21.183594 25.8125 20.929688 26.039062 20.765625 C 26.207031 20.644531 26.390625 20.578125 26.585938 20.5625 Z M 33.476562 20.5625 C 33.507812 20.558594 33.539062 20.5625 33.574219 20.5625 C 33.730469 20.5625 33.855469 20.578125 33.949219 20.617188 C 34.050781 20.65625 34.121094 20.714844 34.164062 20.78125 C 34.199219 20.84375 34.222656 20.921875 34.222656 21.019531 C 34.222656 21.019531 34.175781 21.304688 34.175781 21.304688 C 34.175781 21.304688 34.085938 21.6875 34.085938 21.6875 C 34.011719 22.019531 33.996094 22.140625 33.992188 22.1875 C 33.988281 22.25 33.996094 22.3125 34.011719 22.367188 C 34.011719 22.367188 34.042969 22.46875 34.042969 22.46875 C 34.042969 22.46875 33.582031 22.46875 33.582031 22.46875 C 33.582031 22.46875 33.5625 22.410156 33.5625 22.410156 C 33.554688 22.382812 33.558594 22.347656 33.554688 22.316406 C 33.464844 22.371094 33.378906 22.417969 33.300781 22.445312 C 33.183594 22.484375 33.0625 22.507812 32.9375 22.507812 C 32.726562 22.507812 32.566406 22.453125 32.472656 22.34375 C 32.398438 22.265625 32.367188 22.167969 32.367188 22.054688 C 32.367188 22.011719 32.371094 21.96875 32.382812 21.921875 C 32.402344 21.828125 32.441406 21.742188 32.503906 21.660156 C 32.5625 21.585938 32.632812 21.519531 32.714844 21.476562 C 32.792969 21.429688 32.878906 21.394531 32.96875 21.375 C 32.96875 21.375 33.25 21.328125 33.25 21.328125 C 33.464844 21.300781 33.625 21.269531 33.738281 21.238281 C 33.742188 21.222656 33.746094 21.210938 33.746094 21.210938 C 33.765625 21.128906 33.761719 21.070312 33.742188 21.039062 C 33.742188 21.035156 33.738281 21.03125 33.734375 21.03125 C 33.730469 21.027344 33.722656 21.019531 33.71875 21.015625 C 33.671875 20.976562 33.589844 20.960938 33.484375 20.960938 C 33.363281 20.960938 33.273438 20.980469 33.210938 21.019531 C 33.148438 21.058594 33.089844 21.128906 33.039062 21.230469 C 33.039062 21.230469 32.566406 21.230469 32.566406 21.230469 C 32.566406 21.230469 32.609375 21.136719 32.609375 21.136719 C 32.664062 21.003906 32.734375 20.898438 32.816406 20.816406 C 32.902344 20.734375 33.015625 20.667969 33.144531 20.625 C 33.246094 20.589844 33.359375 20.570312 33.476562 20.5625 Z M 35.464844 20.5625 C 35.480469 20.558594 35.5 20.5625 35.519531 20.5625 C 35.632812 20.5625 35.742188 20.597656 35.839844 20.667969 C 35.839844 20.667969 35.898438 20.710938 35.898438 20.710938 C 35.898438 20.710938 35.65625 21.109375 35.65625 21.109375 C 35.65625 21.109375 35.589844 21.0625 35.589844 21.0625 C 35.539062 21.03125 35.492188 21.015625 35.4375 21.015625 C 35.390625 21.015625 35.34375 21.03125 35.296875 21.0625 C 35.246094 21.09375 35.214844 21.132812 35.183594 21.191406 C 35.128906 21.285156 35.089844 21.394531 35.0625 21.507812 C 35.0625 21.507812 34.847656 22.46875 34.847656 22.46875 C 34.847656 22.46875 34.394531 22.46875 34.394531 22.46875 C 34.394531 22.46875 34.8125 20.597656 34.8125 20.597656 C 34.8125 20.597656 35.238281 20.597656 35.238281 20.597656 C 35.238281 20.597656 35.226562 20.65625 35.222656 20.675781 C 35.242188 20.660156 35.261719 20.640625 35.28125 20.628906 C 35.339844 20.59375 35.402344 20.570312 35.464844 20.5625 Z M 36.808594 20.5625 C 36.835938 20.558594 36.863281 20.5625 36.890625 20.5625 C 37.148438 20.5625 37.34375 20.652344 37.46875 20.828125 C 37.546875 20.941406 37.589844 21.082031 37.589844 21.25 C 37.589844 21.339844 37.574219 21.441406 37.550781 21.546875 C 37.550781 21.546875 37.519531 21.683594 37.519531 21.683594 C 37.519531 21.683594 36.367188 21.683594 36.242188 21.683594 C 36.238281 21.710938 36.234375 21.738281 36.234375 21.761719 C 36.234375 21.859375 36.253906 21.9375 36.296875 21.992188 C 36.300781 22 36.3125 22.011719 36.320312 22.019531 C 36.324219 22.023438 36.332031 22.03125 36.335938 22.035156 C 36.390625 22.085938 36.46875 22.113281 36.5625 22.113281 C 36.65625 22.113281 36.738281 22.089844 36.8125 22.039062 C 36.886719 21.992188 36.953125 21.917969 37.015625 21.816406 C 37.015625 21.816406 37.507812 21.816406 37.507812 21.816406 C 37.507812 21.816406 37.460938 21.910156 37.460938 21.910156 C 37.367188 22.097656 37.238281 22.246094 37.074219 22.347656 C 36.914062 22.453125 36.722656 22.507812 36.507812 22.507812 C 36.230469 22.507812 36.027344 22.417969 35.898438 22.242188 C 35.773438 22.070312 35.742188 21.832031 35.808594 21.53125 C 35.878906 21.230469 36.007812 20.984375 36.207031 20.816406 C 36.382812 20.664062 36.585938 20.578125 36.808594 20.5625 Z M 29.941406 20.597656 C 29.941406 20.597656 30.410156 20.597656 30.410156 20.597656 C 30.410156 20.597656 30.464844 21.707031 30.46875 21.722656 C 30.488281 21.683594 30.5 21.652344 30.503906 21.644531 C 30.503906 21.644531 31.015625 20.597656 31.015625 20.597656 C 31.015625 20.597656 31.445312 20.597656 31.445312 20.597656 C 31.445312 20.597656 31.484375 21.695312 31.484375 21.699219 C 31.496094 21.679688 32.066406 20.597656 32.066406 20.597656 C 32.066406 20.597656 32.53125 20.597656 32.53125 20.597656 C 32.53125 20.597656 31.511719 22.46875 31.511719 22.46875 C 31.511719 22.46875 31.089844 22.46875 31.089844 22.46875 C 31.089844 22.46875 31.050781 21.453125 31.046875 21.398438 C 30.875 21.75 30.523438 22.46875 30.523438 22.46875 C 30.523438 22.46875 30.089844 22.46875 30.089844 22.46875 C 30.089844 22.46875 29.941406 20.597656 29.941406 20.597656 Z M 18.984375 20.953125 C 18.875 20.957031 18.777344 20.996094 18.6875 21.070312 C 18.613281 21.125 18.5625 21.207031 18.527344 21.292969 C 18.527344 21.292969 19.296875 21.292969 19.296875 21.292969 C 19.300781 21.277344 19.300781 21.261719 19.300781 21.25 C 19.300781 21.175781 19.289062 21.121094 19.265625 21.085938 C 19.210938 20.996094 19.128906 20.953125 19.007812 20.953125 C 19 20.953125 18.992188 20.953125 18.984375 20.953125 Z M 21.027344 20.953125 C 20.917969 20.957031 20.820312 20.996094 20.730469 21.070312 C 20.65625 21.125 20.609375 21.207031 20.570312 21.292969 C 20.570312 21.292969 21.339844 21.292969 21.339844 21.292969 C 21.34375 21.277344 21.34375 21.261719 21.34375 21.25 C 21.34375 21.175781 21.332031 21.121094 21.308594 21.085938 C 21.300781 21.066406 21.285156 21.046875 21.269531 21.035156 C 21.21875 20.980469 21.144531 20.953125 21.050781 20.953125 C 21.042969 20.953125 21.035156 20.953125 21.027344 20.953125 Z M 36.832031 20.953125 C 36.722656 20.957031 36.617188 20.992188 36.523438 21.070312 C 36.453125 21.125 36.402344 21.207031 36.363281 21.292969 C 36.363281 21.292969 37.132812 21.292969 37.132812 21.292969 C 37.132812 21.277344 37.136719 21.261719 37.136719 21.25 C 37.136719 21.175781 37.125 21.121094 37.101562 21.085938 C 37.046875 20.996094 36.960938 20.953125 36.839844 20.953125 C 36.835938 20.953125 36.835938 20.953125 36.832031 20.953125 Z M 26.558594 20.960938 C 26.453125 20.972656 26.355469 21.019531 26.265625 21.101562 C 26.160156 21.199219 26.082031 21.351562 26.035156 21.550781 C 26.015625 21.636719 26.007812 21.710938 26.007812 21.773438 C 26.007812 21.863281 26.027344 21.933594 26.058594 21.984375 C 26.070312 22 26.082031 22.011719 26.089844 22.023438 C 26.148438 22.082031 26.222656 22.113281 26.324219 22.113281 C 26.449219 22.113281 26.5625 22.066406 26.667969 21.96875 C 26.773438 21.871094 26.851562 21.714844 26.898438 21.507812 C 26.941406 21.320312 26.933594 21.179688 26.875 21.089844 C 26.816406 21 26.734375 20.960938 26.617188 20.960938 C 26.597656 20.960938 26.578125 20.957031 26.558594 20.960938 Z M 33.644531 21.640625 C 33.539062 21.671875 33.417969 21.695312 33.261719 21.714844 C 33.140625 21.734375 33.058594 21.753906 33.007812 21.769531 C 32.964844 21.789062 32.933594 21.8125 32.902344 21.84375 C 32.875 21.875 32.855469 21.910156 32.847656 21.945312 C 32.847656 21.960938 32.84375 21.976562 32.84375 21.988281 C 32.84375 21.988281 32.84375 21.992188 32.84375 21.992188 C 32.84375 21.996094 32.84375 22 32.84375 22.003906 C 32.84375 22.011719 32.847656 22.019531 32.847656 22.023438 C 32.847656 22.027344 32.851562 22.03125 32.851562 22.03125 C 32.855469 22.035156 32.855469 22.039062 32.855469 22.042969 C 32.859375 22.046875 32.863281 22.050781 32.863281 22.054688 C 32.867188 22.058594 32.871094 22.066406 32.875 22.070312 C 32.90625 22.105469 32.96875 22.121094 33.058594 22.121094 C 33.160156 22.121094 33.253906 22.101562 33.34375 22.058594 C 33.429688 22.015625 33.5 21.953125 33.550781 21.878906 C 33.589844 21.828125 33.617188 21.746094 33.644531 21.640625 Z M 33.644531 21.640625 " fill-opacity="0.9412" fill-rule="evenodd"/><path fill="#000000" d="M 36.847656 20.953125 C 36.84375 20.953125 36.84375 20.953125 36.84375 20.953125 C 36.964844 20.953125 37.042969 20.996094 37.097656 21.085938 C 37.121094 21.121094 37.132812 21.179688 37.132812 21.25 C 37.132812 21.261719 37.132812 21.277344 37.128906 21.292969 C 37.128906 21.292969 37.136719 21.292969 37.136719 21.292969 C 37.136719 21.277344 37.136719 21.261719 37.136719 21.25 C 37.136719 21.179688 37.125 21.121094 37.101562 21.085938 C 37.050781 20.996094 36.96875 20.953125 36.847656 20.953125 Z M 36.847656 20.953125 " fill-opacity="0.9412" fill-rule="evenodd"/><path fill="#000000" d="M 11.304688 31.261719 C 11.304688 31.261719 12.242188 31.261719 12.242188 31.261719 C 12.242188 31.261719 12.660156 29.515625 12.660156 29.515625 C 12.660156 29.515625 14.183594 29.515625 14.183594 29.515625 C 14.183594 29.515625 14.378906 28.765625 14.378906 28.765625 C 14.378906 28.765625 12.851562 28.765625 12.851562 28.765625 C 12.851562 28.765625 13.105469 27.644531 13.105469 27.644531 C 13.105469 27.644531 14.730469 27.644531 14.730469 27.644531 C 14.730469 27.644531 14.925781 26.769531 14.925781 26.769531 C 14.925781 26.769531 12.359375 26.769531 12.359375 26.769531 C 12.359375 26.769531 11.304688 31.261719 11.304688 31.261719 Z M 11.304688 31.261719 " fill-opacity="0.9412" fill-rule="evenodd"/><path fill="#000000" d="M 15.503906 31.261719 C 15.503906 31.261719 15.785156 30.089844 15.785156 30.089844 C 15.933594 29.453125 16.246094 28.890625 16.835938 28.890625 C 16.890625 28.890625 16.941406 28.917969 16.980469 28.921875 C 16.980469 28.921875 17.207031 28.023438 17.207031 28.023438 C 17.15625 28.023438 17.097656 28.019531 17.03125 28.019531 C 16.597656 28.019531 16.230469 28.324219 15.988281 28.757812 C 15.988281 28.757812 15.964844 28.757812 15.964844 28.757812 C 16 28.546875 16.03125 28.34375 16.054688 28.144531 C 16.054688 28.144531 15.246094 28.144531 15.246094 28.144531 C 15.203125 28.402344 15.128906 28.910156 15.019531 29.367188 C 15.019531 29.367188 14.5625 31.261719 14.5625 31.261719 C 14.5625 31.261719 15.503906 31.261719 15.503906 31.261719 Z M 15.503906 31.261719 " fill-opacity="0.9412" fill-rule="evenodd"/><path fill="#000000" d="M 19.667969 30.417969 C 19.40625 30.546875 19.113281 30.511719 18.765625 30.511719 C 18.496094 30.511719 18.285156 30.464844 18.167969 30.375 C 18.109375 30.273438 18.082031 30.113281 18.085938 30.015625 C 19.359375 30.046875 20.160156 29.753906 20.199219 28.957031 C 20.230469 28.355469 19.789062 28.019531 19.144531 28.019531 C 17.996094 28.019531 17.242188 29.027344 17.191406 29.996094 C 17.148438 30.84375 17.59375 31.261719 18.503906 31.261719 C 18.851562 31.261719 19.316406 31.222656 19.699219 31.109375 C 19.699219 31.109375 19.667969 30.417969 19.667969 30.417969 Z M 19.324219 28.957031 C 19.308594 29.253906 18.941406 29.273438 18.214844 29.265625 C 18.292969 29.003906 18.558594 28.765625 18.992188 28.765625 C 19.207031 28.765625 19.332031 28.847656 19.324219 28.957031 Z M 19.324219 28.957031 " fill-opacity="0.9412" fill-rule="evenodd"/><path fill="#000000" d="M 22.996094 30.417969 C 22.734375 30.546875 22.4375 30.511719 22.09375 30.511719 C 21.820312 30.511719 21.613281 30.464844 21.496094 30.375 C 21.4375 30.273438 21.410156 30.113281 21.414062 30.015625 C 22.6875 30.046875 23.488281 29.753906 23.53125 28.957031 C 23.558594 28.355469 23.117188 28.019531 22.472656 28.019531 C 21.320312 28.019531 20.570312 29.027344 20.519531 29.996094 C 20.480469 30.84375 20.921875 31.261719 21.832031 31.261719 C 22.179688 31.261719 22.644531 31.222656 23.027344 31.109375 C 23.027344 31.109375 22.996094 30.417969 22.996094 30.417969 Z M 22.652344 28.957031 C 22.636719 29.253906 22.269531 29.273438 21.539062 29.265625 C 21.621094 29.003906 21.886719 28.765625 22.320312 28.765625 C 22.535156 28.765625 22.660156 28.847656 22.652344 28.957031 Z M 22.652344 28.957031 " fill-opacity="0.9412" fill-rule="evenodd"/><path fill="#000000" d="M 27.839844 31.261719 C 27.847656 30.867188 27.941406 30.246094 28.042969 29.835938 C 28.042969 29.835938 28.445312 28.144531 28.445312 28.144531 C 28.1875 28.058594 27.789062 28.019531 27.40625 28.019531 C 25.847656 28.019531 25.074219 29.164062 25.019531 30.242188 C 24.984375 30.914062 25.351562 31.261719 25.925781 31.261719 C 26.296875 31.261719 26.714844 31.082031 27.039062 30.546875 C 27.039062 30.546875 27.050781 30.546875 27.050781 30.546875 C 27.027344 30.804688 26.996094 31.054688 26.980469 31.261719 C 26.980469 31.261719 27.839844 31.261719 27.839844 31.261719 Z M 27.195312 29.480469 C 27.011719 30.273438 26.636719 30.511719 26.359375 30.511719 C 26.101562 30.511719 25.988281 30.328125 26 30.0625 C 26.03125 29.460938 26.511719 28.765625 27.117188 28.765625 C 27.214844 28.765625 27.289062 28.75 27.363281 28.730469 C 27.363281 28.730469 27.195312 29.480469 27.195312 29.480469 Z M 27.195312 29.480469 " fill-opacity="0.9412" fill-rule="evenodd"/><path fill="#000000" d="M 28.453125 31.113281 C 28.632812 31.253906 29.011719 31.253906 29.40625 31.261719 C 30.253906 31.265625 30.890625 30.902344 30.929688 30.226562 C 30.949219 29.777344 30.597656 29.511719 30.257812 29.335938 C 30.007812 29.214844 29.886719 29.101562 29.890625 28.96875 C 29.898438 28.792969 30.066406 28.765625 30.316406 28.765625 C 30.59375 28.765625 30.816406 28.800781 30.945312 28.824219 C 30.945312 28.824219 31.199219 28.148438 31.199219 28.148438 C 31.054688 28.0625 30.765625 28.019531 30.394531 28.019531 C 29.574219 28.019531 28.976562 28.449219 28.941406 29.101562 C 28.921875 29.507812 29.214844 29.777344 29.570312 29.960938 C 29.855469 30.109375 29.953125 30.222656 29.945312 30.378906 C 29.9375 30.539062 29.792969 30.511719 29.535156 30.511719 C 29.226562 30.511719 28.890625 30.472656 28.710938 30.445312 C 28.710938 30.445312 28.453125 31.113281 28.453125 31.113281 Z M 28.453125 31.113281 " fill-opacity="0.9412" fill-rule="evenodd"/><path fill="#000000" d="M 33.460938 31.261719 C 33.460938 31.261719 34.21875 28.144531 34.21875 28.144531 C 34.21875 28.144531 33.289062 28.144531 33.289062 28.144531 C 33.289062 28.144531 32.523438 31.261719 32.523438 31.261719 C 32.523438 31.261719 33.460938 31.261719 33.460938 31.261719 Z M 33.894531 27.769531 C 34.214844 27.769531 34.5 27.507812 34.515625 27.058594 C 34.53125 26.753906 34.332031 26.644531 34.039062 26.644531 C 33.734375 26.644531 33.457031 26.84375 33.441406 27.136719 C 33.425781 27.433594 33.625 27.769531 33.894531 27.769531 Z M 33.894531 27.769531 " fill-opacity="0.9412" fill-rule="evenodd"/><path fill="#000000" d="M 35.253906 31.261719 C 35.253906 31.261719 35.585938 29.855469 35.585938 29.855469 C 35.757812 29.140625 36.128906 28.890625 36.433594 28.890625 C 36.675781 28.890625 36.746094 28.992188 36.734375 29.140625 C 36.726562 29.261719 36.707031 29.386719 36.683594 29.5 C 36.683594 29.5 36.261719 31.261719 36.261719 31.261719 C 36.261719 31.261719 37.199219 31.261719 37.199219 31.261719 C 37.199219 31.261719 37.640625 29.414062 37.640625 29.414062 C 37.675781 29.253906 37.714844 29.015625 37.722656 28.871094 C 37.75 28.308594 37.464844 28.105469 36.945312 28.105469 C 36.53125 28.105469 36.125 28.296875 35.804688 28.714844 C 35.804688 28.714844 35.792969 28.714844 35.792969 28.714844 C 35.792969 28.714844 35.878906 28.144531 35.878906 28.144531 C 35.878906 28.144531 35.050781 28.144531 35.050781 28.144531 C 34.996094 28.410156 34.929688 28.734375 34.832031 29.109375 C 34.832031 29.109375 34.320312 31.261719 34.320312 31.261719 C 34.320312 31.261719 35.253906 31.261719 35.253906 31.261719 Z M 35.253906 31.261719 " fill-opacity="0.9412" fill-rule="evenodd"/><path fill="#000000" d="M 39.285156 31.261719 C 39.285156 31.261719 40.21875 31.261719 40.21875 31.261719 C 40.21875 31.261719 40.640625 29.515625 40.640625 29.515625 C 40.640625 29.515625 42.160156 29.515625 42.160156 29.515625 C 42.160156 29.515625 42.355469 28.765625 42.355469 28.765625 C 42.355469 28.765625 40.828125 28.765625 40.828125 28.765625 C 40.828125 28.765625 41.082031 27.644531 41.082031 27.644531 C 41.082031 27.644531 42.707031 27.644531 42.707031 27.644531 C 42.707031 27.644531 42.90625 26.769531 42.90625 26.769531 C 42.90625 26.769531 40.335938 26.769531 40.335938 26.769531 C 40.335938 26.769531 39.285156 31.261719 39.285156 31.261719 Z M 39.285156 31.261719 " fill-opacity="0.9412" fill-rule="evenodd"/><path fill="#000000" d="M 43.484375 31.261719 C 43.484375 31.261719 43.765625 30.089844 43.765625 30.089844 C 43.914062 29.453125 44.226562 28.890625 44.816406 28.890625 C 44.867188 28.890625 44.917969 28.917969 44.957031 28.921875 C 44.957031 28.921875 45.1875 28.023438 45.1875 28.023438 C 45.132812 28.023438 45.078125 28.019531 45.011719 28.019531 C 44.574219 28.019531 44.210938 28.324219 43.96875 28.757812 C 43.96875 28.757812 43.941406 28.757812 43.941406 28.757812 C 43.980469 28.546875 44.011719 28.34375 44.035156 28.144531 C 44.035156 28.144531 43.226562 28.144531 43.226562 28.144531 C 43.183594 28.402344 43.109375 28.910156 43 29.367188 C 43 29.367188 42.539062 31.261719 42.539062 31.261719 C 42.539062 31.261719 43.484375 31.261719 43.484375 31.261719 Z M 43.484375 31.261719 " fill-opacity="0.9412" fill-rule="evenodd"/><path fill="#000000" d="M 47.648438 30.417969 C 47.386719 30.546875 47.089844 30.511719 46.746094 30.511719 C 46.472656 30.511719 46.261719 30.464844 46.148438 30.375 C 46.085938 30.273438 46.0625 30.113281 46.066406 30.015625 C 47.339844 30.046875 48.140625 29.753906 48.179688 28.957031 C 48.210938 28.355469 47.765625 28.019531 47.125 28.019531 C 45.972656 28.019531 45.222656 29.027344 45.171875 29.996094 C 45.128906 30.84375 45.574219 31.261719 46.480469 31.261719 C 46.832031 31.261719 47.296875 31.222656 47.675781 31.109375 C 47.675781 31.109375 47.648438 30.417969 47.648438 30.417969 Z M 47.304688 28.957031 C 47.289062 29.253906 46.917969 29.273438 46.191406 29.265625 C 46.273438 29.003906 46.539062 28.765625 46.972656 28.765625 C 47.1875 28.765625 47.3125 28.847656 47.304688 28.957031 Z M 47.304688 28.957031 " fill-opacity="0.9412" fill-rule="evenodd"/><path fill="#000000" d="M 50.972656 30.417969 C 50.714844 30.546875 50.417969 30.511719 50.074219 30.511719 C 49.800781 30.511719 49.589844 30.464844 49.476562 30.375 C 49.414062 30.273438 49.390625 30.113281 49.394531 30.015625 C 50.667969 30.046875 51.46875 29.753906 51.507812 28.957031 C 51.539062 28.355469 51.097656 28.019531 50.453125 28.019531 C 49.300781 28.019531 48.546875 29.027344 48.5 29.996094 C 48.457031 30.84375 48.898438 31.261719 49.808594 31.261719 C 50.160156 31.261719 50.625 31.222656 51.003906 31.109375 C 51.003906 31.109375 50.972656 30.417969 50.972656 30.417969 Z M 50.632812 28.957031 C 50.617188 29.253906 50.246094 29.273438 49.519531 29.265625 C 49.601562 29.003906 49.863281 28.765625 50.300781 28.765625 C 50.515625 28.765625 50.640625 28.847656 50.632812 28.957031 Z M 50.632812 28.957031 " fill-opacity="0.9412" fill-rule="evenodd"/><path fill="#000000" d="M 54.695312 26.644531 C 54.695312 26.644531 54.339844 28.0625 54.339844 28.0625 C 54.214844 28.011719 54.046875 28.019531 53.914062 28.019531 C 52.714844 28.019531 51.863281 29.042969 51.804688 30.148438 C 51.769531 30.929688 52.1875 31.261719 52.726562 31.261719 C 53.105469 31.261719 53.503906 31.09375 53.804688 30.667969 C 53.804688 30.667969 53.816406 30.667969 53.816406 30.667969 C 53.816406 30.667969 53.746094 31.261719 53.746094 31.261719 C 53.746094 31.261719 54.597656 31.261719 54.597656 31.261719 C 54.636719 30.886719 54.714844 30.441406 54.808594 30.035156 C 54.808594 30.035156 55.621094 26.644531 55.621094 26.644531 C 55.621094 26.644531 54.695312 26.644531 54.695312 26.644531 Z M 53.960938 29.691406 C 53.8125 30.308594 53.46875 30.511719 53.195312 30.511719 C 52.921875 30.511719 52.769531 30.324219 52.789062 29.988281 C 52.820312 29.367188 53.25 28.765625 53.808594 28.765625 C 53.964844 28.765625 54.097656 28.789062 54.171875 28.824219 C 54.171875 28.824219 53.960938 29.691406 53.960938 29.691406 Z M 53.960938 29.691406 " fill-opacity="0.9412" fill-rule="evenodd"/><path fill="#000000" d="M 56.828125 31.261719 C 57.921875 31.261719 58.761719 30.4375 58.820312 29.320312 C 58.859375 28.578125 58.394531 28.019531 57.535156 28.019531 C 56.40625 28.019531 55.59375 28.929688 55.535156 30.027344 C 55.496094 30.828125 56.015625 31.261719 56.828125 31.261719 Z M 56.976562 30.511719 C 56.65625 30.511719 56.480469 30.3125 56.5 30.007812 C 56.523438 29.507812 56.835938 28.765625 57.375 28.765625 C 57.746094 28.765625 57.863281 29.050781 57.847656 29.328125 C 57.820312 29.875 57.484375 30.511719 56.976562 30.511719 Z M 56.976562 30.511719 " fill-opacity="0.9412" fill-rule="evenodd"/><path fill="#000000" d="M 59.984375 31.261719 C 59.984375 31.261719 60.324219 29.835938 60.324219 29.835938 C 60.464844 29.203125 60.820312 28.765625 61.136719 28.765625 C 61.367188 28.765625 61.429688 28.933594 61.417969 29.148438 C 61.410156 29.261719 61.386719 29.386719 61.359375 29.511719 C 61.359375 29.511719 60.941406 31.261719 60.941406 31.261719 C 60.941406 31.261719 61.84375 31.261719 61.84375 31.261719 C 61.84375 31.261719 62.183594 29.832031 62.183594 29.832031 C 62.339844 29.175781 62.671875 28.765625 62.984375 28.765625 C 63.199219 28.765625 63.285156 28.917969 63.277344 29.136719 C 63.269531 29.261719 63.246094 29.398438 63.210938 29.527344 C 63.210938 29.527344 62.804688 31.261719 62.804688 31.261719 C 62.804688 31.261719 63.714844 31.261719 63.714844 31.261719 C 63.714844 31.261719 64.152344 29.414062 64.152344 29.414062 C 64.1875 29.25 64.226562 28.988281 64.230469 28.859375 C 64.257812 28.308594 63.988281 28.019531 63.503906 28.019531 C 63.085938 28.019531 62.679688 28.207031 62.375 28.597656 C 62.363281 28.316406 62.15625 28.019531 61.652344 28.019531 C 61.238281 28.019531 60.847656 28.203125 60.535156 28.621094 C 60.535156 28.621094 60.523438 28.621094 60.523438 28.621094 C 60.523438 28.621094 60.605469 28.144531 60.605469 28.144531 C 60.605469 28.144531 59.800781 28.144531 59.800781 28.144531 C 59.746094 28.410156 59.683594 28.734375 59.585938 29.109375 C 59.585938 29.109375 59.082031 31.261719 59.082031 31.261719 C 59.082031 31.261719 59.984375 31.261719 59.984375 31.261719 Z M 59.984375 31.261719 " fill-opacity="0.9412" fill-rule="evenodd"/><g clip-path="url(#a947ed984b)"><path stroke-linecap="butt" transform="matrix(0.0735982, 0, 0, 0.0731437, 10.387195, -20.292698)" fill="none" stroke-linejoin="miter" d="M 402.99485 590.443408 C 403.68483 592.205777 404.37481 593.968146 405.06479 595.730515 C 406.179373 598.080341 407.453182 600.323356 409.045443 602.459562 C 417.378277 613.781449 431.337101 619.976444 449.064277 621.525193 C 449.064277 621.525193 468.118336 621.525193 468.118336 621.525193 C 474.115854 621.044546 480.431824 620.190064 487.01317 618.908341 C 498.26515 616.665326 510.260185 613.300803 522.679823 608.761367 C 532.12724 605.343439 541.786958 601.284649 551.605902 596.531592 C 572.995279 586.277808 595.074635 573.086741 616.782464 557.118607 C 623.894564 551.884905 630.741288 546.490987 637.322634 540.990258 C 643.373227 535.970176 649.158443 530.896689 654.678282 525.716392 C 670.070141 510.869766 681.693648 495.80952 688.32807 482.565048 C 695.174794 468.733119 696.554754 456.930586 690.928764 449.507273 C 687.478864 444.967837 681.693648 442.511201 674.263096 441.923745 C 707.753658 416.823334 727.232321 386.382411 720.226371 367.156564 C 717.997205 361.06838 713.114271 356.475539 706.108321 353.965498 C 702.976874 352.84399 699.473899 352.096318 695.652472 351.775887 C 695.652472 351.775887 685.355849 351.775887 685.355849 351.775887 C 670.972422 352.84399 650.1138 357.970882 632.333549 366.675918 " stroke="#000000" stroke-width="8.526" stroke-opacity="1" stroke-miterlimit="4"/></g></svg>