<svg xmlns="http://www.w3.org/2000/svg" xmlns:xlink="http://www.w3.org/1999/xlink" width="500" zoomAndPan="magnify" viewBox="0 0 375 119.999999" height="160" preserveAspectRatio="xMidYMid meet" version="1.0"><defs><g/><clipPath id="7007b04f50"><path d="M 81 4 L 103 4 L 103 52 L 81 52 Z M 81 4 " clip-rule="nonzero"/></clipPath><clipPath id="504c7df612"><path d="M 95.847656 -1.539062 L 126.179688 26.417969 L 92.125 63.367188 L 61.792969 35.410156 Z M 95.847656 -1.539062 " clip-rule="nonzero"/></clipPath><clipPath id="85cf2e058a"><path d="M 126.128906 26.371094 L 95.796875 -1.585938 L 61.742188 35.363281 L 92.070312 63.320312 Z M 126.128906 26.371094 " clip-rule="nonzero"/></clipPath><clipPath id="1e416e9031"><path d="M 120.441406 21.128906 L 95.792969 -1.589844 L 67.871094 28.703125 L 92.523438 51.421875 Z M 120.441406 21.128906 " clip-rule="nonzero"/></clipPath><clipPath id="a60bfc5f9b"><path d="M 120.441406 21.128906 L 95.804688 -1.578125 L 67.882812 28.714844 L 92.523438 51.421875 Z M 120.441406 21.128906 " clip-rule="nonzero"/></clipPath><clipPath id="84df6903a1"><path d="M 87 20 L 118 20 L 118 64 L 87 64 Z M 87 20 " clip-rule="nonzero"/></clipPath><clipPath id="086c6d6779"><path d="M 95.847656 -1.539062 L 126.179688 26.417969 L 92.125 63.367188 L 61.792969 35.410156 Z M 95.847656 -1.539062 " clip-rule="nonzero"/></clipPath><clipPath id="05a698fc2b"><path d="M 126.128906 26.371094 L 95.796875 -1.585938 L 61.742188 35.363281 L 92.070312 63.320312 Z M 126.128906 26.371094 " clip-rule="nonzero"/></clipPath><clipPath id="9a57ac757f"><path d="M 124.046875 28.613281 L 107.332031 13.207031 L 75.332031 47.925781 L 92.046875 63.332031 Z M 124.046875 28.613281 " clip-rule="nonzero"/></clipPath><clipPath id="2f923b376a"><path d="M 124.046875 28.613281 L 107.332031 13.207031 L 75.347656 47.910156 L 92.0625 63.316406 Z M 124.046875 28.613281 " clip-rule="nonzero"/></clipPath><clipPath id="957cbd2ee8"><path d="M 84 5 L 108 5 L 108 52 L 84 52 Z M 84 5 " clip-rule="nonzero"/></clipPath><clipPath id="3cee31e30c"><path d="M 101.226562 -0.59375 L 129.144531 29.773438 L 92.152344 63.78125 L 64.234375 33.414062 Z M 101.226562 -0.59375 " clip-rule="nonzero"/></clipPath><clipPath id="a680ecca34"><path d="M 129.097656 29.722656 L 101.179688 -0.648438 L 64.1875 33.359375 L 92.101562 63.730469 Z M 129.097656 29.722656 " clip-rule="nonzero"/></clipPath><clipPath id="77eaf18c54"><path d="M 123.863281 24.027344 L 101.175781 -0.652344 L 70.847656 27.230469 L 93.535156 51.910156 Z M 123.863281 24.027344 " clip-rule="nonzero"/></clipPath><clipPath id="c92db9c9d9"><path d="M 123.863281 24.027344 L 101.1875 -0.640625 L 70.859375 27.242188 L 93.535156 51.910156 Z M 123.863281 24.027344 " clip-rule="nonzero"/></clipPath><clipPath id="4b7821d175"><path d="M 89 22 L 121 22 L 121 64 L 89 64 Z M 89 22 " clip-rule="nonzero"/></clipPath><clipPath id="a240921a8b"><path d="M 101.226562 -0.59375 L 129.144531 29.773438 L 92.152344 63.78125 L 64.234375 33.414062 Z M 101.226562 -0.59375 " clip-rule="nonzero"/></clipPath><clipPath id="2a1d186941"><path d="M 129.097656 29.722656 L 101.179688 -0.648438 L 64.1875 33.359375 L 92.101562 63.730469 Z M 129.097656 29.722656 " clip-rule="nonzero"/></clipPath><clipPath id="0f297c328e"><path d="M 126.835938 31.785156 L 111.453125 15.050781 L 76.691406 47.003906 L 92.078125 63.738281 Z M 126.835938 31.785156 " clip-rule="nonzero"/></clipPath><clipPath id="a0327e89da"><path d="M 126.835938 31.785156 L 111.453125 15.050781 L 76.710938 46.988281 L 92.09375 63.722656 Z M 126.835938 31.785156 " clip-rule="nonzero"/></clipPath></defs><g clip-path="url(#7007b04f50)"><g clip-path="url(#504c7df612)"><g clip-path="url(#85cf2e058a)"><g clip-path="url(#1e416e9031)"><g clip-path="url(#a60bfc5f9b)"><path fill="#82bd9b" d="M 94.636719 11.628906 C 94.625 11.660156 94.613281 11.6875 94.605469 11.71875 C 94.613281 11.6875 94.625 11.660156 94.636719 11.628906 Z M 94.421875 12.199219 L 94.464844 12.1875 C 94.5 12.082031 94.53125 11.976562 94.5625 11.867188 C 94.53125 11.976562 94.5 12.085938 94.464844 12.1875 L 94.457031 12.203125 C 94.457031 12.203125 94.464844 12.1875 94.464844 12.1875 C 94.449219 12.191406 94.4375 12.195312 94.421875 12.199219 Z M 102.039062 4.628906 C 102.035156 4.632812 102.027344 4.636719 102.027344 4.636719 C 102.027344 4.636719 102.039062 4.628906 102.039062 4.628906 Z M 91.511719 18.304688 C 91.511719 18.304688 91.511719 18.308594 91.507812 18.308594 L 91.511719 18.308594 Z M 93.828125 26.128906 C 94.367188 25.652344 94.878906 25.167969 95.378906 24.675781 C 95.871094 24.175781 96.300781 23.640625 96.679688 23.050781 C 96.277344 22.742188 95.742188 22.832031 95.3125 22.964844 C 92.765625 23.792969 90.554688 25.390625 89.054688 27.5 C 88.894531 27.078125 88.835938 26.652344 88.882812 26.246094 C 88.929688 25.839844 89.0625 25.445312 89.257812 25.070312 C 89.355469 24.882812 89.464844 24.699219 89.589844 24.523438 C 89.71875 24.351562 89.859375 24.183594 90.007812 24.023438 C 90.308594 23.703125 90.640625 23.410156 90.976562 23.152344 C 91.328125 22.882812 91.710938 22.636719 92.09375 22.398438 C 92.476562 22.160156 92.863281 21.929688 93.261719 21.710938 C 94.054688 21.285156 94.847656 20.859375 95.632812 20.441406 C 96.414062 20.019531 97.128906 19.566406 97.800781 19.070312 C 98.128906 18.816406 98.4375 18.546875 98.714844 18.25 C 99 17.960938 99.265625 17.648438 99.492188 17.304688 C 99.101562 17.3125 98.710938 17.328125 98.320312 17.363281 C 97.929688 17.394531 97.542969 17.441406 97.164062 17.503906 C 96.40625 17.632812 95.660156 17.8125 94.925781 18.042969 C 94.207031 18.285156 93.503906 18.574219 92.824219 18.914062 C 92.148438 19.257812 91.515625 19.660156 90.898438 20.097656 C 91.273438 19.710938 91.667969 19.355469 92.078125 19.011719 C 92.28125 18.839844 92.5 18.679688 92.714844 18.519531 C 92.933594 18.363281 93.152344 18.207031 93.371094 18.054688 L 94.03125 17.597656 C 94.25 17.445312 94.480469 17.304688 94.703125 17.15625 C 95.152344 16.863281 95.59375 16.570312 96.019531 16.261719 C 97.761719 15.054688 99.351562 13.617188 99.96875 11.59375 C 97.132812 12.335938 94.511719 13.769531 92.371094 15.734375 C 92.652344 15.195312 92.96875 14.679688 93.332031 14.195312 C 93.703125 13.714844 94.101562 13.257812 94.519531 12.8125 C 95.378906 11.945312 96.3125 11.136719 97.265625 10.363281 C 97.5 10.167969 97.734375 9.972656 97.96875 9.777344 C 98.207031 9.585938 98.441406 9.394531 98.675781 9.199219 C 98.90625 9.003906 99.136719 8.808594 99.359375 8.609375 C 99.582031 8.40625 99.804688 8.203125 100.023438 8.003906 C 100.464844 7.597656 100.871094 7.167969 101.253906 6.710938 C 101.644531 6.265625 102 5.789062 102.3125 5.269531 C 102.367188 5.175781 102.421875 5.074219 102.453125 4.964844 C 102.488281 4.859375 102.496094 4.75 102.457031 4.636719 C 102.371094 4.394531 102.15625 4.289062 101.90625 4.269531 C 101.652344 4.253906 101.378906 4.328125 101.171875 4.4375 C 100.683594 4.691406 100.210938 4.972656 99.753906 5.273438 C 99.300781 5.582031 98.875 5.921875 98.457031 6.273438 C 98.246094 6.449219 98.042969 6.628906 97.839844 6.816406 C 97.644531 7.003906 97.453125 7.199219 97.261719 7.394531 C 97.074219 7.59375 96.886719 7.792969 96.703125 7.996094 C 96.519531 8.199219 96.332031 8.40625 96.164062 8.621094 C 95.820312 9.050781 95.484375 9.488281 95.15625 9.933594 C 94.992188 10.152344 94.839844 10.386719 94.6875 10.617188 L 94.234375 11.308594 L 93.789062 12.007812 L 93.375 12.722656 C 93.238281 12.960938 93.101562 13.199219 92.964844 13.4375 C 92.828125 13.675781 92.6875 13.910156 92.5625 14.15625 L 92.453125 13.1875 C 92.417969 12.867188 92.375 12.542969 92.332031 12.214844 C 92.285156 11.890625 92.238281 11.5625 92.1875 11.234375 L 92.03125 10.253906 C 91.929688 9.597656 91.808594 8.941406 91.679688 8.277344 C 91.609375 7.945312 91.542969 7.613281 91.476562 7.28125 C 91.40625 6.949219 91.335938 6.621094 91.265625 6.289062 C 90.996094 6.441406 90.761719 6.640625 90.582031 6.878906 C 90.398438 7.117188 90.257812 7.390625 90.152344 7.679688 C 90.050781 7.972656 89.980469 8.28125 89.949219 8.597656 C 89.914062 8.910156 89.914062 9.230469 89.949219 9.546875 C 90.019531 10.175781 90.183594 10.789062 90.367188 11.394531 C 90.550781 12.003906 90.75 12.597656 90.910156 13.210938 C 91.226562 14.445312 91.296875 15.675781 91.183594 16.867188 C 91.046875 18.042969 90.730469 19.183594 90.171875 20.183594 C 89.980469 19.300781 89.734375 18.417969 89.414062 17.53125 C 89.335938 17.3125 89.25 17.089844 89.164062 16.871094 C 89.078125 16.652344 88.992188 16.433594 88.898438 16.214844 C 88.714844 15.78125 88.515625 15.347656 88.300781 14.917969 C 87.871094 14.0625 87.375 13.214844 86.839844 12.410156 C 86.300781 11.601562 85.703125 10.824219 85.050781 10.089844 C 85.0625 10.488281 85.085938 10.882812 85.125 11.277344 C 85.160156 11.671875 85.21875 12.070312 85.285156 12.460938 C 85.417969 13.246094 85.601562 14.015625 85.828125 14.769531 C 86.066406 15.527344 86.351562 16.269531 86.679688 16.988281 C 87.003906 17.710938 87.371094 18.40625 87.796875 19.085938 C 88.148438 19.652344 88.535156 20.21875 88.839844 20.796875 C 89.148438 21.375 89.371094 21.953125 89.429688 22.566406 C 89.472656 23.058594 89.386719 23.519531 89.242188 23.964844 C 89.203125 24.078125 89.160156 24.1875 89.121094 24.300781 C 89.082031 24.410156 89.039062 24.523438 88.992188 24.632812 C 88.902344 24.855469 88.804688 25.074219 88.710938 25.292969 C 88.316406 26.164062 87.988281 27.0625 88.207031 28.015625 C 87.835938 26.132812 87.234375 24.222656 86.425781 22.335938 C 86.027344 21.394531 85.570312 20.457031 85.058594 19.535156 C 84.558594 18.621094 84 17.71875 83.390625 16.839844 C 83.304688 17.210938 83.25 17.582031 83.226562 17.953125 C 83.210938 18.136719 83.207031 18.324219 83.207031 18.507812 C 83.210938 18.695312 83.222656 18.882812 83.242188 19.070312 C 83.308594 19.816406 83.472656 20.558594 83.699219 21.289062 C 83.9375 22.027344 84.242188 22.75 84.570312 23.457031 C 84.738281 23.8125 84.910156 24.160156 85.085938 24.507812 C 85.265625 24.851562 85.449219 25.195312 85.632812 25.535156 C 85.996094 26.210938 86.359375 26.898438 86.691406 27.585938 C 87.027344 28.28125 87.34375 28.976562 87.582031 29.664062 C 87.703125 30.011719 87.800781 30.347656 87.890625 30.691406 C 87.980469 31.035156 88.050781 31.375 88.09375 31.707031 C 88.132812 32.042969 88.148438 32.375 88.136719 32.703125 C 88.125 33.035156 88.09375 33.363281 88.019531 33.6875 C 87.828125 33.320312 87.632812 32.953125 87.429688 32.585938 C 87.234375 32.21875 87.035156 31.851562 86.832031 31.484375 C 86.421875 30.75 85.984375 30.011719 85.542969 29.277344 C 84.671875 27.8125 83.695312 26.335938 82.699219 24.894531 C 82.496094 24.605469 82.152344 24.269531 81.84375 24.414062 C 81.601562 24.523438 81.589844 24.839844 81.617188 25.097656 C 81.816406 26.710938 82.402344 28.222656 83.1875 29.671875 C 83.953125 31.113281 84.925781 32.503906 85.804688 33.851562 C 86.25 34.527344 86.699219 35.222656 87.09375 35.917969 C 87.296875 36.265625 87.476562 36.613281 87.65625 36.964844 C 87.839844 37.316406 88.003906 37.667969 88.152344 38.019531 C 88.296875 38.367188 88.425781 38.71875 88.53125 39.0625 C 88.636719 39.410156 88.734375 39.761719 88.792969 40.105469 C 88.855469 40.449219 88.894531 40.792969 88.898438 41.132812 C 88.902344 41.46875 88.890625 41.8125 88.835938 42.148438 C 88.621094 41.765625 88.390625 41.382812 88.152344 41 C 87.921875 40.621094 87.675781 40.242188 87.421875 39.863281 C 87.164062 39.484375 86.894531 39.109375 86.617188 38.734375 C 86.335938 38.359375 86.058594 37.992188 85.761719 37.625 C 85.175781 36.890625 84.542969 36.164062 83.875 35.460938 C 83.21875 34.757812 82.519531 34.078125 81.785156 33.421875 C 81.757812 34.824219 82.367188 36.144531 83.183594 37.367188 C 83.605469 37.984375 84.089844 38.582031 84.585938 39.160156 C 85.082031 39.738281 85.582031 40.296875 86.078125 40.855469 C 86.457031 41.28125 86.820312 41.710938 87.171875 42.140625 C 87.523438 42.574219 87.851562 43.003906 88.1875 43.445312 C 88.519531 43.882812 88.835938 44.324219 89.132812 44.761719 C 89.285156 44.984375 89.429688 45.203125 89.570312 45.425781 C 89.71875 45.644531 89.859375 45.867188 90 46.089844 C 90.273438 46.535156 90.535156 46.976562 90.773438 47.417969 C 91.015625 47.863281 91.253906 48.308594 91.464844 48.753906 C 91.875 49.640625 92.257812 50.53125 92.527344 51.417969 C 92.625 50.863281 92.496094 50.304688 92.261719 49.738281 C 92.042969 49.171875 91.71875 48.597656 91.394531 48.011719 C 91.234375 47.71875 91.082031 47.425781 90.949219 47.132812 C 90.8125 46.84375 90.695312 46.546875 90.605469 46.253906 C 90.417969 45.667969 90.378906 45.089844 90.566406 44.527344 C 90.632812 44.320312 90.734375 44.125 90.851562 43.941406 C 90.96875 43.757812 91.121094 43.585938 91.273438 43.417969 C 91.585938 43.085938 91.945312 42.777344 92.269531 42.460938 C 94.175781 40.660156 95.355469 38.472656 95.722656 36.03125 C 93.0625 37.65625 90.960938 40.015625 89.695312 42.761719 C 89.316406 42.152344 89.21875 41.488281 89.339844 40.851562 C 89.453125 40.214844 89.730469 39.585938 90.097656 39.046875 C 90.308594 38.722656 90.535156 38.410156 90.777344 38.105469 C 91.019531 37.800781 91.285156 37.511719 91.546875 37.222656 C 91.816406 36.9375 92.078125 36.652344 92.359375 36.375 C 92.636719 36.101562 92.917969 35.828125 93.1875 35.554688 C 93.457031 35.277344 93.722656 35.003906 93.992188 34.730469 C 94.253906 34.453125 94.503906 34.175781 94.738281 33.886719 C 94.964844 33.597656 95.199219 33.308594 95.402344 33.003906 C 95.605469 32.699219 95.785156 32.382812 95.9375 32.050781 C 95.027344 31.839844 94.238281 32.230469 93.574219 32.65625 C 91.542969 33.984375 89.886719 35.796875 88.785156 37.894531 C 88.652344 37.644531 88.578125 37.386719 88.554688 37.128906 C 88.535156 36.875 88.5625 36.621094 88.625 36.371094 C 88.683594 36.121094 88.777344 35.875 88.890625 35.636719 C 88.949219 35.519531 89.007812 35.402344 89.074219 35.289062 C 89.144531 35.179688 89.214844 35.070312 89.289062 34.964844 C 89.5625 34.574219 89.863281 34.195312 90.179688 33.832031 C 90.496094 33.472656 90.847656 33.128906 91.195312 32.789062 L 91.722656 32.289062 C 91.902344 32.121094 92.089844 31.964844 92.269531 31.800781 C 92.636719 31.480469 92.996094 31.160156 93.347656 30.839844 C 93.710938 30.527344 94.058594 30.207031 94.386719 29.882812 C 94.554688 29.71875 94.710938 29.550781 94.867188 29.386719 C 95.027344 29.222656 95.179688 29.054688 95.324219 28.882812 C 95.617188 28.539062 95.875 28.175781 96.109375 27.796875 C 96.347656 27.421875 96.546875 27.023438 96.703125 26.597656 C 95.042969 27.121094 93.496094 27.90625 92.148438 28.925781 C 91.8125 29.183594 91.484375 29.449219 91.167969 29.730469 C 90.855469 30.011719 90.5625 30.308594 90.273438 30.613281 C 89.691406 31.222656 89.191406 31.894531 88.734375 32.59375 C 88.777344 32.527344 88.648438 32.1875 88.636719 32.09375 C 88.613281 31.894531 88.601562 31.691406 88.609375 31.496094 C 88.613281 31.296875 88.636719 31.097656 88.671875 30.90625 C 88.710938 30.710938 88.765625 30.527344 88.835938 30.34375 C 89.105469 29.648438 89.566406 29.003906 90.25 28.605469 C 90.65625 28.367188 90.605469 28.371094 91.511719 27.839844 L 93.828125 26.128906 " fill-opacity="1" fill-rule="nonzero"/></g></g></g></g></g><g clip-path="url(#84df6903a1)"><g clip-path="url(#086c6d6779)"><g clip-path="url(#05a698fc2b)"><g clip-path="url(#9a57ac757f)"><g clip-path="url(#2f923b376a)"><path fill="#82bd9b" d="M 107.734375 26.714844 C 107.714844 26.742188 107.691406 26.765625 107.671875 26.789062 C 107.691406 26.765625 107.714844 26.742188 107.734375 26.714844 Z M 107.335938 27.179688 L 107.378906 27.179688 C 107.449219 27.097656 107.515625 27.007812 107.578125 26.914062 C 107.515625 27.007812 107.449219 27.097656 107.378906 27.183594 L 107.367188 27.191406 C 107.367188 27.191406 107.378906 27.183594 107.378906 27.179688 C 107.363281 27.179688 107.351562 27.179688 107.335938 27.179688 Z M 117.101562 22.695312 C 117.097656 22.695312 117.085938 22.699219 117.085938 22.699219 C 117.085938 22.699219 117.097656 22.695312 117.101562 22.695312 Z M 102.5 31.90625 C 102.5 31.90625 102.496094 31.90625 102.496094 31.90625 Z M 101.984375 40.039062 C 102.65625 39.78125 103.304688 39.5 103.941406 39.210938 C 104.578125 38.910156 105.164062 38.554688 105.726562 38.132812 C 105.453125 37.703125 104.917969 37.605469 104.472656 37.585938 C 101.792969 37.484375 99.160156 38.222656 97.027344 39.6875 C 97.023438 39.234375 97.113281 38.816406 97.296875 38.449219 C 97.480469 38.085938 97.742188 37.761719 98.054688 37.476562 C 98.210938 37.335938 98.378906 37.203125 98.554688 37.078125 C 98.734375 36.960938 98.925781 36.851562 99.121094 36.753906 C 99.511719 36.554688 99.921875 36.394531 100.332031 36.265625 C 100.753906 36.136719 101.199219 36.039062 101.636719 35.945312 C 102.082031 35.855469 102.523438 35.769531 102.972656 35.703125 C 103.863281 35.574219 104.757812 35.449219 105.640625 35.324219 C 106.519531 35.199219 107.347656 35.019531 108.148438 34.78125 C 108.542969 34.660156 108.925781 34.511719 109.289062 34.332031 C 109.660156 34.160156 110.011719 33.957031 110.347656 33.710938 C 109.976562 33.582031 109.601562 33.464844 109.226562 33.363281 C 108.847656 33.257812 108.464844 33.167969 108.089844 33.097656 C 107.332031 32.957031 106.566406 32.871094 105.796875 32.832031 C 105.039062 32.8125 104.28125 32.84375 103.523438 32.925781 C 102.769531 33.015625 102.035156 33.175781 101.308594 33.375 C 101.789062 33.144531 102.285156 32.941406 102.789062 32.765625 C 103.039062 32.671875 103.296875 32.597656 103.558594 32.523438 C 103.816406 32.445312 104.074219 32.375 104.335938 32.308594 L 105.113281 32.105469 C 105.371094 32.042969 105.636719 31.988281 105.894531 31.925781 C 106.417969 31.804688 106.933594 31.679688 107.441406 31.539062 C 109.492188 31.003906 111.480469 30.203125 112.757812 28.519531 C 109.835938 28.238281 106.882812 28.683594 104.191406 29.789062 C 104.640625 29.382812 105.117188 29.007812 105.625 28.675781 C 106.136719 28.351562 106.671875 28.0625 107.21875 27.789062 C 108.324219 27.269531 109.476562 26.832031 110.640625 26.433594 C 110.925781 26.332031 111.214844 26.230469 111.5 26.125 C 111.792969 26.027344 112.082031 25.929688 112.367188 25.828125 C 112.652344 25.726562 112.933594 25.617188 113.210938 25.507812 C 113.492188 25.394531 113.769531 25.28125 114.046875 25.167969 C 114.597656 24.9375 115.128906 24.675781 115.644531 24.378906 C 116.164062 24.09375 116.664062 23.769531 117.136719 23.390625 C 117.222656 23.320312 117.308594 23.246094 117.375 23.152344 C 117.441406 23.066406 117.488281 22.964844 117.488281 22.84375 C 117.492188 22.589844 117.324219 22.417969 117.097656 22.3125 C 116.867188 22.210938 116.582031 22.1875 116.347656 22.214844 C 115.804688 22.289062 115.261719 22.390625 114.730469 22.515625 C 114.199219 22.648438 113.679688 22.820312 113.167969 23.003906 C 112.910156 23.097656 112.652344 23.195312 112.402344 23.300781 C 112.152344 23.414062 111.902344 23.527344 111.65625 23.648438 C 111.410156 23.769531 111.167969 23.890625 110.921875 24.019531 C 110.679688 24.148438 110.4375 24.277344 110.203125 24.421875 C 109.730469 24.703125 109.265625 25 108.808594 25.304688 C 108.574219 25.457031 108.351562 25.621094 108.128906 25.785156 L 107.464844 26.277344 L 106.808594 26.78125 L 106.171875 27.308594 C 105.960938 27.484375 105.75 27.664062 105.539062 27.839844 C 105.328125 28.015625 105.117188 28.1875 104.914062 28.371094 L 105.144531 27.429688 C 105.222656 27.113281 105.292969 26.796875 105.363281 26.476562 C 105.433594 26.15625 105.5 25.832031 105.566406 25.507812 L 105.757812 24.53125 C 105.886719 23.882812 106 23.222656 106.105469 22.554688 C 106.15625 22.21875 106.207031 21.886719 106.257812 21.550781 C 106.308594 21.21875 106.355469 20.882812 106.398438 20.546875 C 106.09375 20.597656 105.808594 20.703125 105.554688 20.867188 C 105.300781 21.027344 105.074219 21.234375 104.878906 21.472656 C 104.679688 21.710938 104.507812 21.976562 104.371094 22.261719 C 104.230469 22.542969 104.117188 22.84375 104.042969 23.152344 C 103.894531 23.765625 103.835938 24.398438 103.800781 25.03125 C 103.765625 25.664062 103.746094 26.289062 103.6875 26.917969 C 103.5625 28.1875 103.203125 29.363281 102.6875 30.441406 C 102.152344 31.5 101.464844 32.460938 100.59375 33.207031 C 100.71875 32.3125 100.789062 31.398438 100.792969 30.457031 C 100.796875 30.222656 100.792969 29.988281 100.785156 29.75 C 100.78125 29.515625 100.773438 29.28125 100.761719 29.046875 C 100.738281 28.578125 100.699219 28.101562 100.644531 27.625 C 100.539062 26.675781 100.363281 25.710938 100.132812 24.769531 C 99.90625 23.824219 99.613281 22.890625 99.25 21.976562 C 99.125 22.355469 99.011719 22.734375 98.910156 23.117188 C 98.808594 23.496094 98.730469 23.894531 98.65625 24.28125 C 98.515625 25.0625 98.417969 25.847656 98.375 26.632812 C 98.335938 27.429688 98.347656 28.222656 98.410156 29.011719 C 98.46875 29.796875 98.574219 30.578125 98.738281 31.363281 C 98.875 32.011719 99.042969 32.675781 99.132812 33.324219 C 99.222656 33.972656 99.234375 34.59375 99.078125 35.1875 C 98.949219 35.660156 98.710938 36.066406 98.417969 36.433594 C 98.34375 36.527344 98.269531 36.617188 98.191406 36.707031 C 98.113281 36.796875 98.035156 36.886719 97.957031 36.976562 C 97.796875 37.152344 97.628906 37.324219 97.460938 37.496094 C 96.792969 38.179688 96.175781 38.910156 96.054688 39.878906 C 96.351562 37.984375 96.441406 35.984375 96.332031 33.9375 C 96.28125 32.917969 96.171875 31.882812 96.007812 30.839844 C 95.855469 29.808594 95.640625 28.773438 95.367188 27.738281 C 95.160156 28.058594 94.984375 28.386719 94.832031 28.726562 C 94.757812 28.894531 94.6875 29.066406 94.625 29.242188 C 94.5625 29.417969 94.511719 29.597656 94.460938 29.777344 C 94.269531 30.503906 94.167969 31.257812 94.128906 32.019531 C 94.101562 32.789062 94.136719 33.578125 94.203125 34.351562 C 94.238281 34.742188 94.28125 35.128906 94.324219 35.511719 C 94.375 35.898438 94.429688 36.285156 94.484375 36.664062 C 94.597656 37.425781 94.703125 38.195312 94.777344 38.953125 C 94.855469 39.722656 94.910156 40.484375 94.898438 41.210938 C 94.894531 41.574219 94.871094 41.925781 94.835938 42.28125 C 94.804688 42.632812 94.75 42.972656 94.675781 43.300781 C 94.597656 43.632812 94.5 43.949219 94.375 44.25 C 94.25 44.558594 94.105469 44.855469 93.925781 45.132812 C 93.875 44.722656 93.816406 44.3125 93.753906 43.898438 C 93.691406 43.484375 93.632812 43.074219 93.566406 42.660156 C 93.433594 41.832031 93.277344 40.984375 93.113281 40.144531 C 92.800781 38.472656 92.390625 36.75 91.949219 35.054688 C 91.859375 34.714844 91.652344 34.285156 91.308594 34.3125 C 91.046875 34.332031 90.925781 34.621094 90.863281 34.875 C 90.492188 36.457031 90.527344 38.074219 90.765625 39.707031 C 90.988281 41.324219 91.425781 42.960938 91.789062 44.523438 C 91.976562 45.3125 92.15625 46.121094 92.289062 46.910156 C 92.359375 47.304688 92.410156 47.695312 92.457031 48.085938 C 92.507812 48.476562 92.542969 48.863281 92.558594 49.242188 C 92.578125 49.621094 92.578125 49.992188 92.558594 50.351562 C 92.539062 50.714844 92.507812 51.074219 92.445312 51.417969 C 92.386719 51.765625 92.304688 52.097656 92.191406 52.417969 C 92.078125 52.738281 91.953125 53.054688 91.785156 53.351562 C 91.714844 52.917969 91.628906 52.476562 91.539062 52.039062 C 91.449219 51.601562 91.351562 51.164062 91.238281 50.722656 C 91.128906 50.277344 91.003906 49.832031 90.871094 49.386719 C 90.738281 48.9375 90.601562 48.496094 90.453125 48.050781 C 90.152344 47.160156 89.804688 46.261719 89.421875 45.371094 C 89.042969 44.488281 88.621094 43.609375 88.15625 42.738281 C 87.648438 44.046875 87.765625 45.496094 88.117188 46.925781 C 88.300781 47.648438 88.550781 48.371094 88.816406 49.085938 C 89.085938 49.796875 89.363281 50.496094 89.636719 51.1875 C 89.847656 51.71875 90.039062 52.246094 90.222656 52.773438 C 90.402344 53.296875 90.566406 53.816406 90.730469 54.34375 C 90.890625 54.871094 91.035156 55.390625 91.164062 55.90625 C 91.230469 56.164062 91.289062 56.421875 91.347656 56.675781 C 91.410156 56.9375 91.46875 57.191406 91.519531 57.449219 C 91.628906 57.960938 91.71875 58.464844 91.792969 58.960938 C 91.867188 59.460938 91.9375 59.960938 91.980469 60.449219 C 92.0625 61.421875 92.117188 62.390625 92.0625 63.316406 C 92.347656 62.828125 92.417969 62.261719 92.394531 61.648438 C 92.382812 61.039062 92.273438 60.390625 92.171875 59.730469 C 92.121094 59.398438 92.078125 59.074219 92.054688 58.753906 C 92.027344 58.433594 92.015625 58.117188 92.035156 57.8125 C 92.058594 57.195312 92.222656 56.640625 92.589844 56.179688 C 92.726562 56.007812 92.886719 55.859375 93.0625 55.726562 C 93.234375 55.59375 93.4375 55.484375 93.640625 55.378906 C 94.046875 55.175781 94.488281 55.007812 94.902344 54.824219 C 97.3125 53.789062 99.175781 52.144531 100.359375 49.980469 C 97.300781 50.59375 94.515625 52.082031 92.382812 54.222656 C 92.234375 53.519531 92.371094 52.863281 92.703125 52.308594 C 93.027344 51.75 93.503906 51.257812 94.035156 50.875 C 94.34375 50.644531 94.667969 50.429688 94.996094 50.226562 C 95.328125 50.023438 95.679688 49.84375 96.027344 49.664062 C 96.378906 49.488281 96.722656 49.308594 97.078125 49.148438 C 97.4375 48.984375 97.792969 48.824219 98.144531 48.660156 C 98.488281 48.496094 98.835938 48.328125 99.179688 48.164062 C 99.523438 47.996094 99.855469 47.820312 100.171875 47.632812 C 100.488281 47.4375 100.808594 47.25 101.101562 47.03125 C 101.394531 46.816406 101.675781 46.582031 101.933594 46.320312 C 101.152344 45.808594 100.273438 45.90625 99.5 46.078125 C 97.136719 46.625 94.957031 47.753906 93.199219 49.34375 C 93.160156 49.0625 93.179688 48.796875 93.246094 48.546875 C 93.316406 48.300781 93.429688 48.070312 93.570312 47.859375 C 93.714844 47.644531 93.886719 47.445312 94.074219 47.261719 C 94.167969 47.171875 94.265625 47.082031 94.367188 47 C 94.46875 46.917969 94.574219 46.839844 94.683594 46.769531 C 95.074219 46.496094 95.484375 46.246094 95.90625 46.011719 C 96.328125 45.78125 96.777344 45.582031 97.21875 45.382812 L 97.890625 45.09375 C 98.113281 45 98.34375 44.914062 98.570312 44.828125 C 99.023438 44.652344 99.472656 44.476562 99.914062 44.292969 C 100.363281 44.125 100.800781 43.945312 101.222656 43.753906 C 101.433594 43.65625 101.636719 43.554688 101.84375 43.453125 C 102.050781 43.351562 102.25 43.25 102.445312 43.136719 C 102.839844 42.917969 103.207031 42.664062 103.554688 42.390625 C 103.910156 42.121094 104.234375 41.816406 104.527344 41.464844 C 102.789062 41.386719 101.0625 41.59375 99.445312 42.089844 C 99.042969 42.210938 98.640625 42.351562 98.246094 42.503906 C 97.859375 42.660156 97.480469 42.839844 97.101562 43.027344 C 96.34375 43.398438 95.644531 43.855469 94.972656 44.351562 C 95.035156 44.308594 95.035156 43.941406 95.054688 43.851562 C 95.101562 43.65625 95.160156 43.464844 95.234375 43.277344 C 95.308594 43.09375 95.394531 42.917969 95.496094 42.746094 C 95.597656 42.578125 95.714844 42.425781 95.84375 42.277344 C 96.335938 41.71875 96.992188 41.273438 97.773438 41.136719 C 98.234375 41.050781 98.183594 41.035156 99.21875 40.847656 L 101.984375 40.039062 " fill-opacity="1" fill-rule="nonzero"/></g></g></g></g></g><g clip-path="url(#957cbd2ee8)"><g clip-path="url(#3cee31e30c)"><g clip-path="url(#a680ecca34)"><g clip-path="url(#77eaf18c54)"><g clip-path="url(#c92db9c9d9)"><path fill="#527b63" d="M 98.929688 12.425781 C 98.917969 12.457031 98.902344 12.484375 98.890625 12.515625 C 98.902344 12.484375 98.917969 12.457031 98.929688 12.425781 Z M 98.671875 12.976562 L 98.714844 12.96875 C 98.757812 12.867188 98.796875 12.765625 98.835938 12.660156 C 98.796875 12.765625 98.757812 12.871094 98.710938 12.96875 L 98.707031 12.984375 C 98.707031 12.984375 98.710938 12.96875 98.714844 12.96875 C 98.699219 12.972656 98.683594 12.976562 98.671875 12.976562 Z M 106.886719 6.0625 C 106.882812 6.066406 106.875 6.070312 106.875 6.070312 C 106.875 6.070312 106.886719 6.0625 106.886719 6.0625 Z M 95.265625 18.824219 C 95.265625 18.824219 95.261719 18.824219 95.261719 18.824219 Z M 96.925781 26.8125 C 97.503906 26.378906 98.054688 25.941406 98.589844 25.488281 C 99.121094 25.035156 99.59375 24.53125 100.023438 23.976562 C 99.648438 23.636719 99.105469 23.683594 98.667969 23.78125 C 96.0625 24.394531 93.722656 25.804688 92.058594 27.785156 C 91.933594 27.347656 91.910156 26.917969 91.988281 26.519531 C 92.070312 26.117188 92.234375 25.734375 92.460938 25.378906 C 92.570312 25.199219 92.699219 25.027344 92.835938 24.859375 C 92.976562 24.699219 93.132812 24.542969 93.296875 24.394531 C 93.617188 24.101562 93.972656 23.835938 94.332031 23.605469 C 94.703125 23.367188 95.105469 23.15625 95.507812 22.949219 C 95.910156 22.746094 96.3125 22.546875 96.726562 22.363281 C 97.550781 22.003906 98.378906 21.644531 99.195312 21.289062 C 100.007812 20.933594 100.761719 20.542969 101.46875 20.101562 C 101.816406 19.878906 102.144531 19.632812 102.449219 19.363281 C 102.757812 19.097656 103.046875 18.808594 103.300781 18.484375 C 102.910156 18.457031 102.519531 18.445312 102.128906 18.445312 C 101.738281 18.445312 101.347656 18.457031 100.964844 18.492188 C 100.199219 18.554688 99.4375 18.675781 98.6875 18.84375 C 97.953125 19.023438 97.230469 19.257812 96.523438 19.539062 C 95.820312 19.824219 95.15625 20.171875 94.503906 20.558594 C 94.910156 20.203125 95.335938 19.878906 95.773438 19.574219 C 95.988281 19.417969 96.21875 19.277344 96.445312 19.136719 C 96.675781 18.996094 96.90625 18.859375 97.140625 18.722656 L 97.835938 18.324219 C 98.066406 18.191406 98.308594 18.070312 98.542969 17.941406 C 99.011719 17.6875 99.476562 17.429688 99.925781 17.160156 C 101.761719 16.097656 103.464844 14.796875 104.25 12.832031 C 101.363281 13.339844 98.628906 14.550781 96.332031 16.332031 C 96.65625 15.820312 97.019531 15.328125 97.417969 14.875 C 97.828125 14.429688 98.265625 14.003906 98.71875 13.597656 C 99.644531 12.804688 100.640625 12.074219 101.65625 11.382812 C 101.90625 11.207031 102.15625 11.03125 102.402344 10.859375 C 102.65625 10.6875 102.910156 10.515625 103.15625 10.339844 C 103.40625 10.164062 103.648438 9.988281 103.886719 9.804688 C 104.125 9.625 104.363281 9.441406 104.601562 9.257812 C 105.070312 8.890625 105.515625 8.496094 105.929688 8.074219 C 106.359375 7.660156 106.75 7.214844 107.105469 6.722656 C 107.171875 6.632812 107.234375 6.535156 107.273438 6.433594 C 107.3125 6.328125 107.332031 6.21875 107.300781 6.101562 C 107.238281 5.855469 107.03125 5.734375 106.78125 5.695312 C 106.535156 5.65625 106.253906 5.707031 106.039062 5.796875 C 105.53125 6.011719 105.035156 6.253906 104.554688 6.515625 C 104.078125 6.785156 103.625 7.089844 103.179688 7.402344 C 102.957031 7.5625 102.738281 7.726562 102.523438 7.894531 C 102.3125 8.066406 102.101562 8.242188 101.898438 8.425781 C 101.691406 8.605469 101.488281 8.789062 101.289062 8.976562 C 101.089844 9.167969 100.886719 9.355469 100.703125 9.554688 C 100.324219 9.953125 99.953125 10.363281 99.589844 10.78125 C 99.40625 10.984375 99.238281 11.203125 99.066406 11.421875 L 98.558594 12.074219 L 98.058594 12.734375 L 97.582031 13.414062 C 97.425781 13.636719 97.269531 13.863281 97.113281 14.089844 C 96.960938 14.316406 96.800781 14.539062 96.65625 14.773438 L 96.628906 13.800781 C 96.617188 13.476562 96.601562 13.148438 96.585938 12.820312 C 96.566406 12.492188 96.546875 12.164062 96.523438 11.832031 L 96.449219 10.839844 C 96.398438 10.179688 96.335938 9.511719 96.261719 8.839844 C 96.21875 8.503906 96.179688 8.167969 96.140625 7.832031 C 96.101562 7.496094 96.058594 7.160156 96.011719 6.824219 C 95.730469 6.957031 95.484375 7.132812 95.28125 7.355469 C 95.082031 7.578125 94.917969 7.839844 94.789062 8.121094 C 94.664062 8.402344 94.570312 8.707031 94.507812 9.019531 C 94.449219 9.328125 94.421875 9.644531 94.433594 9.964844 C 94.449219 10.597656 94.5625 11.222656 94.695312 11.839844 C 94.828125 12.460938 94.976562 13.070312 95.085938 13.695312 C 95.300781 14.949219 95.269531 16.183594 95.058594 17.359375 C 94.824219 18.523438 94.414062 19.632812 93.773438 20.582031 C 93.65625 19.6875 93.484375 18.785156 93.238281 17.878906 C 93.179688 17.652344 93.113281 17.425781 93.042969 17.195312 C 92.976562 16.972656 92.90625 16.75 92.835938 16.523438 C 92.6875 16.074219 92.523438 15.628906 92.34375 15.183594 C 91.988281 14.292969 91.5625 13.410156 91.09375 12.558594 C 90.625 11.710938 90.09375 10.886719 89.503906 10.101562 C 89.484375 10.5 89.476562 10.894531 89.480469 11.289062 C 89.480469 11.683594 89.511719 12.085938 89.542969 12.480469 C 89.613281 13.273438 89.726562 14.058594 89.894531 14.828125 C 90.070312 15.605469 90.289062 16.367188 90.558594 17.113281 C 90.824219 17.855469 91.132812 18.582031 91.5 19.292969 C 91.800781 19.886719 92.136719 20.484375 92.398438 21.082031 C 92.65625 21.683594 92.832031 22.28125 92.835938 22.894531 C 92.839844 23.390625 92.71875 23.84375 92.535156 24.273438 C 92.488281 24.382812 92.4375 24.488281 92.386719 24.597656 C 92.335938 24.707031 92.285156 24.8125 92.230469 24.917969 C 92.125 25.132812 92.007812 25.34375 91.894531 25.554688 C 91.429688 26.390625 91.03125 27.257812 91.171875 28.226562 C 90.953125 26.320312 90.511719 24.363281 89.863281 22.417969 C 89.542969 21.449219 89.164062 20.476562 88.730469 19.515625 C 88.308594 18.5625 87.828125 17.617188 87.292969 16.691406 C 87.175781 17.050781 87.09375 17.417969 87.035156 17.785156 C 87.007812 17.96875 86.988281 18.152344 86.972656 18.339844 C 86.960938 18.523438 86.957031 18.710938 86.957031 18.898438 C 86.964844 19.652344 87.066406 20.402344 87.234375 21.152344 C 87.410156 21.902344 87.652344 22.652344 87.921875 23.382812 C 88.058594 23.75 88.203125 24.113281 88.347656 24.46875 C 88.496094 24.832031 88.652344 25.1875 88.808594 25.539062 C 89.117188 26.242188 89.421875 26.960938 89.695312 27.671875 C 89.972656 28.390625 90.226562 29.113281 90.410156 29.816406 C 90.503906 30.171875 90.570312 30.515625 90.632812 30.867188 C 90.695312 31.214844 90.734375 31.558594 90.75 31.898438 C 90.761719 32.234375 90.75 32.566406 90.710938 32.894531 C 90.671875 33.222656 90.613281 33.546875 90.511719 33.863281 C 90.355469 33.480469 90.1875 33.097656 90.019531 32.714844 C 89.851562 32.332031 89.683594 31.953125 89.511719 31.570312 C 89.164062 30.804688 88.789062 30.03125 88.410156 29.261719 C 87.660156 27.730469 86.8125 26.179688 85.9375 24.660156 C 85.761719 24.355469 85.445312 23.992188 85.125 24.109375 C 84.875 24.199219 84.835938 24.511719 84.84375 24.769531 C 84.90625 26.398438 85.367188 27.949219 86.03125 29.460938 C 86.675781 30.964844 87.527344 32.425781 88.292969 33.839844 C 88.679688 34.550781 89.070312 35.28125 89.40625 36.007812 C 89.578125 36.375 89.730469 36.734375 89.882812 37.101562 C 90.03125 37.464844 90.167969 37.828125 90.285156 38.191406 C 90.402344 38.550781 90.503906 38.910156 90.578125 39.261719 C 90.65625 39.617188 90.722656 39.972656 90.753906 40.320312 C 90.789062 40.671875 90.796875 41.015625 90.773438 41.355469 C 90.75 41.691406 90.710938 42.03125 90.628906 42.363281 C 90.445312 41.964844 90.246094 41.5625 90.042969 41.160156 C 89.84375 40.765625 89.628906 40.367188 89.40625 39.96875 C 89.183594 39.570312 88.945312 39.171875 88.699219 38.777344 C 88.449219 38.378906 88.203125 37.988281 87.9375 37.597656 C 87.414062 36.820312 86.84375 36.042969 86.238281 35.285156 C 85.640625 34.535156 85 33.796875 84.320312 33.082031 C 84.175781 34.476562 84.675781 35.84375 85.390625 37.132812 C 85.757812 37.78125 86.191406 38.414062 86.636719 39.03125 C 87.085938 39.648438 87.539062 40.25 87.988281 40.84375 C 88.328125 41.300781 88.65625 41.757812 88.96875 42.21875 C 89.28125 42.675781 89.578125 43.136719 89.875 43.601562 C 90.167969 44.066406 90.445312 44.53125 90.707031 44.992188 C 90.839844 45.226562 90.964844 45.457031 91.089844 45.6875 C 91.21875 45.921875 91.339844 46.152344 91.460938 46.386719 C 91.699219 46.851562 91.921875 47.316406 92.121094 47.777344 C 92.328125 48.238281 92.527344 48.703125 92.699219 49.164062 C 93.035156 50.078125 93.34375 51 93.539062 51.90625 C 93.683594 51.359375 93.601562 50.792969 93.414062 50.207031 C 93.242188 49.625 92.964844 49.027344 92.695312 48.417969 C 92.554688 48.113281 92.429688 47.808594 92.320312 47.507812 C 92.210938 47.203125 92.117188 46.902344 92.050781 46.601562 C 91.914062 46 91.921875 45.417969 92.152344 44.878906 C 92.238281 44.675781 92.355469 44.492188 92.488281 44.316406 C 92.621094 44.140625 92.785156 43.984375 92.953125 43.828125 C 93.292969 43.523438 93.671875 43.246094 94.023438 42.957031 C 96.070312 41.320312 97.425781 39.238281 97.996094 36.835938 C 95.210938 38.238281 92.921875 40.414062 91.433594 43.042969 C 91.105469 42.40625 91.0625 41.734375 91.238281 41.113281 C 91.402344 40.484375 91.730469 39.882812 92.140625 39.375 C 92.378906 39.070312 92.632812 38.777344 92.894531 38.492188 C 93.160156 38.210938 93.453125 37.941406 93.738281 37.679688 C 94.027344 37.414062 94.3125 37.152344 94.613281 36.898438 C 94.917969 36.648438 95.214844 36.398438 95.511719 36.148438 C 95.800781 35.898438 96.089844 35.644531 96.378906 35.394531 C 96.664062 35.144531 96.9375 34.886719 97.191406 34.617188 C 97.441406 34.347656 97.703125 34.078125 97.925781 33.792969 C 98.15625 33.507812 98.359375 33.207031 98.539062 32.886719 C 97.652344 32.597656 96.828125 32.925781 96.132812 33.296875 C 94 34.449219 92.199219 36.117188 90.925781 38.117188 C 90.816406 37.855469 90.765625 37.59375 90.761719 37.335938 C 90.765625 37.082031 90.8125 36.832031 90.894531 36.585938 C 90.972656 36.34375 91.085938 36.105469 91.21875 35.878906 C 91.285156 35.765625 91.359375 35.65625 91.433594 35.546875 C 91.511719 35.441406 91.589844 35.339844 91.675781 35.238281 C 91.980469 34.871094 92.308594 34.523438 92.652344 34.1875 C 93 33.851562 93.378906 33.539062 93.753906 33.230469 L 94.320312 32.773438 C 94.511719 32.625 94.710938 32.480469 94.90625 32.335938 C 95.296875 32.042969 95.683594 31.757812 96.058594 31.464844 C 96.445312 31.183594 96.820312 30.894531 97.175781 30.597656 C 97.351562 30.449219 97.523438 30.292969 97.691406 30.140625 C 97.867188 29.992188 98.03125 29.835938 98.191406 29.675781 C 98.511719 29.359375 98.796875 29.019531 99.0625 28.660156 C 99.328125 28.308594 99.5625 27.925781 99.753906 27.511719 C 98.058594 27.898438 96.449219 28.554688 95.023438 29.460938 C 94.667969 29.6875 94.316406 29.925781 93.976562 30.179688 C 93.644531 30.433594 93.328125 30.707031 93.015625 30.988281 C 92.382812 31.546875 91.832031 32.171875 91.316406 32.832031 C 91.363281 32.769531 91.265625 32.417969 91.261719 32.324219 C 91.25 32.125 91.257812 31.921875 91.28125 31.726562 C 91.304688 31.527344 91.339844 31.332031 91.390625 31.144531 C 91.445312 30.953125 91.519531 30.773438 91.601562 30.597656 C 91.929688 29.925781 92.445312 29.324219 93.15625 28.984375 C 93.582031 28.777344 93.527344 28.777344 94.476562 28.324219 L 96.925781 26.8125 " fill-opacity="1" fill-rule="nonzero"/></g></g></g></g></g><g clip-path="url(#4b7821d175)"><g clip-path="url(#a240921a8b)"><g clip-path="url(#2a1d186941)"><g clip-path="url(#0f297c328e)"><g clip-path="url(#a0327e89da)"><path fill="#527b63" d="M 110.734375 28.542969 C 110.714844 28.566406 110.691406 28.589844 110.667969 28.613281 C 110.691406 28.589844 110.714844 28.566406 110.734375 28.542969 Z M 110.300781 28.972656 L 110.34375 28.980469 C 110.421875 28.902344 110.492188 28.816406 110.566406 28.730469 C 110.492188 28.816406 110.421875 28.902344 110.34375 28.980469 L 110.332031 28.988281 C 110.332031 28.988281 110.34375 28.980469 110.34375 28.980469 C 110.332031 28.976562 110.316406 28.976562 110.300781 28.972656 Z M 120.402344 25.3125 C 120.398438 25.3125 120.390625 25.316406 120.390625 25.316406 C 120.390625 25.316406 120.402344 25.3125 120.402344 25.3125 Z M 105.089844 33.285156 Z M 103.90625 41.347656 C 104.597656 41.144531 105.265625 40.921875 105.925781 40.683594 C 106.582031 40.4375 107.199219 40.128906 107.792969 39.753906 C 107.558594 39.308594 107.03125 39.164062 106.585938 39.105469 C 103.925781 38.785156 101.242188 39.304688 98.996094 40.585938 C 99.027344 40.136719 99.152344 39.722656 99.367188 39.375 C 99.578125 39.027344 99.867188 38.726562 100.199219 38.46875 C 100.367188 38.339844 100.546875 38.222656 100.730469 38.113281 C 100.921875 38.007812 101.121094 37.917969 101.324219 37.835938 C 101.730469 37.671875 102.152344 37.542969 102.570312 37.453125 C 103 37.355469 103.453125 37.296875 103.898438 37.238281 C 104.347656 37.183594 104.792969 37.136719 105.246094 37.105469 C 106.148438 37.054688 107.046875 37.003906 107.9375 36.949219 C 108.824219 36.898438 109.664062 36.789062 110.480469 36.617188 C 110.886719 36.527344 111.28125 36.414062 111.65625 36.261719 C 112.039062 36.121094 112.410156 35.949219 112.761719 35.730469 C 112.402344 35.570312 112.039062 35.425781 111.671875 35.289062 C 111.304688 35.15625 110.933594 35.035156 110.5625 34.933594 C 109.820312 34.730469 109.066406 34.582031 108.300781 34.480469 C 107.546875 34.398438 106.789062 34.367188 106.027344 34.386719 C 105.269531 34.414062 104.523438 34.511719 103.78125 34.652344 C 104.28125 34.457031 104.792969 34.300781 105.308594 34.164062 C 105.566406 34.09375 105.832031 34.039062 106.09375 33.984375 C 106.359375 33.933594 106.621094 33.882812 106.886719 33.835938 L 107.675781 33.699219 C 107.941406 33.65625 108.210938 33.625 108.472656 33.585938 C 109.003906 33.507812 109.527344 33.425781 110.046875 33.328125 C 112.132812 32.964844 114.183594 32.328125 115.59375 30.753906 C 112.707031 30.238281 109.722656 30.433594 106.949219 31.316406 C 107.433594 30.945312 107.941406 30.609375 108.472656 30.324219 C 109.011719 30.042969 109.566406 29.796875 110.132812 29.570312 C 111.277344 29.144531 112.464844 28.804688 113.65625 28.503906 C 113.949219 28.425781 114.246094 28.347656 114.539062 28.269531 C 114.835938 28.195312 115.132812 28.121094 115.425781 28.042969 C 115.71875 27.964844 116.007812 27.878906 116.296875 27.792969 C 116.582031 27.703125 116.867188 27.613281 117.15625 27.523438 C 117.722656 27.339844 118.277344 27.121094 118.8125 26.871094 C 119.355469 26.628906 119.878906 26.347656 120.382812 26.007812 C 120.472656 25.945312 120.566406 25.875 120.636719 25.792969 C 120.710938 25.710938 120.765625 25.613281 120.777344 25.492188 C 120.804688 25.238281 120.652344 25.054688 120.429688 24.929688 C 120.210938 24.808594 119.929688 24.761719 119.695312 24.773438 C 119.144531 24.796875 118.597656 24.855469 118.054688 24.9375 C 117.515625 25.027344 116.984375 25.152344 116.457031 25.296875 C 116.195312 25.367188 115.929688 25.445312 115.671875 25.527344 C 115.414062 25.617188 115.15625 25.714844 114.902344 25.8125 C 114.644531 25.910156 114.390625 26.015625 114.136719 26.121094 C 113.886719 26.230469 113.632812 26.335938 113.386719 26.460938 C 112.894531 26.707031 112.40625 26.960938 111.921875 27.226562 C 111.679688 27.359375 111.445312 27.503906 111.207031 27.648438 L 110.503906 28.085938 L 109.808594 28.535156 L 109.128906 29.007812 C 108.90625 29.164062 108.679688 29.324219 108.457031 29.480469 C 108.234375 29.640625 108.007812 29.792969 107.789062 29.964844 L 108.097656 29.042969 C 108.199219 28.734375 108.296875 28.421875 108.394531 28.109375 C 108.492188 27.796875 108.585938 27.480469 108.675781 27.160156 L 108.949219 26.203125 C 109.128906 25.566406 109.296875 24.921875 109.457031 24.265625 C 109.535156 23.933594 109.613281 23.605469 109.691406 23.273438 C 109.769531 22.949219 109.84375 22.617188 109.917969 22.289062 C 109.609375 22.3125 109.316406 22.394531 109.046875 22.535156 C 108.785156 22.675781 108.539062 22.863281 108.324219 23.082031 C 108.105469 23.304688 107.914062 23.554688 107.75 23.828125 C 107.589844 24.097656 107.453125 24.386719 107.355469 24.6875 C 107.152344 25.289062 107.046875 25.914062 106.957031 26.539062 C 106.867188 27.167969 106.796875 27.789062 106.6875 28.414062 C 106.457031 29.664062 106.003906 30.808594 105.398438 31.839844 C 104.78125 32.851562 104.015625 33.75 103.085938 34.421875 C 103.285156 33.542969 103.429688 32.636719 103.511719 31.699219 C 103.53125 31.46875 103.550781 31.230469 103.5625 30.996094 C 103.578125 30.761719 103.589844 30.527344 103.597656 30.292969 C 103.613281 29.820312 103.613281 29.34375 103.597656 28.867188 C 103.570312 27.910156 103.472656 26.933594 103.324219 25.976562 C 103.175781 25.015625 102.960938 24.0625 102.675781 23.121094 C 102.519531 23.488281 102.375 23.855469 102.242188 24.230469 C 102.109375 24.597656 101.996094 24.988281 101.890625 25.367188 C 101.683594 26.136719 101.523438 26.910156 101.414062 27.6875 C 101.3125 28.476562 101.257812 29.269531 101.253906 30.058594 C 101.25 30.851562 101.289062 31.636719 101.390625 32.429688 C 101.46875 33.089844 101.582031 33.765625 101.617188 34.417969 C 101.65625 35.070312 101.613281 35.691406 101.410156 36.269531 C 101.242188 36.734375 100.96875 37.117188 100.648438 37.460938 C 100.570312 37.546875 100.484375 37.628906 100.402344 37.710938 C 100.316406 37.796875 100.230469 37.878906 100.144531 37.960938 C 99.96875 38.125 99.789062 38.28125 99.609375 38.441406 C 98.886719 39.066406 98.210938 39.742188 98.007812 40.699219 C 98.460938 38.835938 98.71875 36.847656 98.777344 34.800781 C 98.8125 33.78125 98.789062 32.738281 98.710938 31.6875 C 98.640625 30.644531 98.515625 29.59375 98.328125 28.542969 C 98.097656 28.84375 97.890625 29.15625 97.710938 29.480469 C 97.621094 29.644531 97.539062 29.808594 97.460938 29.976562 C 97.386719 30.148438 97.320312 30.324219 97.257812 30.5 C 97.003906 31.207031 96.84375 31.949219 96.742188 32.707031 C 96.648438 33.472656 96.617188 34.257812 96.621094 35.039062 C 96.621094 35.425781 96.632812 35.816406 96.648438 36.203125 C 96.664062 36.59375 96.6875 36.984375 96.710938 37.363281 C 96.757812 38.128906 96.800781 38.90625 96.8125 39.671875 C 96.828125 40.441406 96.820312 41.203125 96.746094 41.929688 C 96.714844 42.292969 96.660156 42.640625 96.597656 42.988281 C 96.535156 43.335938 96.453125 43.671875 96.351562 43.996094 C 96.25 44.316406 96.125 44.625 95.972656 44.917969 C 95.824219 45.210938 95.65625 45.496094 95.453125 45.757812 C 95.433594 45.34375 95.410156 44.929688 95.382812 44.511719 C 95.355469 44.09375 95.332031 43.679688 95.300781 43.261719 C 95.238281 42.425781 95.152344 41.570312 95.058594 40.71875 C 94.882812 39.027344 94.617188 37.277344 94.316406 35.550781 C 94.253906 35.203125 94.082031 34.757812 93.742188 34.757812 C 93.476562 34.753906 93.332031 35.035156 93.25 35.28125 C 92.75 36.828125 92.648438 38.441406 92.753906 40.089844 C 92.84375 41.71875 93.140625 43.386719 93.375 44.976562 C 93.496094 45.773438 93.609375 46.59375 93.675781 47.390625 C 93.710938 47.792969 93.730469 48.183594 93.746094 48.578125 C 93.765625 48.972656 93.765625 49.359375 93.753906 49.738281 C 93.738281 50.117188 93.710938 50.488281 93.660156 50.847656 C 93.609375 51.203125 93.550781 51.5625 93.460938 51.898438 C 93.371094 52.238281 93.261719 52.566406 93.125 52.875 C 92.984375 53.183594 92.832031 53.488281 92.640625 53.769531 C 92.605469 53.332031 92.554688 52.886719 92.503906 52.441406 C 92.453125 52 92.386719 51.554688 92.3125 51.105469 C 92.238281 50.652344 92.15625 50.199219 92.058594 49.742188 C 91.960938 49.285156 91.863281 48.835938 91.75 48.378906 C 91.523438 47.464844 91.253906 46.542969 90.945312 45.625 C 90.640625 44.710938 90.292969 43.800781 89.902344 42.894531 C 89.285156 44.15625 89.285156 45.609375 89.515625 47.0625 C 89.640625 47.796875 89.828125 48.542969 90.035156 49.273438 C 90.242188 50.007812 90.460938 50.726562 90.679688 51.4375 C 90.84375 51.984375 90.992188 52.523438 91.128906 53.0625 C 91.265625 53.601562 91.386719 54.132812 91.503906 54.671875 C 91.621094 55.210938 91.722656 55.742188 91.8125 56.265625 C 91.855469 56.527344 91.894531 56.789062 91.929688 57.050781 C 91.972656 57.3125 92.007812 57.574219 92.039062 57.832031 C 92.101562 58.351562 92.152344 58.859375 92.183594 59.363281 C 92.21875 59.867188 92.246094 60.371094 92.25 60.863281 C 92.25 61.835938 92.222656 62.808594 92.09375 63.722656 C 92.417969 63.261719 92.535156 62.703125 92.5625 62.085938 C 92.601562 61.484375 92.546875 60.824219 92.5 60.160156 C 92.476562 59.828125 92.460938 59.5 92.460938 59.175781 C 92.464844 58.855469 92.476562 58.539062 92.519531 58.234375 C 92.597656 57.625 92.804688 57.082031 93.210938 56.65625 C 93.359375 56.496094 93.53125 56.359375 93.714844 56.242188 C 93.902344 56.125 94.109375 56.03125 94.320312 55.945312 C 94.746094 55.773438 95.199219 55.644531 95.625 55.496094 C 98.113281 54.664062 100.105469 53.179688 101.464844 51.121094 C 98.367188 51.476562 95.46875 52.730469 93.164062 54.6875 C 93.074219 53.972656 93.265625 53.332031 93.640625 52.808594 C 94.011719 52.277344 94.527344 51.824219 95.089844 51.488281 C 95.417969 51.285156 95.753906 51.097656 96.101562 50.921875 C 96.449219 50.746094 96.8125 50.597656 97.171875 50.445312 C 97.539062 50.296875 97.894531 50.148438 98.265625 50.019531 C 98.636719 49.886719 99.003906 49.753906 99.363281 49.621094 C 99.722656 49.484375 100.082031 49.347656 100.441406 49.210938 C 100.796875 49.074219 101.140625 48.925781 101.472656 48.761719 C 101.800781 48.597656 102.136719 48.433594 102.445312 48.242188 C 102.757812 48.050781 103.054688 47.839844 103.335938 47.601562 C 102.597656 47.027344 101.714844 47.050781 100.933594 47.160156 C 98.53125 47.507812 96.265625 48.453125 94.378906 49.890625 C 94.367188 49.609375 94.40625 49.34375 94.496094 49.101562 C 94.582031 48.863281 94.714844 48.644531 94.875 48.445312 C 95.035156 48.242188 95.222656 48.058594 95.425781 47.890625 C 95.527344 47.808594 95.632812 47.730469 95.738281 47.65625 C 95.847656 47.582031 95.960938 47.515625 96.070312 47.449219 C 96.484375 47.210938 96.914062 46.996094 97.355469 46.796875 C 97.792969 46.601562 98.257812 46.441406 98.714844 46.277344 L 99.40625 46.046875 C 99.636719 45.972656 99.875 45.90625 100.109375 45.835938 C 100.574219 45.699219 101.039062 45.5625 101.488281 45.417969 C 101.953125 45.285156 102.402344 45.144531 102.839844 44.984375 C 103.058594 44.90625 103.269531 44.820312 103.480469 44.738281 C 103.695312 44.65625 103.90625 44.566406 104.109375 44.472656 C 104.523438 44.285156 104.90625 44.0625 105.277344 43.820312 C 105.652344 43.578125 106 43.304688 106.320312 42.980469 C 104.597656 42.757812 102.859375 42.820312 101.207031 43.179688 C 100.792969 43.269531 100.382812 43.375 99.976562 43.492188 C 99.578125 43.617188 99.183594 43.765625 98.792969 43.921875 C 98.007812 44.226562 97.273438 44.625 96.5625 45.066406 C 96.628906 45.027344 96.65625 44.664062 96.683594 44.574219 C 96.746094 44.382812 96.820312 44.195312 96.910156 44.019531 C 97 43.839844 97.101562 43.671875 97.214844 43.507812 C 97.332031 43.351562 97.460938 43.207031 97.601562 43.070312 C 98.136719 42.554688 98.828125 42.164062 99.617188 42.089844 C 100.085938 42.042969 100.039062 42.023438 101.082031 41.925781 L 103.90625 41.347656 " fill-opacity="1" fill-rule="nonzero"/></g></g></g></g></g><g fill="#695853" fill-opacity="1"><g transform="translate(44.531423, 96.536166)"><g><path d="M 33.914062 -34.695312 L 33.914062 -48.730469 L 23.878906 -48.730469 L 23.878906 -62.375 L 9.257812 -57.988281 L 9.257812 -48.730469 L 1.460938 -48.730469 L 1.460938 -34.695312 L 9.257812 -34.695312 L 9.257812 -17.445312 C 9.257812 -3.800781 14.8125 1.949219 33.914062 0 L 33.914062 -13.253906 C 27.484375 -12.863281 23.878906 -13.253906 23.878906 -17.445312 L 23.878906 -34.695312 Z M 33.914062 -34.695312 "/></g></g></g><g fill="#695853" fill-opacity="1"><g transform="translate(82.342693, 96.536166)"><g><path d="M 33.914062 -50.09375 C 27.484375 -50.09375 22.609375 -47.753906 19.980469 -44.148438 L 19.980469 -68.222656 L 5.359375 -68.222656 L 5.359375 0 L 19.980469 0 L 19.980469 -26.605469 C 19.980469 -33.527344 23.683594 -36.644531 29.042969 -36.644531 C 33.71875 -36.644531 37.523438 -33.816406 37.523438 -27.777344 L 37.523438 0 L 52.140625 0 L 52.140625 -29.917969 C 52.140625 -43.078125 43.757812 -50.09375 33.914062 -50.09375 Z M 33.914062 -50.09375 "/></g></g></g><g fill="#695853" fill-opacity="1"><g transform="translate(139.157048, 96.536166)"><g><path d="M 36.058594 -48.730469 L 26.898438 -18.90625 L 16.082031 -48.730469 L 0 -48.730469 L 19.394531 -2.242188 C 17.25 3.703125 14.035156 5.847656 7.210938 5.847656 L 7.210938 19.492188 C 20.855469 20.175781 29.53125 14.035156 34.988281 -1.460938 L 51.652344 -48.730469 Z M 36.058594 -48.730469 "/></g></g></g><g fill="#695853" fill-opacity="1"><g transform="translate(190.806454, 96.536166)"><g><path d="M 59.9375 -50.09375 C 53.015625 -50.09375 48.535156 -47.558594 45.804688 -43.660156 C 43.078125 -47.753906 38.789062 -50.09375 33.039062 -50.09375 C 26.507812 -50.09375 22.21875 -47.558594 19.980469 -44.246094 L 19.980469 -48.730469 L 5.359375 -48.730469 L 5.359375 0 L 19.980469 0 L 19.980469 -27.484375 C 19.980469 -33.234375 22.707031 -36.644531 27.582031 -36.644531 C 32.257812 -36.644531 34.597656 -33.527344 34.597656 -28.652344 L 34.597656 0 L 49.214844 0 L 49.214844 -27.484375 C 49.214844 -33.234375 51.945312 -36.644531 56.816406 -36.644531 C 61.496094 -36.644531 63.835938 -33.527344 63.835938 -28.652344 L 63.835938 0 L 78.453125 0 L 78.453125 -29.917969 C 78.453125 -42.101562 71.144531 -50.09375 59.9375 -50.09375 Z M 59.9375 -50.09375 "/></g></g></g><g fill="#695853" fill-opacity="1"><g transform="translate(273.932763, 96.536166)"><g><path d="M 18.417969 -18.515625 L 53.015625 -18.515625 C 53.40625 -20.367188 53.601562 -22.316406 53.601562 -24.363281 C 53.601562 -39.082031 43.078125 -50.09375 28.847656 -50.09375 C 13.449219 -50.09375 2.921875 -38.886719 2.921875 -24.363281 C 2.921875 -9.84375 13.253906 1.363281 29.917969 1.363281 C 39.179688 1.363281 46.390625 -2.046875 51.164062 -8.671875 L 39.46875 -15.398438 C 37.523438 -13.253906 34.109375 -11.695312 30.113281 -11.695312 C 24.753906 -11.695312 20.269531 -13.449219 18.417969 -18.515625 Z M 18.128906 -29.433594 C 19.492188 -34.402344 23.195312 -37.132812 28.75 -37.132812 C 33.136719 -37.132812 37.523438 -35.085938 39.082031 -29.433594 Z M 18.128906 -29.433594 "/></g></g></g><g fill="#988780" fill-opacity="1"><g transform="translate(44.144208, 112.085344)"><g><path d="M 6.195312 0.167969 C 9.261719 0.167969 11.675781 -2.277344 11.675781 -5.3125 C 11.675781 -8.347656 9.261719 -10.792969 6.195312 -10.792969 C 3.128906 -10.792969 0.714844 -8.347656 0.714844 -5.3125 C 0.714844 -2.277344 3.128906 0.167969 6.195312 0.167969 Z M 6.195312 -0.605469 C 3.566406 -0.605469 1.519531 -2.703125 1.519531 -5.3125 C 1.519531 -7.925781 3.566406 -10.019531 6.195312 -10.019531 C 8.820312 -10.019531 10.871094 -7.925781 10.871094 -5.3125 C 10.871094 -2.703125 8.820312 -0.605469 6.195312 -0.605469 Z M 6.195312 -0.605469 "/></g></g></g><g fill="#988780" fill-opacity="1"><g transform="translate(56.526977, 112.085344)"><g><path d="M 5.191406 -7.757812 C 3.71875 -7.757812 2.550781 -7 1.929688 -5.828125 L 1.929688 -7.589844 L 1.167969 -7.589844 L 1.167969 3.035156 L 1.929688 3.035156 L 1.929688 -1.761719 C 2.550781 -0.59375 3.71875 0.167969 5.191406 0.167969 C 7.363281 0.167969 9.125 -1.546875 9.125 -3.796875 C 9.125 -6.042969 7.363281 -7.757812 5.191406 -7.757812 Z M 5.144531 -0.5625 C 3.339844 -0.5625 1.929688 -1.988281 1.929688 -3.796875 C 1.929688 -5.601562 3.339844 -7.027344 5.144531 -7.027344 C 6.953125 -7.027344 8.363281 -5.601562 8.363281 -3.796875 C 8.363281 -1.988281 6.953125 -0.5625 5.144531 -0.5625 Z M 5.144531 -0.5625 "/></g></g></g><g fill="#988780" fill-opacity="1"><g transform="translate(66.314824, 112.085344)"><g><path d="M 4.585938 -7.757812 C 2.261719 -7.757812 0.652344 -6.027344 0.652344 -3.796875 C 0.652344 -1.503906 2.308594 0.167969 4.644531 0.167969 C 6.148438 0.167969 7.332031 -0.515625 7.953125 -1.546875 L 7.285156 -1.941406 C 6.847656 -1.136719 5.90625 -0.5625 4.660156 -0.5625 C 2.929688 -0.5625 1.625 -1.683594 1.441406 -3.402344 L 8.320312 -3.402344 C 8.320312 -3.523438 8.335938 -3.644531 8.335938 -3.765625 C 8.335938 -5.84375 6.890625 -7.757812 4.585938 -7.757812 Z M 4.585938 -7.027344 C 6.074219 -7.027344 7.378906 -5.996094 7.542969 -4.144531 L 1.441406 -4.144531 C 1.59375 -5.828125 2.855469 -7.027344 4.585938 -7.027344 Z M 4.585938 -7.027344 "/></g></g></g><g fill="#988780" fill-opacity="1"><g transform="translate(75.252875, 112.085344)"><g><path d="M 4.644531 -7.757812 C 3.476562 -7.757812 2.503906 -7.273438 1.929688 -6.148438 L 1.929688 -7.589844 L 1.167969 -7.589844 L 1.167969 0 L 1.929688 0 L 1.929688 -4.007812 C 1.929688 -6.058594 3.097656 -7.027344 4.585938 -7.027344 C 6.011719 -7.027344 6.816406 -6.117188 6.816406 -4.722656 L 6.816406 0 L 7.589844 0 L 7.589844 -4.722656 C 7.589844 -6.558594 6.453125 -7.757812 4.644531 -7.757812 Z M 4.644531 -7.757812 "/></g></g></g><g fill="#988780" fill-opacity="1"><g transform="translate(83.811553, 112.085344)"><g/></g></g><g fill="#988780" fill-opacity="1"><g transform="translate(87.863265, 112.085344)"><g><path d="M 4.570312 0.167969 C 6.679688 0.167969 8.0625 -0.988281 8.0625 -2.746094 C 8.0625 -4.585938 6.421875 -5.175781 4.539062 -5.800781 C 3.019531 -6.300781 1.941406 -6.695312 1.941406 -7.96875 C 1.941406 -9.152344 2.871094 -10.019531 4.339844 -10.019531 C 5.859375 -10.019531 6.679688 -9.140625 7.074219 -8.183594 L 7.757812 -8.5625 C 7.242188 -9.792969 6.085938 -10.792969 4.339844 -10.792969 C 2.535156 -10.792969 1.125 -9.683594 1.125 -7.941406 C 1.125 -6.085938 2.71875 -5.585938 4.492188 -5.007812 C 6.117188 -4.492188 7.242188 -4.007812 7.242188 -2.734375 C 7.242188 -1.519531 6.34375 -0.605469 4.570312 -0.605469 C 2.824219 -0.605469 1.746094 -1.472656 1.382812 -2.746094 L 0.683594 -2.335938 C 1.167969 -0.835938 2.582031 0.167969 4.570312 0.167969 Z M 4.570312 0.167969 "/></g></g></g><g fill="#988780" fill-opacity="1"><g transform="translate(96.573695, 112.085344)"><g><path d="M 4.644531 0.167969 C 6.847656 0.167969 8.621094 -1.546875 8.621094 -3.796875 C 8.621094 -6.042969 6.847656 -7.757812 4.644531 -7.757812 C 2.429688 -7.757812 0.652344 -6.042969 0.652344 -3.796875 C 0.652344 -1.546875 2.429688 0.167969 4.644531 0.167969 Z M 4.644531 -0.5625 C 2.839844 -0.5625 1.425781 -1.988281 1.425781 -3.796875 C 1.425781 -5.601562 2.839844 -7.027344 4.644531 -7.027344 C 6.453125 -7.027344 7.847656 -5.601562 7.847656 -3.796875 C 7.847656 -1.988281 6.453125 -0.5625 4.644531 -0.5625 Z M 4.644531 -0.5625 "/></g></g></g><g fill="#988780" fill-opacity="1"><g transform="translate(105.8456, 112.085344)"><g><path d="M 6.632812 -7.589844 L 6.632812 -3.582031 C 6.632812 -1.535156 5.464844 -0.5625 3.976562 -0.5625 C 2.550781 -0.5625 1.746094 -1.472656 1.746094 -2.871094 L 1.746094 -7.589844 L 0.972656 -7.589844 L 0.972656 -2.871094 C 0.972656 -1.03125 2.109375 0.167969 3.917969 0.167969 C 5.085938 0.167969 6.058594 -0.320312 6.632812 -1.441406 L 6.632812 0 L 7.394531 0 L 7.394531 -7.589844 Z M 6.632812 -7.589844 "/></g></g></g><g fill="#988780" fill-opacity="1"><g transform="translate(114.404278, 112.085344)"><g><path d="M 1.929688 -6.101562 L 1.929688 -7.589844 L 1.167969 -7.589844 L 1.167969 0 L 1.929688 0 L 1.929688 -4.21875 C 1.929688 -6.164062 3.15625 -6.96875 4.464844 -6.96875 L 4.464844 -7.695312 C 3.429688 -7.695312 2.445312 -7.300781 1.929688 -6.101562 Z M 1.929688 -6.101562 "/></g></g></g><g fill="#988780" fill-opacity="1"><g transform="translate(119.229917, 112.085344)"><g><path d="M 4.644531 0.167969 C 6.132812 0.167969 7.40625 -0.59375 8.015625 -1.761719 L 7.378906 -2.140625 C 6.875 -1.199219 5.875 -0.5625 4.644531 -0.5625 C 2.808594 -0.5625 1.425781 -1.988281 1.425781 -3.796875 C 1.425781 -5.601562 2.808594 -7.027344 4.644531 -7.027344 C 5.859375 -7.027344 6.890625 -6.40625 7.332031 -5.449219 L 7.953125 -5.8125 C 7.40625 -7 6.132812 -7.757812 4.644531 -7.757812 C 2.351562 -7.757812 0.652344 -6.042969 0.652344 -3.796875 C 0.652344 -1.546875 2.351562 0.167969 4.644531 0.167969 Z M 4.644531 0.167969 "/></g></g></g><g fill="#988780" fill-opacity="1"><g transform="translate(127.743077, 112.085344)"><g><path d="M 4.585938 -7.757812 C 2.261719 -7.757812 0.652344 -6.027344 0.652344 -3.796875 C 0.652344 -1.503906 2.308594 0.167969 4.644531 0.167969 C 6.148438 0.167969 7.332031 -0.515625 7.953125 -1.546875 L 7.285156 -1.941406 C 6.847656 -1.136719 5.90625 -0.5625 4.660156 -0.5625 C 2.929688 -0.5625 1.625 -1.683594 1.441406 -3.402344 L 8.320312 -3.402344 C 8.320312 -3.523438 8.335938 -3.644531 8.335938 -3.765625 C 8.335938 -5.84375 6.890625 -7.757812 4.585938 -7.757812 Z M 4.585938 -7.027344 C 6.074219 -7.027344 7.378906 -5.996094 7.542969 -4.144531 L 1.441406 -4.144531 C 1.59375 -5.828125 2.855469 -7.027344 4.585938 -7.027344 Z M 4.585938 -7.027344 "/></g></g></g><g fill="#988780" fill-opacity="1"><g transform="translate(136.680374, 112.085344)"><g/></g></g><g fill="#988780" fill-opacity="1"><g transform="translate(140.732085, 112.085344)"><g/></g></g><g fill="#988780" fill-opacity="1"><g transform="translate(144.783797, 112.085344)"><g/></g></g><g fill="#988780" fill-opacity="1"><g transform="translate(148.835508, 112.085344)"><g/></g></g><g fill="#988780" fill-opacity="1"><g transform="translate(152.88722, 112.085344)"><g/></g></g><g fill="#988780" fill-opacity="1"><g transform="translate(156.938931, 112.085344)"><g/></g></g><g fill="#988780" fill-opacity="1"><g transform="translate(160.990643, 112.085344)"><g/></g></g><g fill="#988780" fill-opacity="1"><g transform="translate(165.042354, 112.085344)"><g/></g></g><g fill="#988780" fill-opacity="1"><g transform="translate(169.094065, 112.085344)"><g/></g></g><g fill="#988780" fill-opacity="1"><g transform="translate(173.145777, 112.085344)"><g/></g></g><g fill="#988780" fill-opacity="1"><g transform="translate(177.197488, 112.085344)"><g/></g></g><g fill="#988780" fill-opacity="1"><g transform="translate(181.248055, 112.085344)"><g><path d="M 7.847656 -10.625 L 0.347656 -10.625 L 0.347656 -9.867188 L 3.6875 -9.867188 L 3.6875 0 L 4.507812 0 L 4.507812 -9.867188 L 7.847656 -9.867188 Z M 7.847656 -10.625 "/></g></g></g><g fill="#988780" fill-opacity="1"><g transform="translate(189.442543, 112.085344)"><g><path d="M 1.546875 -9.425781 C 1.882812 -9.425781 2.15625 -9.699219 2.15625 -10.035156 C 2.15625 -10.351562 1.882812 -10.625 1.546875 -10.625 C 1.214844 -10.625 0.941406 -10.351562 0.941406 -10.035156 C 0.941406 -9.699219 1.214844 -9.425781 1.546875 -9.425781 Z M 1.167969 0 L 1.929688 0 L 1.929688 -7.589844 L 1.167969 -7.589844 Z M 1.167969 0 "/></g></g></g><g fill="#988780" fill-opacity="1"><g transform="translate(192.538239, 112.085344)"><g><path d="M 9.277344 -7.757812 C 8.257812 -7.757812 7.285156 -7.273438 6.742188 -6.207031 C 6.34375 -7.210938 5.480469 -7.757812 4.371094 -7.757812 C 3.402344 -7.757812 2.488281 -7.332031 1.929688 -6.285156 L 1.929688 -7.589844 L 1.167969 -7.589844 L 1.167969 0 L 1.929688 0 L 1.929688 -4.234375 C 1.929688 -6.179688 3.035156 -7.027344 4.28125 -7.027344 C 5.449219 -7.027344 6.222656 -6.253906 6.222656 -4.8125 L 6.222656 0 L 6.984375 0 L 6.984375 -4.234375 C 6.984375 -6.179688 7.984375 -7.027344 9.261719 -7.027344 C 10.445312 -7.027344 11.277344 -6.253906 11.277344 -4.8125 L 11.277344 0 L 12.039062 0 L 12.039062 -4.8125 C 12.039062 -6.710938 10.882812 -7.757812 9.277344 -7.757812 Z M 9.277344 -7.757812 "/></g></g></g><g fill="#988780" fill-opacity="1"><g transform="translate(205.543183, 112.085344)"><g><path d="M 4.585938 -7.757812 C 2.261719 -7.757812 0.652344 -6.027344 0.652344 -3.796875 C 0.652344 -1.503906 2.308594 0.167969 4.644531 0.167969 C 6.148438 0.167969 7.332031 -0.515625 7.953125 -1.546875 L 7.285156 -1.941406 C 6.847656 -1.136719 5.90625 -0.5625 4.660156 -0.5625 C 2.929688 -0.5625 1.625 -1.683594 1.441406 -3.402344 L 8.320312 -3.402344 C 8.320312 -3.523438 8.335938 -3.644531 8.335938 -3.765625 C 8.335938 -5.84375 6.890625 -7.757812 4.585938 -7.757812 Z M 4.585938 -7.027344 C 6.074219 -7.027344 7.378906 -5.996094 7.542969 -4.144531 L 1.441406 -4.144531 C 1.59375 -5.828125 2.855469 -7.027344 4.585938 -7.027344 Z M 4.585938 -7.027344 "/></g></g></g><g fill="#988780" fill-opacity="1"><g transform="translate(214.481234, 112.085344)"><g/></g></g><g fill="#988780" fill-opacity="1"><g transform="translate(218.532945, 112.085344)"><g><path d="M 7.847656 -10.625 L 0.347656 -10.625 L 0.347656 -9.867188 L 3.6875 -9.867188 L 3.6875 0 L 4.507812 0 L 4.507812 -9.867188 L 7.847656 -9.867188 Z M 7.847656 -10.625 "/></g></g></g><g fill="#988780" fill-opacity="1"><g transform="translate(226.727433, 112.085344)"><g><path d="M 1.929688 -6.101562 L 1.929688 -7.589844 L 1.167969 -7.589844 L 1.167969 0 L 1.929688 0 L 1.929688 -4.21875 C 1.929688 -6.164062 3.15625 -6.96875 4.464844 -6.96875 L 4.464844 -7.695312 C 3.429688 -7.695312 2.445312 -7.300781 1.929688 -6.101562 Z M 1.929688 -6.101562 "/></g></g></g><g fill="#988780" fill-opacity="1"><g transform="translate(231.553072, 112.085344)"><g><path d="M 7.847656 -7.589844 L 7.847656 -5.875 C 7.210938 -7.011719 6.042969 -7.757812 4.585938 -7.757812 C 2.429688 -7.757812 0.652344 -6.042969 0.652344 -3.796875 C 0.652344 -1.546875 2.429688 0.167969 4.585938 0.167969 C 6.042969 0.167969 7.210938 -0.578125 7.847656 -1.714844 L 7.847656 0 L 8.621094 0 L 8.621094 -7.589844 Z M 4.644531 -0.5625 C 2.839844 -0.5625 1.425781 -1.988281 1.425781 -3.796875 C 1.425781 -5.601562 2.839844 -7.027344 4.644531 -7.027344 C 6.453125 -7.027344 7.847656 -5.601562 7.847656 -3.796875 C 7.847656 -1.988281 6.453125 -0.5625 4.644531 -0.5625 Z M 4.644531 -0.5625 "/></g></g></g><g fill="#988780" fill-opacity="1"><g transform="translate(241.340919, 112.085344)"><g><path d="M 4.644531 0.167969 C 6.132812 0.167969 7.40625 -0.59375 8.015625 -1.761719 L 7.378906 -2.140625 C 6.875 -1.199219 5.875 -0.5625 4.644531 -0.5625 C 2.808594 -0.5625 1.425781 -1.988281 1.425781 -3.796875 C 1.425781 -5.601562 2.808594 -7.027344 4.644531 -7.027344 C 5.859375 -7.027344 6.890625 -6.40625 7.332031 -5.449219 L 7.953125 -5.8125 C 7.40625 -7 6.132812 -7.757812 4.644531 -7.757812 C 2.351562 -7.757812 0.652344 -6.042969 0.652344 -3.796875 C 0.652344 -1.546875 2.351562 0.167969 4.644531 0.167969 Z M 4.644531 0.167969 "/></g></g></g><g fill="#988780" fill-opacity="1"><g transform="translate(249.854079, 112.085344)"><g><path d="M 6.984375 0 L 2.746094 -3.945312 L 6.832031 -7.589844 L 5.769531 -7.589844 L 1.929688 -4.144531 L 1.929688 -10.625 L 1.167969 -10.625 L 1.167969 0 L 1.929688 0 L 1.929688 -3.734375 L 5.949219 0 Z M 6.984375 0 "/></g></g></g><g fill="#988780" fill-opacity="1"><g transform="translate(257.183588, 112.085344)"><g><path d="M 1.546875 -9.425781 C 1.882812 -9.425781 2.15625 -9.699219 2.15625 -10.035156 C 2.15625 -10.351562 1.882812 -10.625 1.546875 -10.625 C 1.214844 -10.625 0.941406 -10.351562 0.941406 -10.035156 C 0.941406 -9.699219 1.214844 -9.425781 1.546875 -9.425781 Z M 1.167969 0 L 1.929688 0 L 1.929688 -7.589844 L 1.167969 -7.589844 Z M 1.167969 0 "/></g></g></g><g fill="#988780" fill-opacity="1"><g transform="translate(260.279284, 112.085344)"><g><path d="M 4.644531 -7.757812 C 3.476562 -7.757812 2.503906 -7.273438 1.929688 -6.148438 L 1.929688 -7.589844 L 1.167969 -7.589844 L 1.167969 0 L 1.929688 0 L 1.929688 -4.007812 C 1.929688 -6.058594 3.097656 -7.027344 4.585938 -7.027344 C 6.011719 -7.027344 6.816406 -6.117188 6.816406 -4.722656 L 6.816406 0 L 7.589844 0 L 7.589844 -4.722656 C 7.589844 -6.558594 6.453125 -7.757812 4.644531 -7.757812 Z M 4.644531 -7.757812 "/></g></g></g><g fill="#988780" fill-opacity="1"><g transform="translate(268.837962, 112.085344)"><g><path d="M 7.910156 -7.589844 L 7.910156 -5.828125 C 7.285156 -7 6.117188 -7.757812 4.644531 -7.757812 C 2.472656 -7.757812 0.714844 -6.042969 0.714844 -3.796875 C 0.714844 -1.546875 2.472656 0.167969 4.644531 0.167969 C 6.117188 0.167969 7.285156 -0.59375 7.910156 -1.761719 L 7.910156 -0.363281 C 7.910156 1.367188 6.785156 2.472656 4.886719 2.472656 C 3.21875 2.472656 2.367188 1.804688 1.972656 1 L 1.304688 1.382812 C 1.851562 2.488281 3.113281 3.203125 4.886719 3.203125 C 6.984375 3.203125 8.667969 1.914062 8.667969 -0.363281 L 8.667969 -7.589844 Z M 4.691406 -0.5625 C 2.882812 -0.5625 1.472656 -1.988281 1.472656 -3.796875 C 1.472656 -5.601562 2.882812 -7.027344 4.691406 -7.027344 C 6.496094 -7.027344 7.910156 -5.601562 7.910156 -3.796875 C 7.910156 -1.988281 6.496094 -0.5625 4.691406 -0.5625 Z M 4.691406 -0.5625 "/></g></g></g></svg>